<svg width="81" height="80" viewBox="0 0 81 80" fill="none" xmlns="http://www.w3.org/2000/svg">
<g clip-path="url(#clip0_4117_7403)">
<path d="M32.2945 24.6514V44.6514H53.2248H63.9224V34.6514H53.2248V24.6514H32.2945Z" fill="#FECA57"/>
<path d="M15.4479 13.9532L15.0416 14.3594V17.5V20.6251H12.1666H9.2916L8.82285 21.0782C8.55723 21.3594 8.32285 21.7813 8.27598 22.1407C8.21348 22.4688 8.1666 24.5782 8.1666 26.8282V30.9063L6.13535 30.9688C4.1666 31.0157 4.1041 31.0313 3.68223 31.4532C3.24473 31.8751 3.24473 31.8907 3.24473 34.0001V36.1251L3.76035 36.5782C4.0416 36.8282 4.36973 37.0313 4.49473 37.0313C4.69785 37.0313 4.7291 37.5313 4.7291 40.4688V43.9063H3.40098C1.8541 43.9063 1.27598 44.1251 0.885354 44.8751C-0.0677714 46.7188 2.46348 52.7813 5.94785 57.0313C6.4791 57.6719 6.9166 58.3438 6.9166 58.5313C6.9166 58.7032 6.4166 59.9063 5.80723 61.1876C4.80723 63.3282 4.71348 63.5782 4.77598 64.3438C4.82285 64.9376 4.93223 65.2657 5.21348 65.5626C6.05723 66.4688 3.7916 66.4063 37.4635 66.4063C70.5416 66.4063 69.0885 66.4376 69.7604 65.6876C69.901 65.5157 72.401 60.3594 75.2916 54.2188C80.9166 42.2501 81.0104 42.0469 80.4479 40.9532C80.2916 40.6876 79.9635 40.3126 79.6822 40.1563C79.2135 39.8594 78.8541 39.8438 73.4322 39.8438C68.0416 39.8438 67.651 39.8594 67.0885 40.1563C66.4947 40.4532 65.6979 41.2657 65.6354 41.6094C65.6197 41.7188 65.5729 40.2501 65.526 38.3594C65.4322 34.6251 65.401 34.5001 64.4635 33.8907C64.0572 33.6251 63.6354 33.5938 59.4635 33.5938H54.8854V29.0626C54.8854 25.8907 54.8229 24.4219 54.6979 24.1407C54.3072 23.2657 54.5572 23.2813 43.1041 23.2813C35.5416 23.2813 32.4479 23.3282 32.1666 23.4532C31.2916 23.8594 31.2916 23.7969 31.2916 34.2813V43.9063H29.5729H27.8541V40.4688C27.8541 37.5313 27.8854 37.0313 28.0885 37.0313C28.2135 37.0313 28.5416 36.8282 28.8229 36.5782L29.3385 36.1251V34.0001C29.3385 31.8907 29.3385 31.8751 28.901 31.4532C28.4791 31.0313 28.4322 31.0157 26.3697 30.9688L24.2604 30.9063V26.2501V21.5938L23.776 21.1094L23.2916 20.6251H20.4166H17.5416V17.5157C17.5416 14.0157 17.4791 13.8125 16.4166 13.6563C15.9479 13.5782 15.776 13.625 15.4479 13.9532ZM21.7604 27.0313V30.9376H16.2135H10.6666V27.0313V23.1251H16.2135H21.7604V27.0313ZM41.9166 29.6876V33.5938H37.8541H33.7916V29.6876V25.7813H37.8541H41.9166V29.6876ZM52.3854 29.6876V33.5938H48.401H44.4166V29.6876V25.7813H48.401H52.3854V29.6876ZM26.9166 33.9844V34.5313H20.1979C15.4947 34.5313 13.3697 34.5782 13.1041 34.7032C12.5416 34.9688 12.2916 35.7813 12.6041 36.3751C12.7291 36.6251 12.9635 36.8751 13.0885 36.9376C13.2291 36.9844 16.0572 37.0313 19.3541 37.0313H25.3541V40.4688V43.9063H16.2916H7.2291V40.4688V37.0313H7.93223C9.1041 37.0313 9.68223 36.2344 9.24473 35.2657C8.99473 34.7032 8.46348 34.5313 6.99473 34.5313H5.6666V33.9844V33.4376H16.2916H26.9166V33.9844ZM41.9166 40.0001V43.9063H37.8541H33.7916V40.0001V36.0938H37.8541H41.9166V40.0001ZM52.3854 40.0001V43.9063H48.401H44.4166V40.0001V36.0938H48.401H52.3854V40.0001ZM63.0104 40.0001V43.9063H58.9479H54.8854V40.0001V36.0938H58.9479H63.0104V40.0001ZM77.9791 42.4688C77.9635 42.5469 76.4166 45.8126 74.5729 49.7344L71.2291 56.8751H65.2604C59.4635 56.8751 59.2916 56.8907 58.8854 57.2032C58.3385 57.6251 58.3229 58.5469 58.8385 59.0313C59.1979 59.3594 59.3072 59.3751 64.5885 59.4063L69.9947 59.4532L68.9635 61.6719L67.9322 63.9063H37.6666C21.0104 63.9063 7.38535 63.8751 7.38535 63.8594C7.38535 63.8282 7.7916 62.9219 8.2916 61.8594C8.80723 60.7969 9.26035 59.7969 9.30723 59.6407C9.40098 59.3907 10.6197 59.3751 31.9947 59.3751H54.5885L54.9635 58.9844C55.4791 58.4844 55.4791 57.7657 54.9635 57.2657L54.5885 56.8751H31.7916H8.99473L8.61973 56.3438C8.4166 56.0626 7.69785 55.0938 7.02598 54.2188C5.65098 52.4063 3.9791 49.1876 3.51035 47.4219L3.21348 46.3282L33.6666 46.3751C54.1354 46.4063 64.4166 46.3594 65.0104 46.2501C66.526 45.9688 67.3854 45.1407 67.7135 43.5938C67.8072 43.1251 67.9635 42.6407 68.0416 42.5313C68.1666 42.3907 69.3697 42.3438 73.1197 42.3438C75.8229 42.3438 78.0104 42.4063 77.9791 42.4688Z" fill="black"/>
</g>
<defs>
<clipPath id="clip0_4117_7403">
<rect width="80" height="80" fill="white" transform="translate(0.666626)"/>
</clipPath>
</defs>
</svg>
