<svg width="72" height="72" viewBox="0 0 72 72" fill="none" xmlns="http://www.w3.org/2000/svg">
<rect width="72" height="72" rx="36" fill="#FDC956"/>
<path d="M20.8171 23.0537C20.5114 23.1285 20.2994 23.3032 20.1435 23.615L20 23.8895V35.2534C20 43.137 20.0187 46.6734 20.0686 46.7982C20.1559 47.0352 20.4241 47.3159 20.6674 47.4156C20.8358 47.4905 22.2828 47.503 29.3182 47.503H37.7694L37.7881 49.4863L37.8068 51.476L37.9814 51.7005C38.206 51.9999 38.4742 52.1309 38.8359 52.1309C39.0729 52.1309 39.3411 52.0186 40.5199 51.4323L41.917 50.7338L43.3266 51.4323C44.5116 52.0186 44.7798 52.1309 45.0231 52.1309C45.416 52.1309 45.7341 51.9625 45.9337 51.6631L46.1021 51.4136L46.1208 49.4552L46.1395 47.503H48.6031C50.5553 47.503 51.1042 47.4843 51.2664 47.4156C51.5096 47.3159 51.7778 47.0352 51.8651 46.7982C51.915 46.6734 51.9337 43.137 51.9337 35.2534V23.8895L51.7965 23.615C51.6281 23.2907 51.4223 23.1285 51.0855 23.0537C50.7861 22.9789 21.1164 22.9851 20.8171 23.0537ZM49.7508 35.2471V45.32H47.942H46.1333V44.2722V43.2243L46.4451 42.9187C47.1312 42.2451 47.7611 41.1162 48.0169 40.1058C48.204 39.3761 48.2164 37.7856 48.048 37.1494C47.6988 35.8708 47.1437 34.9166 46.2705 34.0808C45.4721 33.3199 44.5678 32.8147 43.5137 32.5216C43.0459 32.3968 42.8463 32.3781 41.8921 32.3843C40.8941 32.3843 40.7507 32.403 40.2517 32.5527C37.7257 33.3261 35.9856 35.4031 35.7299 37.9603C35.5427 39.7752 36.1353 41.5029 37.4326 42.9374L37.7756 43.3117V44.3158V45.32H29.9793H22.183V35.2471V25.1743H35.9669H49.7508V35.2471ZM43.1083 34.6546C43.7944 34.8667 44.2996 35.1785 44.8547 35.7399C45.6655 36.5569 46.0272 37.4426 46.0272 38.584C46.0272 40.5736 44.6676 42.2202 42.7029 42.6131C40.8006 42.9936 38.8609 41.9208 38.1311 40.0809C37.208 37.7357 38.6176 35.1286 41.1124 34.5673C41.6738 34.4426 42.522 34.48 43.1083 34.6546ZM40.7694 44.7337C41.6364 44.9021 43.1395 44.821 43.8068 44.5653L43.9503 44.5092V46.9104V49.3055L43.0958 48.8876C41.9669 48.3325 41.9045 48.3325 40.7881 48.8938C40.3328 49.1246 39.9461 49.3117 39.9274 49.3117C39.8837 49.3117 39.89 44.6027 39.9336 44.5528C39.9523 44.5341 40.0459 44.5466 40.1395 44.5778C40.2268 44.6152 40.5137 44.6838 40.7694 44.7337Z" fill="black"/>
<path d="M24.2973 28.7482C23.9044 28.954 23.7298 29.2783 23.761 29.7461C23.7921 30.2763 24.0978 30.6255 24.6217 30.7316C25.0146 30.8064 37.5573 30.8002 37.9565 30.7253C38.3619 30.6505 38.6176 30.4758 38.7736 30.164C39.0168 29.69 38.8609 29.0912 38.418 28.7918L38.1873 28.6359L31.3826 28.6172L24.578 28.6047L24.2973 28.7482Z" fill="black"/>
<path d="M24.5593 34.2178C24.0978 34.33 23.7984 34.6918 23.7547 35.1783C23.7173 35.6336 23.9294 36.0141 24.3223 36.2074C24.5905 36.3384 24.6591 36.3384 28.5011 36.3384C32.6675 36.3384 32.6612 36.3384 32.9918 36.039C33.4908 35.5837 33.3723 34.6856 32.761 34.3363L32.5053 34.1866L28.6383 34.1741C26.5115 34.1679 24.6778 34.1866 24.5593 34.2178Z" fill="black"/>
<path d="M24.3036 39.9125C23.9044 40.1183 23.7298 40.4427 23.761 40.9104C23.7984 41.5092 24.1539 41.8522 24.8213 41.9209C25.0333 41.9458 26.4304 41.952 27.9211 41.9396C30.6217 41.9209 30.6342 41.9209 30.8837 41.7774C31.5885 41.372 31.6508 40.4739 31.0022 39.9811L30.7714 39.8003L27.6716 39.7815L24.578 39.7628L24.3036 39.9125Z" fill="black"/>
</svg>
