<svg width="72" height="72" viewBox="0 0 72 72" fill="none" xmlns="http://www.w3.org/2000/svg">
<rect width="72" height="72" rx="36" fill="#FDC956"/>
<path d="M27.5266 23.1512C21.0972 26.3659 19.1976 27.3423 19.1047 27.4818C18.9984 27.6478 18.9918 28.1459 19.005 35.8771L19.025 44.0998L19.191 44.2592C19.4567 44.5116 35.7825 53 36.0017 53C36.108 53 36.4401 52.8672 36.7456 52.7078C37.0445 52.5483 40.744 50.6156 44.9617 48.4171C49.1793 46.2186 52.7061 44.3456 52.7991 44.2592L52.9652 44.0998L52.9851 35.8971C52.9984 28.5976 52.9917 27.6677 52.8987 27.495C52.8058 27.3157 51.7298 26.7644 44.4901 23.1446C39.3293 20.5609 36.1213 18.9934 36.0083 19C35.9087 19 32.1627 20.8332 27.5266 23.1512ZM43.3809 24.1807L50.7069 27.8404L47.5985 29.3946L44.4967 30.9488L37.1441 27.2692L29.7849 23.5962L32.8401 22.0619C34.5206 21.2184 35.9353 20.5277 35.9818 20.5277C36.0216 20.521 39.3559 22.1682 43.3809 24.1807ZM42.8362 31.7459C42.8362 31.7658 41.2953 32.5495 39.4156 33.4927L35.9951 35.1997L28.6425 31.52L21.2832 27.8471L24.737 26.1135L28.1908 24.3866L35.5102 28.053C39.5418 30.0655 42.8362 31.7259 42.8362 31.7459ZM27.8587 32.7222L35.2645 36.4284V43.7478C35.2645 47.7795 35.2445 51.0738 35.2246 51.0738C35.2047 51.0738 31.8571 49.3337 27.7857 47.2082L20.3866 43.3493V36.1827C20.3866 32.244 20.3998 29.0227 20.4198 29.0227C20.4397 29.0227 23.7872 30.6898 27.8587 32.7222ZM51.6036 36.1893V43.3493L44.2045 47.2149C40.1396 49.3337 36.7921 51.0738 36.7655 51.0738C36.7456 51.0738 36.7257 47.7795 36.7257 43.7478V36.4284L40.2127 34.6816C42.1322 33.7252 43.713 32.9414 43.7329 32.9414C43.7528 32.9414 43.7661 34.4358 43.7661 36.2624C43.7661 39.9088 43.7661 39.942 44.158 40.1412C44.4104 40.2741 44.5831 40.2741 44.8355 40.1412C45.2273 39.942 45.2273 39.9486 45.2273 35.8838V32.1776L48.369 30.6035C50.0892 29.74 51.5239 29.0293 51.5571 29.0293C51.5836 29.0227 51.6036 32.244 51.6036 36.1893Z" fill="black" stroke="black" stroke-width="0.6"/>
</svg>
