<svg width="72" height="72" viewBox="0 0 72 72" fill="none" xmlns="http://www.w3.org/2000/svg">
<rect width="72" height="72" rx="36" fill="#FDC956"/>
<g clip-path="url(#clip0_4126_6910)">
<path d="M45.8352 44.7671C46.7413 44.9552 47.62 45.1671 48.5099 45.3099C52.1858 45.9002 52.9536 47.5795 53.4782 50.3279C53.7259 51.8954 53.8936 53.4746 53.9805 55.0594C54.0749 55.473 53.8181 55.8854 53.4068 55.9803C53.3562 55.992 53.3045 55.9985 53.2526 55.9996C52.7758 56.0134 52.473 55.6542 52.4668 55.0594C52.5176 53.3709 52.3163 51.6843 51.8698 50.0559C51.6513 49.466 51.4555 48.4225 50.6921 47.7701C50.0936 47.2585 48.9989 46.994 48.9989 46.994C47 46.5 45.6249 46.277 43.5723 46.114C42.3108 46.0314 40.3497 46.114 40.3497 46.114C38.3984 46.2402 36.5 46.7184 35.864 47.036C35.1048 47.4151 34.5 47.7 34.0531 48.2369C33.4403 48.9733 33.0448 49.8676 32.9116 50.8186C32.7196 52.1498 32.6368 53.4974 32.5108 54.8387C32.4959 54.9978 32.5233 55.1633 32.4959 55.3194C32.4619 55.7075 32.1354 56.003 31.7482 55.9962C31.3577 56.0176 31.0235 55.7176 31.0003 55.325C30.9922 52.8862 31.1394 50.4675 32.2466 48.2292C33.0101 46.7076 34.4599 45.653 36.1358 45.4C37.1328 45.1931 38.1298 44.9894 39.1631 44.7776C39.1356 44.7151 39.101 44.656 39.0602 44.6015C37.819 43.2772 37.128 41.5258 37.1284 39.7057C37.1243 39.6415 37.1243 39.577 37.1284 39.5127C37.1969 37.7746 36.7904 36.0507 35.9532 34.5286C35.6266 33.8492 35.2752 33.1823 34.9474 32.5035C34.7152 32.1743 34.7924 31.7181 35.1196 31.4846C35.166 31.4516 35.2158 31.4242 35.2683 31.4029C37.3241 30.329 39.5161 29.5422 41.7833 29.0644C42.689 28.921 43.6161 29.018 44.4728 29.3458C46.199 29.9638 47.9002 30.652 49.6002 31.3421C50.1822 31.579 50.2888 31.982 50.0102 32.558C49.761 33.0776 49.5118 33.6022 49.2332 34.1062C48.8263 35.0244 48.4822 35.9695 48.2031 36.9348C47.7588 38.063 47.9469 39.1994 47.8067 40.3245C47.6757 41.9233 47.0096 43.4302 45.9173 44.5991C45.8828 44.6513 45.8551 44.7077 45.8352 44.7671ZM38.6982 38.2574C38.5378 39.549 38.6697 40.8602 39.0839 42.0933C39.8115 43.9826 41.9241 44.9209 43.8025 44.1891C44.7322 43.8269 45.474 43.0976 45.8553 42.1711C46.2909 40.9101 46.4453 39.5683 46.3076 38.2405C43.8659 39.2209 41.1442 39.2269 38.6982 38.2574ZM36.6113 32.4429C36.916 33.0558 37.1796 33.6218 37.4837 34.1665C37.5778 34.2994 37.7258 34.383 37.8875 34.3946C40.9559 34.408 44.0242 34.4093 47.0922 34.3984C47.2282 34.4046 47.3603 34.3517 47.4549 34.253C47.7708 33.6663 48.0569 33.0621 48.4177 32.3325C46.7351 31.7553 45.1337 31.1636 43.5041 30.6722C42.9475 30.5291 42.3665 30.5094 41.8016 30.6145C39.9999 30.9949 38.2552 31.6094 36.6113 32.4429ZM38.1854 35.9528C38.1312 36.3261 38.3882 36.673 38.7594 36.7274C38.7717 36.7292 38.7842 36.7308 38.7966 36.7319C39.0459 36.7777 39.2833 36.8823 39.5301 36.9475C40.6855 37.2514 41.8476 37.647 43.0521 37.4489C44.1938 37.2578 45.3142 36.9281 46.439 36.6416C46.8434 36.5382 46.8808 36.4311 46.8035 35.9559L38.1854 35.9528ZM43.5723 46.114C42.3108 46.0314 40.3497 46.114 40.3497 46.114C41.1983 46.0591 42.4141 46.0233 43.5723 46.114Z" fill="black"/>
<path d="M43.5723 46.114C45.6249 46.277 47 46.5 48.9989 46.994C48.9989 46.994 50.0936 47.2585 50.6921 47.7701C51.4555 48.4225 51.6513 49.466 51.8698 50.0559C52.3163 51.6843 52.5176 53.3709 52.4668 55.0594C52.473 55.6542 52.7758 56.0134 53.2526 55.9996C53.3045 55.9985 53.3562 55.992 53.4068 55.9803C53.8181 55.8854 54.0749 55.473 53.9805 55.0594C53.8936 53.4746 53.7259 51.8954 53.4782 50.3279C52.9536 47.5795 52.1858 45.9002 48.5099 45.3099C47.62 45.1671 46.7413 44.9552 45.8352 44.7671C45.8551 44.7077 45.8828 44.6513 45.9173 44.5991C47.0096 43.4302 47.6757 41.9233 47.8067 40.3245C47.9469 39.1994 47.7588 38.063 48.2031 36.9348C48.4822 35.9695 48.8263 35.0244 49.2332 34.1062C49.5118 33.6022 49.761 33.0776 50.0102 32.558C50.2888 31.982 50.1822 31.579 49.6002 31.3421C47.9002 30.652 46.199 29.9638 44.4728 29.3458C43.6161 29.018 42.689 28.921 41.7833 29.0644C39.5161 29.5422 37.3241 30.329 35.2683 31.4029C35.2158 31.4242 35.166 31.4516 35.1196 31.4846C34.7924 31.7181 34.7152 32.1743 34.9474 32.5035C35.2752 33.1823 35.6266 33.8492 35.9532 34.5286C36.7904 36.0507 37.1969 37.7746 37.1284 39.5127C37.1243 39.577 37.1243 39.6415 37.1284 39.7057C37.128 41.5258 37.819 43.2772 39.0602 44.6015C39.101 44.656 39.1356 44.7151 39.1631 44.7776C38.1298 44.9894 37.1328 45.1931 36.1358 45.4C34.4599 45.653 33.0101 46.7076 32.2466 48.2292C31.1394 50.4675 30.9922 52.8862 31.0003 55.325C31.0235 55.7176 31.3577 56.0176 31.7482 55.9962C32.1354 56.003 32.4619 55.7075 32.4959 55.3194C32.5233 55.1633 32.4959 54.9978 32.5108 54.8387C32.6368 53.4974 32.7196 52.1498 32.9116 50.8186C33.0448 49.8676 33.4403 48.9733 34.0531 48.2369C34.5 47.7 35.1048 47.4151 35.864 47.036C36.5 46.7184 38.3984 46.2402 40.3497 46.114M43.5723 46.114C42.3108 46.0314 40.3497 46.114 40.3497 46.114M43.5723 46.114C42.4141 46.0233 41.1983 46.0591 40.3497 46.114M38.6982 38.2574C38.5378 39.549 38.6697 40.8602 39.0839 42.0933C39.8115 43.9826 41.9241 44.9209 43.8025 44.1891C44.7322 43.8269 45.474 43.0976 45.8553 42.1711C46.2909 40.9101 46.4453 39.5683 46.3076 38.2405C43.8659 39.2209 41.1442 39.2269 38.6982 38.2574ZM36.6113 32.4429C36.916 33.0558 37.1796 33.6218 37.4837 34.1665C37.5778 34.2994 37.7258 34.383 37.8875 34.3946C40.9559 34.408 44.0242 34.4093 47.0922 34.3984C47.2282 34.4046 47.3603 34.3517 47.4549 34.253C47.7708 33.6663 48.0569 33.0621 48.4177 32.3325C46.7351 31.7553 45.1337 31.1636 43.5041 30.6722C42.9475 30.5291 42.3665 30.5094 41.8016 30.6145C39.9999 30.9949 38.2552 31.6094 36.6113 32.4429ZM38.1854 35.9528C38.1312 36.3261 38.3882 36.673 38.7594 36.7274C38.7717 36.7292 38.7842 36.7308 38.7966 36.7319C39.0459 36.7777 39.2833 36.8823 39.5301 36.9475C40.6855 37.2514 41.8476 37.647 43.0521 37.4489C44.1938 37.2578 45.3142 36.9281 46.439 36.6416C46.8434 36.5382 46.8808 36.4311 46.8035 35.9559L38.1854 35.9528Z" stroke="black" stroke-width="0.3"/>
<path d="M40.4825 20.5416H17.5422V36.289H33.9859C34.1289 36.2794 34.2726 36.2842 34.4146 36.3033C34.825 36.3708 35.103 36.7582 35.0355 37.1686C34.9847 37.4775 34.7481 37.7228 34.4413 37.7847C34.284 37.8101 34.1242 37.8167 33.9653 37.8045H17.006C16.2603 37.8045 16 37.5523 16 36.8048C16 24.9649 16 31.7956 16 19.9558C16 19.2672 16.2665 19 16.9526 19C24.9681 19 32.9839 19 41.0003 19C41.7459 19 42 19.2579 42 20.0054V26.4164V26.5599C41.9951 27.2434 41.726 27.6076 41.2258 27.5988C40.7442 27.5907 40.4802 27.2371 40.4802 26.5804C40.4802 22.5326 40.4802 25.1729 40.4802 21.1251L40.4825 20.5416Z" fill="black" stroke="black" stroke-width="0.3"/>
<path d="M24.0259 24.008C25.025 24.008 26.024 24.0041 27.023 24.008C27.7088 24.0119 27.9981 24.3005 27.9981 24.9784C28.0006 26.9765 28.0006 28.9746 27.9981 30.9727C27.9981 31.7286 27.7303 31.9958 26.9776 31.9971C24.9795 32.001 22.9815 32.001 20.9834 31.9971C20.3016 31.9971 20.0084 31.7104 20.0084 31.0259C20.0036 28.9949 20.0036 26.9636 20.0084 24.9316C19.9444 24.4857 20.2541 24.0723 20.7 24.0083C20.7761 23.9973 20.8533 23.9973 20.9294 24.008C21.9615 24.0021 22.9937 24.008 24.0259 24.008ZM21.6138 30.3779H26.3789V25.6271H21.6138V30.3779Z" fill="black" stroke="black" stroke-width="0.3"/>
<path d="M33.3526 26.4452C32.3987 26.4452 31.4443 26.4452 30.4905 26.4452C29.9275 26.4421 29.5851 26.1475 29.587 25.6852C29.5888 25.2229 29.9344 24.9321 30.4967 24.9315C32.4366 24.9278 34.3767 24.9278 36.3166 24.9315C36.8759 24.9315 37.222 25.2316 37.2201 25.6909C37.2182 26.1501 36.8734 26.4427 36.3103 26.4452C35.3224 26.4507 34.3362 26.4452 33.3526 26.4452Z" fill="black" stroke="black" stroke-width="0.3"/>
<path d="M32.2502 29.5087C31.6463 29.5087 31.0422 29.5143 30.4383 29.5087C30.0201 29.5603 29.6392 29.2631 29.5876 28.8448C29.5359 28.4265 29.8332 28.0456 30.2515 27.994C30.316 27.9861 30.3812 27.9864 30.4457 27.995C31.6533 27.9884 32.861 27.9884 34.069 27.995C34.4876 27.9434 34.8688 28.241 34.9204 28.6595C34.972 29.078 34.6744 29.4593 34.2559 29.5109C34.1913 29.5188 34.1261 29.5186 34.0616 29.5099C33.4582 29.5149 32.8555 29.5087 32.2502 29.5087Z" fill="black" stroke="black" stroke-width="0.3"/>
</g>
<defs>
<clipPath id="clip0_4126_6910">
<rect width="40" height="40" fill="white" transform="translate(16 16)"/>
</clipPath>
</defs>
</svg>
