<svg width="72" height="72" viewBox="0 0 72 72" fill="none" xmlns="http://www.w3.org/2000/svg">
<rect width="72" height="72" rx="36" fill="#FDC956"/>
<path d="M35.4053 18.1336C35.2999 18.2039 35.1452 18.3586 35.0748 18.4641C34.9483 18.6539 34.9412 18.8508 34.9412 21.783V24.8981L34.3295 24.8418C33.9849 24.8137 33.113 24.7856 32.3747 24.7926C30.9965 24.7996 30.2159 24.891 29.0698 25.1793C23.1843 26.649 18.8106 31.5922 18.0652 37.6184C17.9668 38.4622 17.9808 40.4733 18.1004 41.3522C18.9653 47.8565 24.1476 53.0389 30.6378 53.8967C31.559 54.0163 33.5208 54.0374 34.3787 53.9319C39.0055 53.3553 43.0628 50.6411 45.3833 46.5486C46.1849 45.1353 46.8037 43.3562 47.0779 41.6335C47.2115 40.8108 47.2537 38.638 47.1553 37.6325L47.099 37.0559H50.214C53.1463 37.0559 53.3431 37.0488 53.533 36.9223C53.6385 36.8519 53.7932 36.6972 53.8635 36.5918C53.9901 36.3949 53.9971 36.0925 53.9971 27.5279C53.9971 18.9633 53.9901 18.661 53.8635 18.4641C53.7932 18.3586 53.6385 18.2039 53.533 18.1336C53.3361 18.007 53.0338 18 44.4692 18C35.9046 18 35.6022 18.007 35.4053 18.1336ZM40.5666 22.5425C40.5666 24.9121 40.5736 24.9825 40.7213 25.2497C40.8197 25.4255 40.9815 25.5731 41.1643 25.6645C41.4385 25.7981 41.6002 25.8052 44.4692 25.8052C47.3381 25.8052 47.4998 25.7981 47.7741 25.6645C47.9569 25.5731 48.1186 25.4255 48.2171 25.2497C48.3647 24.9825 48.3717 24.9121 48.3717 22.5425V20.1095H50.1297H51.8876V27.5279V34.9464H44.4692H37.0507V27.5279V20.1095H38.8087H40.5666V22.5425ZM46.1919 21.8674V23.6253H44.4692H42.7464V21.8674V20.1095H44.4692H46.1919V21.8674ZM33.6052 27.2185C33.8513 27.3451 34.2521 27.6545 34.4982 27.8936L34.9412 28.3295V30.4812V32.6259H31.6012C29.7659 32.6259 28.2611 32.6118 28.2611 32.5978C28.2611 32.436 28.9221 30.7344 29.2245 30.1156C30.5042 27.4717 32.1004 26.4169 33.6052 27.2185ZM27.6634 28.3295C27.1361 29.2226 26.4188 31.0016 26.1165 32.1477L25.9899 32.6259H24.0632H22.1365L22.4248 32.2181C23.2616 31.0438 24.3797 29.9468 25.6243 29.089C26.229 28.6741 27.8322 27.8092 27.8885 27.8725C27.9025 27.8865 27.8041 28.0905 27.6634 28.3295ZM25.4907 35.1362C25.118 37.7801 25.118 41.303 25.4977 43.6867L25.5399 43.9469L23.2616 43.9328L20.9834 43.9117L20.7583 43.2156C20.3083 41.8515 20.2099 41.1483 20.2099 39.3412C20.2169 37.9348 20.238 37.6325 20.3716 36.9926C20.5122 36.3597 20.906 35.0096 20.9974 34.8549C21.0115 34.8268 22.0451 34.8057 23.2827 34.8057H25.5399L25.4907 35.1362ZM34.9412 35.5933C34.9412 36.4652 35.0116 36.6621 35.4053 36.9223C35.5811 37.0348 35.7499 37.0559 36.671 37.0559H37.7328L37.775 37.527C37.9086 38.8771 37.782 41.9921 37.543 43.4195C37.5078 43.6516 37.4726 43.8625 37.4726 43.8906C37.4726 43.9258 35.2928 43.9469 32.6278 43.9469C28.0713 43.9469 27.776 43.9399 27.7408 43.8203C27.6424 43.5039 27.4877 42.0132 27.4173 40.7615C27.3541 39.7349 27.3541 39.0247 27.4103 38.0333C27.4806 36.7957 27.6494 35.2206 27.7408 34.9253C27.776 34.8127 28.008 34.8057 31.3621 34.8057H34.9412V35.5933ZM44.884 37.2457C45.2426 38.9966 45.0809 41.2608 44.4621 43.1875L44.216 43.9469H41.9448H39.6806L39.765 43.3C39.9478 42.0062 40.0181 40.5014 39.997 38.7927L39.9689 37.0559H42.4089H44.8418L44.884 37.2457ZM26.0462 46.3517C26.1938 47.076 26.8618 48.862 27.347 49.8254C27.6424 50.4231 27.8744 50.9083 27.8603 50.9083C27.8392 50.9083 27.5369 50.7676 27.1853 50.5989C25.35 49.7199 23.4866 48.1167 22.3616 46.4572L22.1365 46.1267H24.0703H25.9969L26.0462 46.3517ZM36.6921 46.9494C36.1085 48.6511 35.342 50.0152 34.4842 50.8731C33.4294 51.9419 32.3606 52.1177 31.327 51.4075C30.5464 50.8661 29.78 49.8535 29.1471 48.5105C28.8448 47.8706 28.2611 46.3236 28.2611 46.1619C28.2611 46.1408 30.223 46.1267 32.6208 46.1267H36.9734L36.6921 46.9494ZM43.0277 46.183C43.0277 46.2111 42.8167 46.5205 42.5565 46.865C41.6706 48.0464 40.3697 49.2347 39.1251 49.9941C38.6399 50.2965 37.3953 50.9223 37.3601 50.8872C37.3531 50.8801 37.5851 50.3809 37.8805 49.7832C38.3727 48.7988 38.8227 47.6174 39.1251 46.5275L39.2376 46.1267H41.1291C42.1768 46.1267 43.0277 46.1478 43.0277 46.183Z" fill="black"/>
</svg>
