<svg width="72" height="72" viewBox="0 0 72 72" fill="none" xmlns="http://www.w3.org/2000/svg">
<rect width="72" height="72" rx="36" fill="#FDC956"/>
<path d="M35.5324 18.1354C34.5961 18.5858 26.9914 22.7897 26.8369 22.9446L26.661 23.1135L26.6397 27.5002C26.6258 29.9083 26.6397 32.0135 26.661 32.1824C26.7032 32.4783 26.7172 32.4923 31.1534 36.1186C33.6034 38.118 35.6873 39.7871 35.8 39.8293C35.934 39.8785 36.0464 39.8785 36.1873 39.8293C36.448 39.7309 44.9959 32.746 45.2001 32.4644L45.355 32.2389L45.341 27.6691L45.3198 23.0992L45.1086 22.916C44.827 22.6626 36.3636 18.0575 36.0959 18.0083C35.9549 17.9804 35.7717 18.0226 35.5324 18.1354ZM39.5882 21.4727C41.5598 22.5499 43.1723 23.4443 43.1723 23.4652C43.1723 23.5357 36.0959 27.9999 35.9902 27.9999C35.8845 27.9999 28.8081 23.5361 28.8081 23.4656C28.8081 23.4373 35.9127 19.5294 35.9759 19.5224C35.9902 19.5224 37.6166 20.4025 39.5882 21.4727ZM31.822 27.1198L35.2864 29.3238V33.478V37.6253L34.8851 37.3085C34.6597 37.1326 33.0332 35.8017 31.2731 34.3585L28.0694 31.7323L28.0481 28.2256L28.0341 24.719L28.1891 24.8178C28.2801 24.8736 29.9135 25.909 31.822 27.1198ZM43.9184 31.6757C43.9044 31.7179 42.3271 33.0345 40.4117 34.5909C38.504 36.1538 36.8846 37.4774 36.821 37.5339C36.7014 37.6327 36.6944 37.4352 36.6944 33.4854V29.3242L40.3064 27.0288L43.9114 24.7333L43.9323 28.1695C43.9396 30.0562 43.9327 31.6331 43.9184 31.6757Z" fill="black" stroke="black" stroke-width="0.6"/>
<path d="M19.9573 24.5224C19.2321 24.6774 18.528 25.2475 18.2041 25.9517L18 26.3883V32.7605C18 38.6539 18.007 39.1749 18.1267 39.7311C18.3238 40.6325 18.6337 41.2166 19.3801 42.0618C20.2462 43.0406 21.5628 44.6178 23.9426 47.5469L25.9212 49.9763V51.7508V53.5322L26.1253 53.7576C26.3999 54.0675 26.8152 54.0814 27.1041 53.7928L27.2943 53.6026L27.3152 51.5888C27.3292 50.0116 27.3152 49.5398 27.2378 49.3918C27.1111 49.1242 22.4359 43.3787 21.1402 41.8859C20.0065 40.5833 19.915 40.4705 19.7531 40.1185C19.4223 39.4003 19.408 39.1117 19.408 32.7252C19.408 26.8178 19.408 26.7404 19.556 26.4936C19.9995 25.7403 21.0558 25.7403 21.4288 26.4936C21.5485 26.7191 21.5554 27.0712 21.5554 30.6692V34.598L21.2808 34.9288C21.1329 35.112 20.964 35.3514 20.9074 35.4711C20.5913 36.1261 20.57 36.9639 20.8516 37.7243C20.9996 38.1256 21.1824 38.3227 24.1537 41.2941C26.393 43.5403 27.3505 44.4556 27.4984 44.4908C27.8223 44.5683 28.1887 44.3428 28.301 43.9981C28.3502 43.8501 28.3715 43.6599 28.3433 43.5755C28.322 43.4911 26.9422 42.0618 25.2875 40.4001C23.6328 38.7314 22.2387 37.2947 22.1895 37.1963C22.0485 36.9357 22.0768 36.3302 22.2387 36.0626C22.3092 35.9289 22.5064 35.7318 22.6613 35.6191C22.9007 35.4572 23.0273 35.4149 23.3302 35.4149C23.5413 35.4149 23.7881 35.4572 23.8795 35.5064C24.1189 35.626 30.3504 41.8363 30.8079 42.4069C31.6105 43.4136 32.0118 44.3219 32.2655 45.7163C32.3147 46.0049 32.3639 47.5469 32.3921 49.8846L32.4344 53.6023L32.6245 53.7925C32.9201 54.081 33.3287 54.0671 33.6103 53.7502L33.8145 53.5178L33.7932 49.6382C33.7649 45.9697 33.7579 45.7163 33.61 45.0826C33.3141 43.7448 32.8566 42.7167 32.1737 41.7945C31.7093 41.1747 25.21 34.6476 24.7948 34.38C24.4005 34.1336 23.816 33.9574 23.3725 33.9574H23.0343V30.486C23.0343 28.5849 23.006 26.8388 22.9638 26.6064C22.7736 25.4304 21.8444 24.5786 20.6471 24.4868C20.429 24.4729 20.1195 24.4872 19.9573 24.5224Z" fill="black" stroke="black" stroke-width="0.6"/>
<path d="M50.8611 24.5573C50.3332 24.7053 50.0938 24.8459 49.7274 25.2193C49.347 25.5927 49.115 26.0288 49.0162 26.5572C48.974 26.7826 48.9457 28.3668 48.9457 30.4438V33.9574H48.6076C48.1641 33.9574 47.5796 34.1332 47.1853 34.38C46.7704 34.6476 40.2712 41.1747 39.8067 41.7941C39.1238 42.7164 38.666 43.7444 38.3704 45.0823C38.2225 45.716 38.2155 45.9693 38.1872 49.6378L38.1663 53.5175L38.3704 53.7499C38.652 54.0667 39.0603 54.0807 39.3562 53.7921L39.5464 53.6019L39.5886 49.8842C39.6169 47.5466 39.6661 46.0045 39.7153 45.716C39.9686 44.3219 40.3699 43.4136 41.1729 42.4065C41.6303 41.836 47.8619 35.626 48.1013 35.506C48.1927 35.4568 48.4394 35.4146 48.6505 35.4146C49.3404 35.4146 49.8827 35.9568 49.8827 36.6607C49.8827 36.8648 49.8405 37.1042 49.7913 37.196C49.7421 37.2944 48.3476 38.731 46.6933 40.3997C43.4404 43.6669 43.4686 43.6387 43.715 44.1174C43.8417 44.3707 44.222 44.554 44.4823 44.4904C44.6233 44.4552 45.644 43.4837 47.827 41.2937C50.7983 38.3224 50.9816 38.1252 51.1295 37.7239C51.4111 36.9636 51.3902 36.1257 51.0733 35.4707C51.0172 35.3511 50.8479 35.1117 50.7003 34.9285L50.4257 34.5977V30.6692C50.4257 27.0712 50.4327 26.7191 50.5524 26.4936C50.9254 25.7403 51.9817 25.7403 52.4252 26.4936C52.5731 26.74 52.5731 26.8175 52.5731 32.7252C52.5731 39.1114 52.5592 39.4003 52.228 40.1185C52.0661 40.4705 51.9747 40.5833 50.8409 41.8859C49.5031 43.4349 44.9123 49.082 44.7573 49.3779C44.6586 49.5611 44.6516 49.8706 44.6659 51.5958L44.6872 53.6026L44.8774 53.7928C45.166 54.0814 45.5816 54.0675 45.8562 53.7576L46.0603 53.5322V51.7508V49.9763L48.0389 47.5469C50.4187 44.6178 51.7353 43.0406 52.6018 42.0618C53.3482 41.217 53.6581 40.6325 53.8552 39.7311C53.9749 39.1749 53.9819 38.6539 53.9819 32.7605V26.3883L53.7777 25.9517C53.2762 24.8602 51.9879 24.2405 50.8611 24.5573Z" fill="black" stroke="black" stroke-width="0.6"/>
</svg>
