<svg width="52" height="52" viewBox="0 0 52 52" fill="none" xmlns="http://www.w3.org/2000/svg">
<rect width="52" height="52" rx="26" fill="white"/>
<path d="M18.6617 12.0533C17.7485 12.1627 16.6712 12.5183 15.851 12.9832C13.7293 14.203 12.3295 16.3253 12.0615 18.7374C11.9795 19.4649 11.9795 32.5269 12.0615 33.2543C12.4498 36.7714 15.2276 39.5501 18.7437 39.9385C19.4709 40.0205 32.529 40.0205 33.2563 39.9385C36.7724 39.5501 39.5502 36.7714 39.9385 33.2543C40.0205 32.5269 40.0205 19.4649 39.9385 18.7374C39.5502 15.2204 36.7724 12.4417 33.2563 12.0533C32.6111 11.9822 19.2905 11.9822 18.6617 12.0533ZM34.4757 15.7236C35.296 15.9697 35.9248 16.6917 36.0615 17.5505C36.2256 18.5624 35.6077 19.6181 34.6343 19.9846C33.8031 20.3018 32.8134 20.0776 32.2119 19.4321C30.9487 18.0811 31.7307 15.8986 33.5735 15.6415C33.7922 15.6142 34.2351 15.6525 34.4757 15.7236ZM27.0062 18.4202C28.6958 18.6445 30.1613 19.3719 31.3917 20.6027C34.3992 23.6111 34.3992 28.3807 31.3917 31.3891C28.3841 34.3975 23.6159 34.3975 20.6083 31.3891C17.6008 28.3807 17.6008 23.6111 20.6083 20.6027C22.3308 18.8851 24.622 18.103 27.0062 18.4202Z" fill="black"/>
<path d="M33.6829 17.2826C33.5079 17.3264 33.2782 17.578 33.24 17.7694C33.1962 18.021 33.3438 18.3054 33.5845 18.4203C33.836 18.5407 34.0821 18.4914 34.2844 18.2836C34.5305 18.0265 34.4812 17.5725 34.186 17.3865C34.0383 17.2935 33.8305 17.2498 33.6829 17.2826Z" fill="white"/>
<path d="M25.0923 20.0609C23.8182 20.2579 22.6808 20.8377 21.7621 21.7566C19.4053 24.1086 19.4053 27.8828 21.7621 30.2348C24.1134 32.5923 27.8865 32.5923 30.2378 30.2348C32.5946 27.8828 32.5946 24.1086 30.2378 21.7566C28.8763 20.3946 26.9733 19.7656 25.0923 20.0609Z" fill="black"/>
</svg>
