<svg width="52" height="52" viewBox="0 0 52 52" fill="none" xmlns="http://www.w3.org/2000/svg">
<rect width="52" height="52" rx="26" fill="white"/>
<path d="M38.086 14.4828C36.2266 15.1664 13.2852 23.9766 12.9461 24.1406C11.825 24.6711 11.6938 25.3711 12.6289 25.8469C12.7219 25.8961 14.2695 26.3883 16.0797 26.9516L19.3664 27.9742L26.8258 23.3039C30.9328 20.7391 34.3727 18.6063 34.4711 18.5735C34.7281 18.4859 34.9469 18.4914 35.0453 18.5953C35.1164 18.6664 35.1219 18.6992 35.0617 18.8031C35.0289 18.8742 32.3 21.3516 29.0078 24.3047C25.7156 27.2633 23.0086 29.7024 22.9977 29.7297C22.9867 29.757 22.8774 31.2336 22.7516 33.011L22.5219 36.2375L22.7735 36.2047C22.9102 36.1883 23.1235 36.1172 23.2492 36.0461C23.3805 35.9805 24.2336 35.2039 25.1578 34.3235C26.0766 33.443 26.8641 32.7047 26.9024 32.6938C26.9406 32.6774 28.4063 33.7164 30.1617 35.0016C31.9117 36.2867 33.4813 37.3969 33.6508 37.4735C34.0938 37.6813 34.586 37.6977 34.9086 37.5281C35.1985 37.375 35.4774 36.9922 35.5977 36.593C35.6414 36.4399 36.6477 31.8078 37.8235 26.3008C39.7867 17.1352 39.9672 16.2492 39.9672 15.7734C39.9672 15.325 39.9508 15.2156 39.8305 14.9805C39.7485 14.811 39.6008 14.6414 39.4586 14.543C39.136 14.3188 38.6 14.2914 38.086 14.4828Z" fill="black"/>
</svg>
