<svg width="26" height="24" viewBox="0 0 26 24" fill="none" xmlns="http://www.w3.org/2000/svg">
<path d="M19.7996 0.985518C19.0125 1.06677 18.3168 1.32067 17.6262 1.77263C17.2555 2.01638 16.4328 2.81872 12.1266 7.11989C8.42463 10.8168 7.01291 12.264 6.86056 12.5027C6.434 13.173 6.25627 14.1277 6.41877 14.8945C6.67267 16.1082 7.65783 17.1289 8.83596 17.4031C9.25744 17.5047 9.93791 17.5047 10.3594 17.4031C10.5422 17.3625 10.8621 17.2457 11.0703 17.1441C11.436 16.9664 11.5934 16.8191 14.7926 13.63C16.6613 11.7664 18.1797 10.2175 18.2356 10.1109C18.3676 9.857 18.3625 9.42028 18.2305 9.1613C18.0985 8.89216 17.809 8.66872 17.5145 8.59763C17.2453 8.53161 17.027 8.56208 16.7578 8.70427C16.6613 8.75505 15.1633 10.2125 13.4317 11.9492C11.5832 13.8027 10.202 15.1484 10.0801 15.2144C9.79572 15.3668 9.37931 15.3566 9.08986 15.1941C8.62267 14.9402 8.40939 14.3613 8.60236 13.8636C8.66838 13.691 9.64845 12.6855 13.7211 8.61286C18.591 3.74802 18.7789 3.57028 19.1344 3.39763C20.9625 2.52927 23.0192 3.82927 23.009 5.84528C23.009 6.39372 22.882 6.83044 22.5926 7.28239C22.4403 7.52106 20.7645 9.22731 16.2348 13.757C9.59767 20.389 9.7551 20.2468 8.87658 20.582C6.78439 21.3894 4.41799 20.4754 3.43283 18.4746C2.77775 17.1492 2.83361 15.6054 3.59533 14.3105C3.80861 13.9449 4.31642 13.4218 8.73947 8.97849L13.65 4.0527L13.711 3.77341C13.8531 3.11325 13.4215 2.51911 12.7664 2.46325C12.218 2.41755 12.4973 2.16872 7.12971 7.54138C2.94533 11.7359 2.15822 12.5484 1.91955 12.914C1.19338 14.0261 0.883612 15.0011 0.832831 16.3164C0.797284 17.2 0.878534 17.7992 1.14767 18.6015C1.48791 19.6172 2.0465 20.4957 2.81838 21.2371C4.07775 22.4355 5.59611 23.0398 7.33791 23.0297C8.68869 23.0297 9.77033 22.6945 10.9688 21.9125C11.3395 21.6738 12.3043 20.7343 17.616 15.4328C21.0336 12.0203 23.9637 9.06481 24.1262 8.86169C24.4867 8.41481 24.8981 7.60231 25.0403 7.0488C25.1723 6.54099 25.218 5.60661 25.1418 5.09372C24.7457 2.53435 22.3692 0.701141 19.7996 0.985518Z" fill="black"/>
</svg>
