<svg width="52" height="52" viewBox="0 0 52 52" fill="none" xmlns="http://www.w3.org/2000/svg">
<rect width="52" height="52" rx="26" fill="#FECA57"/>
<path d="M22.2703 18.1468C22.1281 18.1851 21.9695 18.2507 21.9148 18.289C21.6852 18.464 21.4445 18.7101 21.3734 18.8413C21.2805 19.0218 21.3297 19.071 21.6797 19.164C22.2211 19.3116 22.5766 19.596 22.7734 20.0609C22.9648 20.5148 23.0633 21.6741 23.025 23.0468C22.9812 24.6765 22.8391 25.3491 22.4891 25.6445C22.0188 26.0437 21.3844 25.557 20.3289 23.9765C19.5469 22.8007 18.8523 21.5101 18.1195 19.8476C17.7859 19.0874 17.5289 18.7757 17.1516 18.6718C16.982 18.6281 16.2547 18.6171 14.6906 18.6281C12.2297 18.6445 12.1969 18.6499 12.0547 18.9945C11.9508 19.2515 12.0219 19.4866 12.5305 20.5859C14.0289 23.8234 15.4289 26.3226 16.8891 28.3788C19.443 31.9827 21.893 33.5741 25.3438 33.8749C26.5469 33.9788 27.5203 33.9241 27.8977 33.7273C28.2039 33.5687 28.2969 33.3335 28.3844 32.4968C28.4719 31.6109 28.5375 31.321 28.7453 30.8781C29.0242 30.282 29.4508 30.0906 29.9703 30.3148C30.1781 30.4077 30.4187 30.621 31.0312 31.2663C32.8195 33.1366 33.0492 33.3499 33.5523 33.5906C33.8477 33.7327 34.1539 33.8312 34.4055 33.8695C34.9031 33.946 39.0812 33.9515 39.3383 33.8749C39.9398 33.7054 40.1367 32.9945 39.7867 32.2781C39.4312 31.5616 38.7859 30.796 37.2328 29.2538C36.418 28.439 35.6797 27.6679 35.5922 27.5421C35.3844 27.2195 35.3789 26.8531 35.5758 26.4374C35.6523 26.2734 36.3414 25.2999 37.1016 24.2773C38.6602 22.1827 39.1687 21.4335 39.5242 20.7226C40.0383 19.689 40.1148 19.1695 39.7922 18.8851C39.5187 18.639 39.2563 18.6171 36.5656 18.6171C34.2195 18.6171 34.05 18.6281 33.8367 18.7265C33.5523 18.8523 33.4758 18.9726 33.0492 19.9843C32.1633 22.057 31.1953 23.7249 30.1617 24.9335C29.6805 25.5023 29.3906 25.7265 29.1391 25.7265C28.8438 25.7265 28.5594 25.4312 28.3898 24.939C28.3516 24.8296 28.3188 23.7031 28.3023 21.8437C28.2695 19.0109 28.2641 18.9124 28.1547 18.6663C28.0289 18.3984 27.843 18.2343 27.5367 18.1359C27.2633 18.0429 22.6203 18.0538 22.2703 18.1468Z" fill="black"/>
</svg>
