<svg width="52" height="52" viewBox="0 0 52 52" fill="none" xmlns="http://www.w3.org/2000/svg">
<rect width="52" height="52" rx="26" fill="white"/>
<path d="M24.9884 12.0082C22.8721 12.2108 21.2767 12.6707 19.5442 13.5631C16.9015 14.9319 14.7687 17.1055 13.4474 19.7773C12.9375 20.8011 12.7018 21.4307 12.4331 22.4381C12.1042 23.7083 12.0055 24.4803 12 25.8819C12 26.5827 12.0274 27.3383 12.0658 27.6339C12.3673 29.8787 13.0691 31.8114 14.2479 33.6181L14.6426 34.2258L13.7709 36.7936C13.2884 38.2116 12.9046 39.3724 12.9156 39.3833C12.9266 39.3943 14.1218 39.022 15.5802 38.5566C17.0386 38.0912 18.2502 37.7079 18.2777 37.7079C18.2996 37.7079 18.5244 37.8339 18.7766 37.9926C19.0288 38.1459 19.5551 38.4306 19.9444 38.6168C23.4917 40.3086 27.5434 40.4564 31.1729 39.0165C35.2849 37.3904 38.4429 33.8262 39.5724 29.5447C39.9178 28.2307 40 27.5135 40 25.9914C40 24.4694 39.9178 23.7521 39.5724 22.4381C38.2455 17.4175 34.2158 13.5138 29.1279 12.3258C28.2726 12.1287 27.3844 12.0246 26.3043 12.0082C25.7012 11.9973 25.1091 11.9973 24.9884 12.0082ZM21.644 18.5016C21.7372 18.5509 21.8633 18.6823 21.9291 18.8027C22.0881 19.0929 23.4259 22.2958 23.4643 22.4929C23.5136 22.7392 23.2669 23.1608 22.7241 23.774C22.1539 24.4146 22.0333 24.6172 22.0826 24.8471C22.1758 25.2632 23.4423 26.9441 24.2264 27.6832C25.438 28.8275 27.2692 29.917 28.0862 29.9772C28.5083 30.0046 28.6564 29.8896 29.3033 29.0355C29.5939 28.6468 29.9009 28.2581 29.9941 28.1705C30.2025 27.9569 30.515 27.9131 30.8714 28.0445C31.3209 28.2143 34.0787 29.5556 34.2761 29.7035L34.4625 29.8403L34.4296 30.4207C34.3528 31.9099 33.8265 32.6819 32.4449 33.3553C31.129 33.9959 30.0983 33.9795 28.0862 33.2841C25.3777 32.3479 23.9467 31.4555 22.0004 29.5009C21.0245 28.5263 20.3337 27.6996 19.5442 26.5663C18.2393 24.7048 17.7404 23.2648 17.8884 21.803C18.009 20.6314 18.4202 19.7663 19.2481 18.9396C19.6483 18.5399 20.1692 18.3757 20.9587 18.403C21.2931 18.414 21.5398 18.4468 21.644 18.5016Z" fill="black"/>
</svg>
