<svg width="72" height="72" viewBox="0 0 72 72" fill="none" xmlns="http://www.w3.org/2000/svg">
<rect width="72" height="72" rx="36" fill="#FECA57"/>
<path d="M49.2768 49.5329C49.7483 50.7009 49.8571 51.0419 49.8571 51.3538C49.8571 51.8108 49.683 52.1445 49.3348 52.3549C49.0954 52.5 48.9358 52.5 35.9286 52.5C22.9213 52.5 22.7617 52.5 22.5223 52.3549L22.5569 52.2979C22.557 52.2979 22.557 52.298 22.5571 52.298M49.2768 49.5329L22.6422 49.5868C22.4137 50.1563 22.2694 50.5352 22.1823 50.8074C22.0952 51.0794 22.0667 51.2405 22.0667 51.3756C22.0667 51.7824 22.2376 52.1008 22.5571 52.298M49.2768 49.5329L48.6964 48.0893M49.2768 49.5329L48.6964 48.0893M22.5571 52.298C22.5837 52.3141 22.6063 52.3267 22.6506 52.3383C22.6976 52.3507 22.7696 52.3622 22.8943 52.3723C23.1434 52.3925 23.59 52.4061 24.4382 52.4152C26.1335 52.4333 29.4247 52.4333 35.9286 52.4333C42.4325 52.4333 45.7237 52.4333 47.4189 52.4152C48.2672 52.4061 48.7137 52.3925 48.9629 52.3723C49.0875 52.3622 49.1596 52.3507 49.2065 52.3383C49.251 52.3266 49.2736 52.314 49.3003 52.2979L49.3003 52.2978C49.6258 52.1012 49.7905 51.7909 49.7905 51.3538C49.7905 51.0578 49.6884 50.7306 49.215 49.5579L49.2149 49.5578L48.6346 48.1142L48.6298 48.1022V48.0893V36.25V24.4107V24.3978L48.6346 24.3858L49.2149 22.9422L49.215 22.9421C49.6884 21.7694 49.7905 21.4422 49.7905 21.1462C49.7905 20.7091 49.6258 20.3988 49.3003 20.2022L49.3003 20.2021C49.2736 20.186 49.251 20.1734 49.2065 20.1617C49.1596 20.1493 49.0875 20.1378 48.9629 20.1277C48.7137 20.1075 48.2672 20.0939 47.4189 20.0848C45.7237 20.0667 42.4325 20.0667 35.9286 20.0667C29.4247 20.0667 26.1335 20.0667 24.4382 20.0848C23.59 20.0939 23.1434 20.1075 22.8943 20.1277C22.7696 20.1378 22.6976 20.1493 22.6506 20.1617C22.6062 20.1734 22.5836 20.1859 22.557 20.202C22.2376 20.3993 22.0667 20.7177 22.0667 21.1244C22.0667 21.2595 22.0952 21.4206 22.1823 21.6926C22.2694 21.9649 22.4137 22.3437 22.6422 22.9132L23.2226 24.3568L23.2274 24.3688V24.3817V36.25V48.1183V48.1312L23.2226 48.1432L22.6422 49.5868L22.5571 52.298ZM48.6964 48.0893V36.25V24.4107M48.6964 48.0893V24.4107M48.6964 24.4107L49.2768 22.9671L48.6964 24.4107ZM25.1664 49.4065L25.4155 48.7873V36.25V23.7127L25.1664 23.0935L25.1662 23.0932C25.0972 22.9188 25.0335 22.7532 24.9871 22.6275C24.9638 22.5647 24.9448 22.5114 24.9314 22.4717C24.9248 22.4519 24.9194 22.4349 24.9155 22.4215C24.9136 22.4149 24.9119 22.4085 24.9106 22.4027C24.9097 22.3985 24.9077 22.3893 24.9077 22.3795C24.9077 22.3477 24.9286 22.3303 24.9345 22.3259C24.942 22.3202 24.949 22.3174 24.9517 22.3164C24.9578 22.3141 24.9633 22.313 24.9655 22.3126C24.9711 22.3116 24.9771 22.3109 24.9824 22.3104C24.9935 22.3093 25.009 22.3084 25.0281 22.3074C25.0666 22.3056 25.1232 22.3038 25.1968 22.302C25.3441 22.2984 25.561 22.2949 25.8399 22.2915C26.3977 22.2847 27.2042 22.2783 28.1995 22.2729C30.1901 22.262 32.936 22.2548 35.9576 22.2548H46.9481H47.0477L47.0097 22.3468L46.7197 23.0502L46.7196 23.0505L46.4417 23.7346V36.25V48.7654L46.7196 49.4495L46.7197 49.4498L47.0097 50.1532L47.0477 50.2452H46.9481H35.9576C32.936 50.2452 30.1901 50.238 28.1995 50.2271C27.2042 50.2217 26.3977 50.2153 25.8399 50.2085C25.561 50.2051 25.3441 50.2016 25.1968 50.198C25.1232 50.1962 25.0666 50.1944 25.0281 50.1926C25.009 50.1916 24.9935 50.1907 24.9824 50.1896C24.9771 50.1891 24.9711 50.1884 24.9655 50.1874C24.9633 50.187 24.9578 50.1859 24.9517 50.1836C24.949 50.1826 24.942 50.1798 24.9345 50.1741C24.9286 50.1697 24.9077 50.1523 24.9077 50.1205C24.9077 50.1107 24.9097 50.1015 24.9106 50.0973C24.9119 50.0915 24.9136 50.0851 24.9155 50.0785C24.9194 50.0651 24.9248 50.0481 24.9314 50.0283C24.9448 49.9887 24.9638 49.9353 24.9871 49.8725C25.0335 49.7468 25.0972 49.5812 25.1662 49.4068L25.1664 49.4065Z" fill="black" stroke="black" stroke-width="0.133333"/>
<path d="M28.3259 24.788C27.9777 25.0057 27.8036 25.3321 27.8036 25.8036C27.8036 26.2752 27.9777 26.6016 28.3259 26.8193C28.5581 26.9644 28.7104 26.9644 35.9286 26.9644C43.1468 26.9644 43.2991 26.9644 43.5313 26.8193C43.8795 26.6016 44.0536 26.2752 44.0536 25.8036C44.0536 25.3321 43.8795 25.0057 43.5313 24.788C43.2991 24.6429 43.1468 24.6429 35.9286 24.6429C28.7104 24.6429 28.5581 24.6429 28.3259 24.788Z" fill="black"/>
<path d="M34.202 29.4092C33.7449 29.6341 33.5273 30.1709 33.6434 30.7803C33.6797 30.9907 33.8247 31.1938 34.231 31.6073L34.7678 32.1586V33.1525C34.7678 33.6966 34.7533 34.1463 34.7316 34.1463C34.659 34.1463 33.0268 33.1815 32.9687 33.1017C32.9324 33.0582 32.8309 32.7462 32.7438 32.4053C32.5625 31.7306 32.3884 31.4404 32.0982 31.2881C31.5541 31.0197 31.01 31.1067 30.6183 31.5202C30.2991 31.8612 30.212 32.2239 30.3353 32.6809C30.3789 32.855 30.4006 33.0219 30.3789 33.0509C30.3644 33.0872 30.1975 33.1525 30.0162 33.2033C29.5736 33.3266 29.2109 33.7328 29.1456 34.1754C29.1021 34.4438 29.1239 34.5744 29.2617 34.85C29.5954 35.5247 30.0597 35.6553 31.1551 35.3723L31.7355 35.2273L32.5987 35.7206C33.0703 35.989 33.462 36.2284 33.462 36.2501C33.462 36.2719 33.0703 36.5113 32.5987 36.7797L31.7355 37.273L31.1333 37.1207C30.0887 36.8523 29.5591 36.9901 29.2544 37.5995C29.0803 37.9549 29.0731 38.2524 29.2254 38.6441C29.3632 38.9778 29.6244 39.1955 30.0669 39.326C30.3353 39.3986 30.3789 39.4421 30.3571 39.5944C30.3426 39.6888 30.3281 39.9572 30.3208 40.1821C30.3063 40.6463 30.4297 40.8785 30.8577 41.1687C31.0608 41.3138 31.1769 41.3355 31.5396 41.3138C32.2433 41.2702 32.5262 40.9655 32.7728 39.9862C32.8454 39.7033 32.9324 39.4421 32.9687 39.3986C33.0268 39.3188 34.659 38.3539 34.7316 38.3539C34.7533 38.3539 34.7678 38.8037 34.7678 39.355V40.3562L34.289 40.8205C33.7595 41.3428 33.6071 41.6112 33.6071 42.061C33.6071 43.1201 34.8331 43.6062 35.6456 42.8735L35.9358 42.6123L36.1679 42.8299C36.5016 43.1491 36.6685 43.2144 37.1038 43.2144C37.8074 43.2144 38.25 42.7719 38.25 42.0682C38.25 41.5749 38.1484 41.4008 37.568 40.8205L37.0893 40.3562V39.355C37.0893 38.8037 37.1038 38.3539 37.1255 38.3539C37.1981 38.3539 38.8303 39.3188 38.8884 39.3986C38.9246 39.4421 39.0117 39.7033 39.0842 39.9862C39.3309 40.9655 39.6138 41.2702 40.3175 41.3138C40.8688 41.35 41.1808 41.1614 41.4347 40.6463C41.6015 40.3199 41.6088 40.2619 41.529 39.8919C41.4855 39.6742 41.4637 39.4711 41.4782 39.4421C41.5 39.4131 41.6523 39.3478 41.8264 39.3043C42.2617 39.1955 42.6462 38.7747 42.7115 38.3249C42.755 38.0565 42.7332 37.9259 42.5954 37.6503C42.2617 36.9756 41.7974 36.845 40.702 37.1279L40.1216 37.273L39.2583 36.7797C38.7868 36.5113 38.3951 36.2719 38.3951 36.2501C38.3951 36.2284 38.7868 35.989 39.2656 35.7133L40.1361 35.22L40.702 35.3723C41.7756 35.6625 42.2544 35.5247 42.5954 34.85C42.7332 34.5744 42.755 34.4438 42.7115 34.1754C42.6462 33.7328 42.2835 33.3266 41.8409 33.2033C41.6596 33.1525 41.4927 33.0872 41.4782 33.0582C41.4564 33.0219 41.4782 32.8333 41.529 32.6302C41.7684 31.5783 40.7455 30.7948 39.7589 31.2881C39.4687 31.4404 39.2946 31.7306 39.1132 32.4053C39.0262 32.7462 38.9246 33.0582 38.8884 33.1017C38.8303 33.1815 37.1981 34.1463 37.1255 34.1463C37.1038 34.1463 37.0893 33.6966 37.0893 33.1452V32.1441L37.568 31.6798C37.8292 31.4187 38.0904 31.1212 38.1484 31.0124C38.2862 30.7513 38.279 30.1999 38.1339 29.8952C37.8074 29.2133 36.8208 29.0755 36.2115 29.6268L35.9213 29.888L35.6891 29.6631C35.5586 29.5398 35.3627 29.4019 35.2539 29.3657C34.9564 29.2496 34.4776 29.2713 34.202 29.4092Z" fill="black"/>
<path d="M39.933 45.6808C39.5848 45.8985 39.4107 46.2249 39.4107 46.6965C39.4107 47.168 39.5848 47.4945 39.933 47.7121C40.1507 47.8427 40.303 47.8572 41.7321 47.8572C43.1613 47.8572 43.3136 47.8427 43.5312 47.7121C43.8795 47.4945 44.0536 47.168 44.0536 46.6965C44.0536 46.2249 43.8795 45.8985 43.5312 45.6808C43.3136 45.5503 43.1613 45.5357 41.7321 45.5357C40.303 45.5357 40.1507 45.5503 39.933 45.6808Z" fill="black"/>
</svg>
