<svg width="72" height="72" viewBox="0 0 72 72" fill="none" xmlns="http://www.w3.org/2000/svg">
<rect width="72" height="72" rx="36" fill="#FECA57"/>
<path d="M27.3307 18.1171C24.9447 18.7891 22.9967 21.4544 22.1586 25.1769C22.0227 25.7885 22 26.1358 22 27.5176C22 29.0353 22.0151 29.1863 22.2039 29.896C22.7173 31.7988 23.7895 33.2636 25.3147 34.1244L25.7678 34.3811L25.4808 43.6306C25.1562 53.9524 25.1486 53.3332 25.6772 54.0354C25.9641 54.4129 26.5228 54.8131 26.923 54.9264C27.2854 55.0245 29.46 55.0245 29.8225 54.9264C30.2226 54.8131 30.7814 54.4129 31.0683 54.0354C31.5968 53.3332 31.5893 53.9524 31.2646 43.6382L30.9777 34.3811L31.4383 34.1244C33.6053 32.9087 34.7908 30.5605 34.7908 27.4798C34.7908 23.395 32.6011 19.3176 29.8376 18.2605C29.1806 18.0038 27.965 17.9359 27.3307 18.1171ZM29.5657 19.9066C31.0683 20.639 32.4425 22.8589 32.9937 25.4261C33.2127 26.4681 33.2353 28.4086 33.0315 29.2693C32.8427 30.0622 32.5784 30.704 32.1707 31.308C31.6346 32.1235 31.1816 32.4633 29.7394 33.1353C29.309 33.3316 29.3166 32.8257 29.6412 43.1852C29.9659 53.5748 29.9735 53.0614 29.5129 53.2954C29.1882 53.4691 27.5573 53.4691 27.2326 53.2954C26.772 53.0614 26.772 53.5899 27.1042 43.1852C27.3685 34.7964 27.3911 33.6487 27.293 33.4448C27.1797 33.2108 27.1571 33.1957 26.3341 32.8181C25.0354 32.2292 24.1444 31.0362 23.714 29.292C23.5177 28.4841 23.5328 26.4454 23.7517 25.4261C24.0462 24.0594 24.6125 22.6927 25.2996 21.6659C25.9414 20.7069 26.991 19.8613 27.7913 19.6574C28.2746 19.5366 29.0145 19.6347 29.5657 19.9066Z" fill="black" stroke="black" stroke-width="0.2"/>
<path d="M38.3396 18.0869C38.0602 18.2001 37.7506 18.5248 37.6676 18.7891C37.6223 18.9174 37.3353 20.9032 37.0182 23.2062C36.5199 26.8984 36.4519 27.5251 36.4519 28.552C36.4519 29.964 36.5652 30.5378 37.0182 31.4817C37.5845 32.6596 38.3849 33.4524 39.5854 34.0564L40.265 34.3962L39.978 43.6382C39.6534 53.9524 39.6458 53.3332 40.1744 54.0354C40.4613 54.4129 41.02 54.8131 41.4202 54.9264C41.7826 55.0245 43.9572 55.0245 44.3197 54.9264C44.7198 54.8131 45.2786 54.4129 45.5655 54.0354C46.0941 53.3332 46.0865 53.8919 45.7845 44.1818C45.6335 39.4023 45.5051 35.2419 45.4976 34.9399L45.4825 34.3962L46.1545 34.0564C47.3248 33.4675 48.1403 32.6671 48.6915 31.5572C49.1596 30.6058 49.288 29.964 49.288 28.5747C49.288 27.5176 49.2276 26.9286 48.7217 23.2062C48.4046 20.9032 48.1327 18.9552 48.1025 18.8721C48.027 18.6003 47.6872 18.2152 47.4305 18.1095C46.7887 17.8377 46.0865 18.0869 45.7694 18.6909C45.7165 18.8042 45.4976 20.1406 45.2861 21.6734C45.0747 23.1986 44.8935 24.4596 44.886 24.4747C44.8709 24.4822 44.6972 23.2666 44.5009 21.7565C44.1082 18.8193 44.0327 18.5172 43.6024 18.2152C43.255 17.966 42.6208 17.9434 42.2357 18.1699C41.7071 18.4795 41.6467 18.6985 41.239 21.7565C41.0427 23.2666 40.869 24.4822 40.8539 24.4747C40.8464 24.4596 40.6652 23.1986 40.4537 21.6734C40.2423 20.1406 40.0309 18.8193 39.9856 18.7287C39.8648 18.487 39.6081 18.2303 39.3815 18.1095C39.1475 17.9887 38.6189 17.9812 38.3396 18.0869ZM39.2456 24.7692C39.4495 26.3019 39.6534 27.6837 39.6987 27.8347C39.8346 28.3104 40.0611 28.4237 40.8766 28.4237C41.4957 28.4237 41.6014 28.401 41.7751 28.25C42.0243 28.0386 42.0318 28.0235 42.4622 24.7767C42.6661 23.2968 42.8473 22.0811 42.8699 22.0811C42.8926 22.0811 43.0814 23.2968 43.2777 24.7767C43.7081 28.0084 43.7156 28.0386 43.9648 28.25C44.1384 28.401 44.2442 28.4237 44.8633 28.4237C45.6788 28.4237 45.9053 28.3104 46.0412 27.8347C46.0865 27.6837 46.2904 26.3019 46.4942 24.7692C46.7057 23.2364 46.8869 21.9679 46.8944 21.9528C46.9095 21.9452 47.0983 23.2515 47.3097 24.8598C47.8458 28.8012 47.8383 29.6771 47.2418 30.855C46.9775 31.3684 46.4036 32.0178 45.8902 32.3727C45.7014 32.5086 45.2257 32.7351 44.8331 32.8785C43.7005 33.3089 43.7836 32.0329 44.1384 43.1852C44.4631 53.5824 44.4707 53.0614 44.0101 53.2954C43.6854 53.4691 42.0545 53.4691 41.7298 53.2954C41.2692 53.0614 41.2768 53.5824 41.6014 43.1852C41.9563 32.0329 42.0394 33.3089 40.9068 32.8785C39.8497 32.4859 39.2003 31.98 38.6718 31.1721C38.2414 30.5001 38.0904 29.9413 38.0526 28.8239C38.0224 27.9253 38.0602 27.5327 38.4226 24.8824C38.6416 23.259 38.8304 21.9452 38.8455 21.9528C38.853 21.9679 39.0342 23.2364 39.2456 24.7692Z" fill="black" stroke="black" stroke-width="0.2"/>
</svg>
