<svg width="72" height="72" viewBox="0 0 72 72" fill="none" xmlns="http://www.w3.org/2000/svg">
<rect width="72" height="72" rx="36" fill="#FECA57"/>
<path d="M28.1895 21.0352C26.6403 21.5992 25.3124 22.1203 25.2267 22.1989C25.141 22.2703 23.5776 23.6624 21.7499 25.283C19.9223 26.9036 18.2446 28.4099 18.0233 28.6241C17.6092 29.031 17.4879 29.288 17.5807 29.5807C17.6092 29.6664 19.0085 31.1371 20.6862 32.8362L23.7489 35.9346V44.3017C23.7489 52.1119 23.7632 52.6688 23.8774 52.8116C23.9417 52.8972 24.0702 53.0043 24.1558 53.0471C24.3772 53.1614 47.251 53.1614 47.4723 53.0471C47.558 53.0043 47.6865 52.8972 47.7507 52.8116C47.865 52.6688 47.8792 52.1119 47.8792 44.3017V35.9346L50.9419 32.8362C52.6196 31.1371 54.0189 29.6664 54.0475 29.5807C54.1403 29.2952 54.0189 29.031 53.6405 28.6598C53.4335 28.4599 51.6773 26.8893 49.7354 25.1687L46.2015 22.0275L43.3459 21.0138C41.7753 20.4569 40.4331 20 40.3617 20C40.0119 20 39.6692 20.3784 39.6692 20.7425C39.6692 20.8281 39.605 21.1423 39.5336 21.435C39.0338 23.3911 37.6988 24.4977 35.8284 24.4977C34.7218 24.4977 33.9079 24.205 33.2011 23.5482C32.5586 22.9556 32.0732 21.9561 31.9232 20.9281C31.8304 20.2856 31.5877 19.9929 31.1593 20.0071C31.0665 20.0071 29.7315 20.4712 28.1895 21.0352ZM30.7167 22.1061C30.9595 23.0556 31.7376 24.2121 32.5443 24.8189C33.6081 25.6257 34.6718 25.9612 36.0282 25.9112C37.3204 25.8612 38.3699 25.44 39.3194 24.5762C40.0405 23.9265 40.6687 22.9128 40.89 22.0418C40.9328 21.8633 41.0042 21.7134 41.0542 21.7134C41.097 21.7205 42.1179 22.0775 43.3173 22.5201L45.509 23.3197L48.8716 26.3467C50.7278 28.0101 52.227 29.3951 52.2198 29.4237C52.2056 29.4522 51.2275 30.466 50.0424 31.6797L47.8792 33.8857V32.1508C47.8792 30.3518 47.8578 30.2161 47.5651 29.9805C47.3938 29.8378 47.0154 29.8163 46.8012 29.9234C46.4371 30.1233 46.4514 29.5879 46.4514 41.0248V51.6265H35.7784H25.1053V40.9463V30.2661L24.8983 30.0591C24.4914 29.6521 23.8346 29.8592 23.7203 30.4303C23.6989 30.5588 23.6775 31.3727 23.6775 32.2436V33.8357L21.5215 31.6582C20.3293 30.466 19.3512 29.4594 19.3369 29.4308C19.3298 29.4023 20.8433 28.0173 22.7066 26.3467L26.0905 23.3197L28.2537 22.5201C29.446 22.0846 30.4668 21.7277 30.524 21.7348C30.5882 21.742 30.6667 21.899 30.7167 22.1061Z" fill="black" stroke="black"/>
</svg>
