<svg width="72" height="72" viewBox="0 0 72 72" fill="none" xmlns="http://www.w3.org/2000/svg">
<rect width="72" height="72" rx="36" fill="#FECA57"/>
<g clip-path="url(#clip0_4208_7302)">
<path d="M50.3991 18.3401C50.7514 18.6455 50.8767 18.9587 50.8219 19.4129C50.7671 19.914 50.3443 20.329 49.7961 20.4073C49.4672 20.4621 49.4281 20.4856 49.4594 20.6344C49.4829 20.7284 49.7883 23.3829 50.1485 26.5385L50.7984 32.2704L51.511 32.5131C53.0614 33.0456 55.4262 34.4159 55.8803 35.0502C56.0056 35.2224 56.0526 35.4104 56.0526 35.7001C56.0526 36.6632 55.0268 37.1957 54.236 36.6397C52.388 35.3321 51.1351 34.7369 49.4124 34.3533C48.5198 34.1497 46.2724 34.1105 45.2702 34.2671C41.167 34.9484 37.7217 37.8456 36.367 41.7608C35.8424 43.2721 35.6231 45.2375 35.8032 46.7096C35.9207 47.6101 35.858 47.892 35.4587 48.2444C35.0985 48.5576 34.7304 48.6202 34.2841 48.448C33.8065 48.2679 33.6185 47.9782 33.5089 47.2499L33.4149 46.647L32.3422 46.6235L31.2772 46.6L31.3164 47.4848C31.3555 48.1974 31.332 48.5184 31.2068 49.1214C30.6743 51.6741 28.7402 53.6865 26.2345 54.2816C25.3575 54.493 24.0263 54.493 23.1493 54.2816C20.6436 53.6865 18.7094 51.6741 18.177 49.1449C18.0517 48.5184 18.0282 48.2052 18.0674 47.4848L18.1065 46.6078H17.4566C16.9085 46.6078 16.7675 46.5765 16.5404 46.4277C15.9766 46.0519 16.0001 46.3573 16.0001 40.0694C16.0001 33.7816 15.9766 34.087 16.5404 33.7112C16.7988 33.5389 16.8536 33.5311 18.8269 33.5311H20.855V31.2759C20.855 29.5924 20.8315 28.9894 20.7532 28.8955C20.6827 28.7937 20.4713 28.7624 19.8605 28.7389C19.2106 28.7154 19.0227 28.6841 18.8426 28.5509C18.1143 28.0028 18.0987 27.0632 18.8112 26.5855C19.054 26.4211 19.1714 26.4054 20.0406 26.4054C20.8158 26.4054 21.0899 26.4367 21.4344 26.562C21.9121 26.7421 22.4994 27.2276 22.7734 27.6583C23.1649 28.2769 23.2041 28.6057 23.2041 31.1585V33.5311H26.2893H29.3744L29.5311 32.9203C29.8051 31.8945 32.6789 20.5404 32.6789 20.4935C32.6789 20.47 32.5144 20.4543 32.303 20.4543C31.7001 20.4465 31.3477 20.329 31.0423 20.0315C30.7761 19.7652 30.7604 19.7182 30.7604 19.2328C30.7604 18.7316 30.7683 18.716 31.0893 18.4106L31.4182 18.1052H40.7755H50.1328L50.3991 18.3401ZM39.3347 26.9927V33.5311H39.8437C40.2979 33.5311 40.4388 33.4919 41.0809 33.1709C42.8427 32.2782 44.9256 31.8084 47.0555 31.8084H48.3397V31.6205C48.3397 31.4325 47.2121 21.4644 47.1181 20.7832L47.0711 20.4543H43.2029H39.3347V26.9927ZM35.1063 20.4856C35.1063 20.5013 34.3624 23.4299 33.4619 26.9927C32.5536 30.5555 31.8175 33.4841 31.8175 33.4997C31.8175 33.5154 32.9764 33.5311 34.4016 33.5311H36.9856V26.9927V20.4543H36.0459C35.5291 20.4543 35.1063 20.47 35.1063 20.4856ZM18.3493 40.0694V44.2587H18.7173C19.0775 44.2509 19.101 44.2431 19.3594 43.8672C19.8997 43.0685 20.9646 42.215 22.006 41.7373C23.6739 40.9856 25.8821 41.0169 27.55 41.8313C28.5601 42.3168 29.719 43.2956 30.1497 44.0316L30.2828 44.2587H31.8723H33.4619V44.0786C33.4619 43.7419 33.7125 42.4186 33.9082 41.753C34.4877 39.7327 35.6309 37.6655 36.9308 36.2874L37.3223 35.8802H27.8319H18.3493V40.0694ZM23.5565 43.6793C21.7633 44.1413 20.3852 45.9422 20.3852 47.8215C20.3852 49.7713 21.8651 51.6115 23.7444 52.0186C24.363 52.1518 25.5689 52.0734 26.1405 51.8699C28.0433 51.173 29.2257 49.2154 28.9359 47.2108C28.701 45.5742 27.4168 44.0943 25.8664 43.6793C25.2948 43.5227 24.1359 43.5227 23.5565 43.6793Z" fill="black"/>
<path d="M25.3262 46.8663C25.6315 47.0699 25.8665 47.4849 25.8665 47.8216C25.8665 47.9469 25.8038 48.1818 25.7255 48.3306C25.3105 49.1684 24.0733 49.1684 23.6583 48.3306C23.2668 47.5632 23.8227 46.6862 24.6919 46.6862C24.9425 46.6862 25.1461 46.741 25.3262 46.8663Z" fill="black"/>
<path d="M48.9586 36.6711C52.4901 37.4306 55.2307 40.2339 55.9433 43.828C56.0842 44.5171 56.0842 46.4825 55.9511 47.1168C55.5596 48.9491 54.7061 50.5544 53.4532 51.7994C51.6522 53.5769 49.585 54.4382 47.0871 54.4382C44.5814 54.4382 42.522 53.5847 40.7288 51.8072C38.458 49.5521 37.5732 46.279 38.3954 43.1468C39.1941 40.0851 41.7076 37.5794 44.7928 36.765C45.8734 36.4831 47.8701 36.4362 48.9586 36.6711ZM45.5367 39.0124C42.0991 39.8345 39.8988 43.2329 40.5565 46.694C41.0342 49.2467 43.0153 51.3296 45.521 51.9325C46.4215 52.1439 47.7449 52.1439 48.6297 51.9325C50.6264 51.4549 52.2317 50.1315 53.1087 48.2366C54.0562 46.1928 53.9152 43.9377 52.7093 41.9331C51.895 40.5706 50.2976 39.4117 48.6923 39.0202C47.8153 38.8088 46.4137 38.8009 45.5367 39.0124Z" fill="black"/>
<path d="M48.1439 41.291C49.2559 41.5572 50.3834 42.4812 50.9237 43.5775C52.0591 45.8796 50.9472 48.6437 48.5355 49.5207C47.9638 49.7243 46.7501 49.8026 46.1394 49.6695C44.2522 49.2623 42.7801 47.43 42.7801 45.4724C42.7801 43.5775 44.1504 41.7921 45.9514 41.3223C46.4604 41.1892 47.6428 41.1735 48.1439 41.291ZM46.3195 43.6793C45.6617 43.9533 45.1292 44.752 45.1292 45.4724C45.1292 46.1928 45.6617 46.9915 46.3195 47.2656C46.6797 47.4222 47.4784 47.43 47.8229 47.2812C48.1909 47.1325 48.6373 46.7096 48.833 46.3416C49.0679 45.8953 49.0679 45.0496 48.833 44.6111C48.6216 44.2196 48.2222 43.8359 47.8699 43.6793C47.5097 43.5226 46.6875 43.5226 46.3195 43.6793Z" fill="black"/>
</g>
<defs>
<clipPath id="clip0_4208_7302">
<rect width="40" height="40" fill="white" transform="translate(16 16)"/>
</clipPath>
</defs>
</svg>
