<svg width="72" height="72" viewBox="0 0 72 72" fill="none" xmlns="http://www.w3.org/2000/svg">
<rect width="72" height="72" rx="36" fill="#FECA57"/>
<path d="M26.7265 18.6294C26.2207 18.9575 25.633 19.9416 25.4689 20.7412C25.1956 22.0192 25.51 23.1674 26.4326 24.2814C27.2527 25.2655 27.2732 26.0788 26.4941 27.0356C26.2822 27.2953 26.2549 27.3773 26.2549 27.719C26.2549 28.3819 26.6239 28.7578 27.2664 28.7578C27.7379 28.7578 27.9635 28.6211 28.353 28.1086C29.2756 26.8921 29.4397 25.3133 28.7904 23.9602C28.6811 23.721 28.3872 23.2904 28.1343 22.9897C27.3074 21.9987 27.2869 21.1854 28.066 20.2286C28.2778 19.9689 28.3052 19.8869 28.3052 19.5452C28.3052 19.1078 28.1753 18.8481 27.8541 18.6363C27.5944 18.4654 26.9725 18.4586 26.7265 18.6294Z" fill="black"/>
<path d="M32.8772 18.6294C32.3647 18.9643 31.7906 19.9348 31.6197 20.748C31.3464 22.0192 31.6607 23.1742 32.5765 24.2745C33.4035 25.2655 33.424 26.0788 32.6449 27.0356C32.433 27.2953 32.4057 27.3773 32.4057 27.719C32.4057 28.3819 32.7747 28.7578 33.4171 28.7578C33.8887 28.7578 34.1142 28.6211 34.5038 28.1086C35.4264 26.8921 35.5904 25.3133 34.9412 23.9602C34.8318 23.721 34.538 23.2904 34.2851 22.9897C33.4581 21.9987 33.4376 21.1854 34.2168 20.2286C34.4286 19.9689 34.456 19.8869 34.456 19.5452C34.456 19.1078 34.3261 18.8481 34.0049 18.6363C33.7452 18.4654 33.1233 18.4586 32.8772 18.6294Z" fill="black"/>
<path d="M39.0281 18.6294C38.5155 18.9643 37.9415 19.9348 37.7706 20.748C37.4972 22.0192 37.8116 23.1742 38.7274 24.2745C39.5544 25.2655 39.5749 26.0788 38.7957 27.0356C38.5839 27.2953 38.5565 27.3773 38.5565 27.719C38.5565 28.3819 38.9256 28.7578 39.568 28.7578C40.0396 28.7578 40.2651 28.6211 40.6547 28.1086C41.5773 26.8921 41.7413 25.3133 41.0921 23.9602C40.9827 23.721 40.6888 23.2904 40.436 22.9897C39.609 21.9987 39.5885 21.1854 40.3676 20.2286C40.5795 19.9689 40.6068 19.8869 40.6068 19.5452C40.6068 19.1078 40.477 18.8481 40.1558 18.6363C39.8961 18.4654 39.2741 18.4586 39.0281 18.6294Z" fill="black"/>
<path d="M19.4616 31.0062C19.3522 31.0814 19.2019 31.2317 19.1267 31.3548C18.9968 31.5529 18.9968 31.6486 19.031 32.9471C19.072 34.478 19.1882 35.5305 19.4958 37.0614C20.2544 40.8544 21.7579 44.128 23.9517 46.7114L24.4848 47.347H22.1133C19.4958 47.347 19.4547 47.3538 19.1609 47.7775C18.8328 48.2696 18.9968 48.8847 19.7418 49.9371C21.013 51.7346 23.0359 53.0194 25.1887 53.3953C26.0977 53.5525 40.764 53.5525 41.673 53.3953C44.1812 52.9579 46.4911 51.2835 47.653 49.076C47.9058 48.5908 47.9263 48.1124 47.7008 47.7775C47.4069 47.3538 47.3659 47.347 44.7416 47.347H42.3632L42.6844 46.9916C42.8553 46.7934 43.238 46.315 43.5251 45.9391L44.0445 45.2488L45.1448 45.2078C46.7577 45.1532 48.0083 44.8114 49.3274 44.0528C51.5963 42.7543 53.1272 40.7245 53.7765 38.1549C54.0088 37.2117 54.0772 35.6467 53.8995 35.1068C53.5851 34.1295 52.8607 33.3914 51.9039 33.0565C51.5622 32.9403 51.323 32.9266 49.6827 32.9266H47.8512V32.2227C47.8512 31.4573 47.776 31.2591 47.4001 31.0062C47.2087 30.8832 46.8055 30.8764 33.4308 30.8764C19.9947 30.8764 19.6529 30.8832 19.4616 31.0062ZM45.7325 33.1795C45.7325 33.6032 45.5343 35.2298 45.384 36.0704C44.5844 40.581 42.4794 44.5996 39.7115 46.9096L39.1853 47.347H33.4308H27.6764L27.1911 46.9437C24.4438 44.7021 22.2841 40.5879 21.4709 36.0704C21.3342 35.2845 21.1291 33.5691 21.1291 33.1453V32.9266H33.4308H45.7325V33.1795ZM51.4118 35.1614C51.8287 35.428 51.9107 35.6603 51.8629 36.5215C51.7262 39.0023 50.1406 41.3328 47.8443 42.4194C47.2019 42.727 46.3066 43.0004 45.712 43.0755L45.3156 43.1234L45.4182 42.891C45.4728 42.768 45.671 42.3238 45.8555 41.9137C46.5663 40.335 47.2156 38.148 47.5094 36.3096C47.5846 35.8175 47.6666 35.3186 47.6871 35.1956L47.7213 34.9633L49.4435 34.9906C51.0838 35.0111 51.1794 35.0179 51.4118 35.1614ZM44.598 49.6091C44.0376 50.2037 42.6981 50.9623 41.8028 51.2015C40.9759 51.4134 39.9166 51.4475 33.4308 51.4475C26.9451 51.4475 25.8858 51.4134 25.0589 51.2015C24.1636 50.9623 22.824 50.2037 22.2636 49.6091L22.0586 49.3972H33.4308H44.8031L44.598 49.6091Z" fill="black"/>
</svg>
