<svg width="72" height="72" viewBox="0 0 72 72" fill="none" xmlns="http://www.w3.org/2000/svg">
<rect width="72" height="72" rx="36" fill="#FECA57"/>
<path d="M45.7039 19.0684C44.1648 19.2326 42.7147 19.643 41.3945 20.286C40.348 20.799 39.5203 21.3872 38.6858 22.2081C37.906 22.981 37.393 23.6445 36.8184 24.6569L36.3875 25.4093L36.066 24.7458C35.3956 23.3983 34.0892 21.6677 33.4804 21.3325C33.1315 21.1478 32.9332 21.141 32.5638 21.3257C32.3517 21.4283 32.2355 21.5446 32.1329 21.7566C31.8661 22.3038 31.9345 22.5432 32.6048 23.2751C33.8429 24.65 34.7116 26.3396 35.0673 28.077C35.1357 28.4395 35.1904 28.7405 35.1768 28.7542C35.1699 28.761 34.8553 28.6447 34.4791 28.4942C31.2915 27.1946 27.6799 27.7008 24.8412 29.8623C22.9396 31.3124 21.6468 33.3645 21.1885 35.6491C20.997 36.6273 20.9559 37.4823 21.0448 38.6862C21.25 41.5591 22.0846 44.1926 23.6031 46.7508C25.833 50.5061 29.4104 53.4542 32.3312 53.9467C32.9195 54.0425 33.8224 54.0083 34.5543 53.851C35.0468 53.7484 35.9018 53.4679 36.1481 53.338C36.2575 53.2832 36.367 53.3037 36.6884 53.4406C37.434 53.7757 38.3027 53.9536 39.1851 53.9536C40.4437 53.9536 41.374 53.7278 42.6258 53.1259C43.9186 52.4966 44.9583 51.71 46.2511 50.383C50.2116 46.3062 52.3252 40.1089 51.3539 35.4439C50.964 33.5765 50.1227 31.9896 48.8572 30.731C48.0432 29.9307 47.2976 29.3971 46.1827 28.8431L45.2866 28.3916L45.656 27.9812C47.0377 26.4627 48.0159 23.9523 48.269 21.2846C48.3716 20.2039 48.3579 19.8961 48.2006 19.5746C47.9817 19.13 47.6739 18.9932 46.8941 19C46.5384 19.0068 46.0048 19.0342 45.7039 19.0684ZM46.1827 21.5035C45.998 23.0905 45.4097 24.8005 44.6847 25.8881C44.2743 26.5037 43.5355 27.2014 43.0225 27.4682C42.571 27.6939 41.9623 27.8102 41.2509 27.8171C40.389 27.8171 38.8636 28.1796 37.8786 28.6105L37.5161 28.7747L37.5572 28.5148C37.5845 28.378 37.6803 27.9949 37.7692 27.6734C38.7405 24.2465 41.333 21.9345 44.9856 21.2504C45.3413 21.182 45.7723 21.1205 45.9364 21.1205L46.2306 21.1136L46.1827 21.5035ZM32.3312 29.9786C33.3915 30.1769 34.3833 30.6079 35.3067 31.2714C36.1823 31.9075 36.4627 31.9144 37.222 31.3398C37.8102 30.8952 39.0278 30.3137 39.8213 30.0948C40.4574 29.917 40.5942 29.9033 41.8049 29.9033C43.0157 29.9033 43.1525 29.917 43.7818 30.0948C45.0882 30.4574 46.1622 31.0662 47.1266 31.9828C48.4536 33.2482 49.2676 34.8283 49.507 36.6204C49.7191 38.1937 49.3908 40.6288 48.7136 42.5714C47.3592 46.4704 44.3358 50.1025 41.2714 51.5184C39.9239 52.1409 38.6516 52.0862 37.0852 51.3474C36.7637 51.197 36.4217 51.0738 36.3259 51.0738C36.2233 51.0738 35.8471 51.2106 35.4846 51.3748C33.9387 52.0793 32.7553 52.1341 31.483 51.5732C28.8017 50.383 25.9424 47.2843 24.4513 43.9532C23.179 41.0939 22.7344 37.879 23.309 35.5807C23.5005 34.8078 24.1571 33.515 24.7044 32.8309C25.8946 31.3466 27.7414 30.259 29.6293 29.9444C30.2244 29.8418 31.7293 29.8623 32.3312 29.9786Z" fill="black" stroke="black" stroke-width="0.2"/>
<path d="M29.7319 32.2906C28.87 32.4821 28.2202 32.7831 27.502 33.3303C26.2365 34.2879 25.4294 35.8748 25.4225 37.4002C25.4225 37.8311 25.4499 37.9611 25.5799 38.1526C25.9903 38.7683 26.818 38.7614 27.2831 38.139C27.3652 38.0295 27.4336 37.7696 27.4746 37.3934C27.5499 36.7093 27.5977 36.5247 27.844 36.039C28.0834 35.5602 28.5075 35.1087 29 34.7872C29.5062 34.4589 29.9234 34.3221 30.628 34.2537C31.2094 34.1921 31.4146 34.0964 31.6677 33.7612C31.9892 33.3234 31.7976 32.5573 31.3051 32.3179C31.0247 32.1743 30.3133 32.1606 29.7319 32.2906Z" fill="black" stroke="black" stroke-width="0.2"/>
</svg>
