<svg width="72" height="72" viewBox="0 0 72 72" fill="none" xmlns="http://www.w3.org/2000/svg">
<rect width="72" height="72" rx="36" fill="#FECA57"/>
<path d="M22.9852 21.819C21.7547 22.1911 20.8336 23.0098 20.4609 24.0891C20.2078 24.7961 20.2852 25.7823 20.6367 26.5266C20.6789 26.6258 20.6297 26.6382 20.1305 26.6382C19.6453 26.6382 19.5117 26.663 19.1391 26.8305C18.6539 27.0414 18.4078 27.2709 18.1687 27.7237C18.007 28.0214 18 28.0896 18 29.5658V31.0915L18.232 31.4823C18.4922 31.9289 18.8719 32.2204 19.4062 32.3878L19.7578 32.4995V38.981V45.4625L19.4062 45.5741C18.8719 45.7416 18.4922 46.0331 18.232 46.4797L18 46.8704V48.4024V49.9406L18.218 50.3189C18.457 50.7469 18.7172 50.964 19.2305 51.1749L19.582 51.3237H36.007H52.432L52.8609 51.1315C53.3461 50.9206 53.5922 50.6911 53.8312 50.2383C53.993 49.9406 54 49.8724 54 48.3962V46.8704L53.768 46.4797C53.5078 46.0331 53.1281 45.7416 52.5937 45.5741L52.2422 45.4625V38.981V32.4995L52.5937 32.3878C53.1281 32.2204 53.5078 31.9289 53.768 31.4823L54 31.0915V29.5596V28.0214L53.782 27.643C53.557 27.2399 53.318 27.029 52.8469 26.8057L52.5586 26.6692L38.1797 26.6382L23.8008 26.6072L23.4492 26.4398C22.8094 26.142 22.5 25.7017 22.5 25.0876C22.5 24.4674 22.8234 24.0208 23.4844 23.7169C23.7867 23.5805 23.8781 23.5743 25.5586 23.5556C27.5062 23.5308 27.6539 23.506 27.9141 23.1339C28.1039 22.8672 28.1039 22.3338 27.9211 22.0857C27.6187 21.6825 27.5906 21.6763 25.418 21.6763C23.5687 21.6825 23.4211 21.6887 22.9852 21.819ZM51.8906 29.5534V30.6078H36H20.1094V29.5534V28.4989H36H51.8906V29.5534ZM50.1328 38.981V45.4935H36H21.8672V38.981V32.4685H36H50.1328V38.981ZM51.8906 48.4086V49.463H36H20.1094V48.4086V47.3542H36H51.8906V48.4086Z" fill="black"/>
<path d="M32.1328 34.6763C29.8266 35.0423 27.7172 36.2828 26.3672 38.0566C25.9734 38.5838 25.9453 38.6397 25.9453 38.9808C25.9453 39.3219 25.9734 39.3777 26.3672 39.9049C27.7453 41.7222 29.8547 42.9379 32.2453 43.2977C33.2789 43.4527 35.0227 43.3907 35.9648 43.1736C37.4484 42.8201 38.7422 42.1812 39.8602 41.2385L40.493 40.7113L41.2312 41.685C41.632 42.2184 42.0539 42.7084 42.1664 42.7705C42.3422 42.8759 42.518 42.8883 43.875 42.8883C45.5414 42.8883 45.6258 42.8697 45.9211 42.4789C46.0477 42.3053 46.0547 42.1254 46.0547 38.9808C46.0547 35.8362 46.0477 35.6563 45.9211 35.4826C45.6258 35.0919 45.5414 35.0733 43.875 35.0733C42.518 35.0733 42.3422 35.0857 42.1664 35.1911C42.0539 35.2532 41.632 35.7431 41.2312 36.2828L40.493 37.2565L39.8812 36.7355C38.5945 35.6439 37.0266 34.9306 35.3391 34.6701C34.5727 34.5523 32.8781 34.5585 32.1328 34.6763ZM34.8609 36.5681C35.7539 36.6797 36.6539 37.0022 37.5117 37.5108C37.9547 37.7775 38.8406 38.5218 39.0516 38.8071C39.1711 38.9746 39.1711 38.987 39.0586 39.1421C38.8406 39.4398 37.9406 40.1965 37.4836 40.4694C35.2195 41.8091 32.2734 41.8091 30.0164 40.4632C29.5453 40.1903 28.6594 39.446 28.4484 39.1483C28.3219 38.987 28.3219 38.9746 28.4484 38.8071C28.6594 38.5156 29.5453 37.7713 30.0164 37.4984C30.9375 36.9464 32.0625 36.5929 33.1383 36.506C33.7711 36.4626 34.0875 36.4688 34.8609 36.5681ZM43.9453 38.9808V41.0276H43.65H43.3477L42.5812 40.0042L41.8148 38.9808L42.5812 37.9574L43.3477 36.934H43.65H43.9453V38.9808Z" fill="black"/>
<path d="M31.4719 38.1684C31.1484 38.3606 31.0078 38.5963 31.0078 38.9809C31.0078 39.3654 31.1484 39.6011 31.4719 39.7934C31.7391 39.9485 32.3508 39.9547 32.6391 39.7996C33.3 39.4585 33.3 38.5033 32.6391 38.156C32.3508 38.0071 31.7391 38.0133 31.4719 38.1684Z" fill="black"/>
</svg>
