<svg width="72" height="72" viewBox="0 0 72 72" fill="none" xmlns="http://www.w3.org/2000/svg">
<rect width="72" height="72" rx="36" fill="#FECA57"/>
<path d="M29.4752 20.035C25.2984 20.5765 21.8048 23.4383 20.4899 27.396C20.0773 28.6336 20.0064 29.1492 20 30.8187C20 32.4816 20.0709 32.9651 20.4899 34.2606C21.6179 37.7026 24.5893 40.4678 28.1216 41.3445C28.9724 41.5572 29.4945 41.6345 30.4936 41.6861L31.3251 41.7312L31.2928 41.931C31.2413 42.2791 31.3702 43.7487 31.512 44.3997C31.7247 45.373 31.9825 46.1143 32.4402 47.0295C33.9291 50.0139 36.617 52.083 39.9494 52.8113C40.5488 52.9402 40.8067 52.9531 42.1409 52.9531C43.8039 52.9531 44.3453 52.8822 45.5894 52.4697C46.4015 52.2054 47.7293 51.5286 48.4577 51.013C49.2441 50.4522 50.4301 49.2662 50.9908 48.4798C51.8159 47.3196 52.4669 45.8178 52.7892 44.3352C52.9181 43.7616 52.931 43.4909 52.931 42.1631C52.931 40.8288 52.9181 40.571 52.7892 39.9715C52.2993 37.7284 51.2358 35.8205 49.6179 34.28C47.6649 32.4172 45.1768 31.3859 42.5083 31.3214L41.6897 31.3021V30.8831C41.6768 29.1621 41.303 27.5894 40.5231 26.0166C39.9687 24.8886 39.4015 24.0894 38.5313 23.2127C36.8103 21.4724 34.6897 20.396 32.3113 20.0544C31.8858 19.9964 29.8941 19.977 29.4752 20.035ZM29.8103 39.6235C29.7588 39.675 28.6114 39.4172 28.0442 39.2303C24.9052 38.1796 22.6234 35.5304 22.0626 32.2754C21.9337 31.5212 21.9402 30.1096 22.0691 29.3297C22.5396 26.5967 24.3444 24.1667 26.8389 22.9162C27.593 22.536 28.5405 22.2201 29.2818 22.0976L29.7974 22.0139L29.8168 30.8058C29.8232 35.6465 29.8232 39.6106 29.8103 39.6235ZM32.6078 22.1492C36.0691 22.8776 38.8021 25.6492 39.4917 29.1363C39.6464 29.8969 39.7173 30.8315 39.6593 31.257L39.6207 31.5664L39.1243 31.7146C37.2615 32.256 35.6437 33.2358 34.3094 34.6345C33.9549 35.0019 33.4973 35.5433 33.291 35.8334C32.872 36.4135 32.2855 37.5028 32.0083 38.199L31.8343 38.6502L31.8278 30.3481V22.0525H31.9825C32.0728 22.0525 32.3499 22.0976 32.6078 22.1492ZM43.675 33.4356C44.861 33.6354 46.3113 34.2349 47.1943 34.8859L47.6391 35.2146L41.4319 41.4218C38.0157 44.838 35.1925 47.6225 35.1667 47.6032C35.0571 47.5323 34.477 46.617 34.2192 46.1014C33.8647 45.4052 33.5359 44.419 33.4006 43.6456C33.2652 42.8656 33.2652 41.4282 33.4006 40.6612C34.0258 37.1741 36.6363 34.3767 40.0332 33.5581C41.245 33.268 42.4439 33.2229 43.675 33.4356ZM49.5148 37.2579C50.1658 38.2376 50.6814 39.5397 50.8684 40.6741C50.9973 41.454 51.0037 42.8721 50.8748 43.6198C50.314 46.8748 48.0065 49.5498 44.8868 50.5747C43.1271 51.1483 41.1289 51.1483 39.3886 50.5747C38.4604 50.2653 37.3067 49.6594 36.7717 49.2017C36.6621 49.1051 37.0553 48.699 42.8628 42.8914C47.6713 38.0829 49.0829 36.7036 49.1474 36.7616C49.1925 36.8002 49.3601 37.0194 49.5148 37.2579Z" fill="black"/>
</svg>
