<svg width="72" height="72" viewBox="0 0 72 72" fill="none" xmlns="http://www.w3.org/2000/svg">
<rect width="72" height="72" rx="36" fill="#FECA57"/>
<path d="M25.4201 20.0609C25.0137 20.1171 24.7324 20.2859 24.5886 20.561C24.4574 20.8235 24.3761 21.6175 24.3761 22.7178C24.3761 26.5937 25.6076 29.5007 27.902 31.0261C29.5023 32.0888 31.5341 32.6265 34.0472 32.6452L35.0662 32.6515V36.3774V40.1033L34.6224 40.1471C32.9532 40.3034 30.9277 41.1098 29.4461 42.2101L28.996 42.5414L28.1708 42.5789C26.4954 42.6477 25.07 43.1103 23.6884 44.0293C23.0758 44.4356 21.8505 45.6547 21.4566 46.2486C20.5314 47.6364 20 49.2868 20 50.7809C20 51.4686 20.0688 51.6562 20.4126 51.8812C20.5876 51.9937 21.0128 52 36.004 52C50.9952 52 51.4203 51.9937 51.5953 51.8812C51.9329 51.6562 52.0079 51.4686 52.0079 50.8122C52.0079 49.2868 51.4828 47.6427 50.5513 46.2486C50.1387 45.6297 48.9196 44.4231 48.2882 44.0043C46.9254 43.1103 45.4875 42.6477 43.8371 42.5789L43.0119 42.5414L42.5618 42.2101C41.0802 41.1036 39.061 40.3034 37.3855 40.1471L36.9417 40.1033V36.3774V32.6515L37.9607 32.6452C42.1492 32.614 45.0437 31.1386 46.4753 28.3004C47.0442 27.1814 47.4255 25.756 47.5756 24.2119C47.6631 23.3429 47.6131 21.1549 47.5005 20.7735C47.4193 20.486 47.0942 20.1546 46.8379 20.0921C46.494 20.0046 43.7871 19.9733 43.1182 20.0483C41.2052 20.2672 39.6048 20.8173 38.3358 21.6925C37.5481 22.2364 36.5353 23.3992 36.154 24.1931C36.0915 24.3244 36.0227 24.4307 36.004 24.4307C35.9852 24.4307 35.9164 24.3244 35.8539 24.1931C35.4726 23.3992 34.4598 22.2364 33.6721 21.6925C32.4531 20.8485 30.9652 20.3234 29.171 20.0859C28.3708 19.9858 26.064 19.9671 25.4201 20.0609ZM28.971 22.0301C31.9717 22.4427 33.7409 23.7368 34.5661 26.1186C34.9287 27.1751 35.0162 27.7565 35.0475 29.2569L35.0787 30.676L34.9037 30.7197C34.6599 30.7823 33.0907 30.701 32.3468 30.5885C30.5088 30.3071 29.2273 29.7382 28.252 28.7505C26.9955 27.4814 26.4141 25.7623 26.3328 23.1054L26.2953 21.9363L26.6954 21.9176C27.3581 21.8863 28.2458 21.9301 28.971 22.0301ZM45.375 21.9301H45.7126L45.6751 23.0991C45.6126 25.1309 45.2812 26.4999 44.5436 27.7753C44.2372 28.3066 43.3058 29.2506 42.8056 29.5444C41.9617 30.0446 40.8677 30.4072 39.6611 30.5885C38.9297 30.701 37.348 30.7823 37.1105 30.7197L36.9417 30.6822V29.5007C36.9417 27.0563 37.5356 25.1996 38.7234 23.9368C39.5611 23.0428 40.9614 22.3802 42.6493 22.0801C43.2307 21.9801 44.6811 21.8675 44.9124 21.9051C44.9812 21.9176 45.1875 21.9301 45.375 21.9301ZM37.7544 42.1538C39.2235 42.4726 40.6739 43.1603 41.7241 44.0418C42.3055 44.5232 42.2868 44.5169 43.4746 44.5294C44.406 44.5419 44.6123 44.5607 45.1562 44.7044C46.6753 45.1108 48.0819 46.1048 48.9509 47.3801C49.4385 48.1053 50.0074 49.5119 50.0074 50.012C50.0074 50.1183 49.4823 50.1245 36.004 50.1245C22.5256 50.1245 22.0005 50.1183 22.0005 50.012C22.0005 49.5119 22.5694 48.1053 23.057 47.3801C23.926 46.1048 25.3326 45.1108 26.8517 44.7044C27.3956 44.5607 27.6019 44.5419 28.5334 44.5294C29.7212 44.5169 29.7024 44.5232 30.2838 44.0418C31.5278 43.004 33.172 42.2976 34.9725 42.035C35.3913 41.9725 37.298 42.0538 37.7544 42.1538Z" fill="black"/>
</svg>
