<svg width="72" height="72" viewBox="0 0 72 72" fill="none" xmlns="http://www.w3.org/2000/svg">
<rect width="72" height="72" rx="36" fill="#FECA57"/>
<path d="M34.1462 20.0173C33.2111 20.1011 32.0179 20.2688 31.3407 20.4042C25.5813 21.5716 20.9828 25.0801 19.5381 29.4206C19.0802 30.7944 19.0415 31.1104 19.0093 33.7031C18.977 36.1926 19.0222 37.0633 19.2543 38.1984C19.867 41.1781 21.7954 44.2932 24.3688 46.4602C25.7554 47.634 27.1485 48.4467 29.5026 49.4721C32.2823 50.6846 33.024 51.1103 34.3075 52.2648C35.4039 53.2451 35.5974 53.2451 36.6938 52.2648C37.9772 51.1103 38.7189 50.6846 41.4987 49.4721C43.8527 48.4467 45.2458 47.634 46.6325 46.4602C49.2058 44.2932 51.1342 41.1781 51.7469 38.1984C51.9727 37.0762 52.0243 36.199 51.9985 33.7418C51.9727 31.6651 51.9533 31.3555 51.8243 30.7299C50.7021 25.2542 45.2136 21.0492 38.0159 20.1398C37.2484 20.0366 34.7589 19.9657 34.1462 20.0173ZM37.0808 21.9779C40.4345 22.2681 43.4271 23.3387 45.8392 25.1188C46.5099 25.6154 48.0385 27.0924 48.1997 27.4019C48.2835 27.5696 48.2706 27.589 48.0127 27.8211C46.5744 29.1368 44.2268 30.2655 41.6083 30.9105C39.4348 31.4458 37.9901 31.6135 35.5006 31.6135C33.0111 31.6135 31.5664 31.4458 29.393 30.9105C26.7745 30.2655 24.4268 29.1368 22.9886 27.8211C22.7306 27.589 22.7177 27.5696 22.8016 27.4019C22.9628 27.0924 24.4913 25.6154 25.175 25.1124C28.3481 22.7712 32.7531 21.6103 37.0808 21.9779ZM22.1631 29.6593C23.1498 30.4719 24.8525 31.42 26.3875 32.0004C30.6958 33.6257 36.094 34.0127 40.9505 33.0388C44.1817 32.3874 46.9807 31.1813 48.8962 29.6141L49.3284 29.2594L49.5089 29.7173C49.7476 30.3171 49.9282 31.0394 50.012 31.7166C50.0958 32.4325 50.0958 35.9927 50.0056 36.7989C49.7153 39.4625 48.3416 42.1132 46.1294 44.2674C45.3297 45.0478 44.8847 45.4089 44.0785 45.9571C43.1562 46.5763 42.4725 46.9246 40.4023 47.8404C39.4284 48.2725 38.3836 48.7562 38.0804 48.9175C37.4742 49.2464 36.4487 49.9365 35.8747 50.4009L35.5006 50.6975L35.133 50.4009C34.5526 49.9365 33.5271 49.2464 32.9208 48.9175C32.6177 48.7562 31.5729 48.2725 30.599 47.8404C29.6251 47.4083 28.5481 46.9117 28.2127 46.7311C24.7429 44.8994 21.9954 41.4876 21.1956 38.0049C20.9828 37.0762 20.9248 36.2958 20.9248 34.2191C20.9248 31.6844 20.9957 31.0717 21.4536 29.8334C21.5762 29.4916 21.6858 29.2916 21.7245 29.3174C21.7632 29.3368 21.9631 29.4916 22.1631 29.6593Z" fill="black" stroke="black" stroke-width="0.5"/>
</svg>
