<svg width="72" height="72" viewBox="0 0 72 72" fill="none" xmlns="http://www.w3.org/2000/svg">
<rect width="72" height="72" rx="36" fill="#FECA57"/>
<path d="M28.7509 18.1212C28.3806 18.2992 28.2026 18.6125 28.2026 19.0683C28.2026 19.8302 28.6156 20.1363 29.6552 20.1363H30.3032V25.9183V31.7003L26.4438 39.241C24.3147 43.3924 22.4847 47.0168 22.3708 47.2945C21.5305 49.3737 22.15 51.7876 23.9088 53.2545C24.393 53.6603 25.4113 54.173 26.0308 54.3225C26.3512 54.408 28.1598 54.4222 35.9997 54.4222C46.8302 54.4222 45.9614 54.465 47.1862 53.8383C49.5502 52.635 50.6255 49.7511 49.6286 47.2945C49.5146 47.0168 47.6846 43.3924 45.5627 39.2481L41.6962 31.7003V25.9183V20.1363H42.3442C43.0847 20.1363 43.3909 20.0295 43.6401 19.6806C43.8609 19.3744 43.8609 18.7621 43.6401 18.4559C43.2983 17.9717 43.7327 18.0002 35.9854 18.0002C29.6837 18.0002 28.9645 18.0144 28.7509 18.1212ZM39.5671 26.0963C39.5671 30.4542 39.5956 32.1346 39.6526 32.3198C39.7024 32.4551 40.386 33.8436 41.1835 35.3888C41.9739 36.9411 42.6219 38.2299 42.6219 38.2513C42.6219 38.2726 39.6454 38.294 35.9997 38.294C32.361 38.294 29.3775 38.2726 29.3775 38.2513C29.3775 38.2228 30.0254 36.9411 30.823 35.3888C31.6134 33.8365 32.2969 32.4551 32.3468 32.3198C32.4037 32.1346 32.4322 30.4542 32.4322 26.0963L32.4393 20.1363H35.9997H39.56L39.5671 26.0963ZM44.5302 41.9398C46.9299 46.5753 47.763 48.2985 47.8342 48.7542C48.0905 50.3065 46.9726 51.9158 45.4132 52.2433C44.8791 52.3573 27.1202 52.3573 26.5862 52.2433C25.0339 51.9158 23.9231 50.3207 24.1652 48.7684C24.2364 48.2985 24.9912 46.7391 27.5047 41.8685L28.2453 40.4302H35.9997H43.754L44.5302 41.9398Z" fill="black"/>
</svg>
