<svg width="72" height="72" viewBox="0 0 72 72" fill="none" xmlns="http://www.w3.org/2000/svg">
<rect width="72" height="72" rx="36" fill="#FECA57"/>
<path d="M35.4639 18.1478C35.0328 18.3705 34.1348 19.3189 33.7324 19.9799C33.5312 20.3032 33.2726 20.8421 33.1576 21.1797C33.0427 21.5174 32.9205 21.7976 32.8846 21.7976C32.8487 21.7976 32.6547 21.7042 32.4535 21.5893C31.1531 20.8492 28.8971 20.217 27.5535 20.217C26.792 20.217 26.3034 20.6768 26.3034 21.3953C26.3034 22.2575 26.6411 23.3064 27.2159 24.2333C27.6182 24.8871 28.7893 26.0869 29.5078 26.5827C29.7808 26.7766 30.0179 26.9634 30.0251 26.9994C30.0395 27.0353 29.6946 27.1431 29.2707 27.2293C26.9788 27.7107 25.3981 28.4651 24.1624 29.6577C22.4524 31.303 21.7627 33.6452 22.0716 36.785C22.5386 41.6059 25.2544 46.9801 29.2276 50.9389C31.0884 52.7925 32.8271 53.978 34.494 54.5312C35.0328 54.7037 35.2125 54.7324 36.0028 54.7324C36.7931 54.7324 36.9727 54.7037 37.5116 54.5312C41.3123 53.2739 45.9177 48.3021 48.2815 42.8848C49.8334 39.3356 50.3866 35.5276 49.7256 32.9268C49.2155 30.9438 47.9294 29.3488 46.0614 28.3788C44.955 27.8041 44.1287 27.5239 42.699 27.2221C42.2966 27.1359 41.9661 27.0353 41.9805 26.9994C41.9877 26.9634 42.2248 26.7766 42.4978 26.5827C43.6473 25.7852 44.8616 24.3482 45.2998 23.2633C45.5082 22.7532 45.7022 21.8551 45.7022 21.4025C45.7022 20.6768 45.2208 20.217 44.452 20.217C43.13 20.217 40.8381 20.8564 39.5449 21.5893C39.3365 21.7042 39.1425 21.7976 39.1138 21.7976C39.0778 21.7976 38.9629 21.5174 38.8479 21.1797C38.5677 20.3607 38.0361 19.5129 37.3751 18.8447C36.5416 18.0041 36.0674 17.8317 35.4639 18.1478ZM36.2686 20.8492C36.9799 21.8982 37.2314 23.1771 36.9727 24.4201C36.8578 24.9661 36.477 25.7995 36.1824 26.1444L36.0028 26.3599L35.8232 26.1444C35.5286 25.7995 35.1478 24.9661 35.0328 24.4201C34.7742 23.1771 35.0257 21.8982 35.737 20.8492C35.8663 20.6553 35.9812 20.5044 36.0028 20.5044C36.0243 20.5044 36.1393 20.6553 36.2686 20.8492ZM29.8598 22.825C30.6358 23.0765 31.7854 23.6369 32.3673 24.0464L32.7912 24.3482L32.9493 24.9948C33.0427 25.3469 33.1648 25.7636 33.2223 25.9073L33.3373 26.1731L32.9852 26.0366C31.2178 25.3397 29.5796 24.0608 28.933 22.8753L28.739 22.5161L28.9761 22.5664C29.1054 22.588 29.5078 22.7029 29.8598 22.825ZM43.0726 22.8682C42.6774 23.5938 41.8655 24.4129 40.8884 25.0667C40.3927 25.3972 39.3724 25.9217 38.9413 26.0725L38.6827 26.1659L38.8479 25.7205C38.9342 25.4762 39.0491 25.0739 39.0994 24.8224C39.1784 24.4057 39.2144 24.3482 39.5161 24.1255C39.94 23.8165 41.262 23.1268 41.8009 22.94C42.2104 22.7891 43.0941 22.5305 43.2091 22.5233C43.245 22.5161 43.1803 22.6742 43.0726 22.8682ZM40.134 29.0111C42.3182 29.2554 43.5827 29.5643 44.8041 30.1678C46.8158 31.145 47.7211 32.5675 47.836 34.9098C47.9941 38.2794 46.5212 42.5543 43.9132 46.2616C42.8714 47.7561 41.2405 49.5594 40.0262 50.5725C38.5462 51.8082 36.9512 52.6201 36.0028 52.6201C34.8029 52.6201 32.8487 51.4562 30.9591 49.6169C27.2087 45.9671 24.6725 41.0527 24.2126 36.5622C23.954 33.9686 24.5216 32.1149 25.937 30.951C27.3452 29.787 29.6227 29.1404 33.1002 28.9105C34.5155 28.8171 38.9485 28.8818 40.134 29.0111Z" fill="black" stroke="black" stroke-width="0.5"/>
<path d="M26.8638 33.3007C26.3753 33.5522 26.3034 33.8109 26.3034 35.3053C26.3034 36.462 26.3178 36.6344 26.4471 36.8859C26.6123 37.2092 27.0219 37.4607 27.3811 37.4607C27.7404 37.4607 28.1499 37.2092 28.3151 36.8859C28.4445 36.6344 28.4588 36.462 28.4588 35.3053C28.4588 34.1485 28.4445 33.9761 28.3151 33.7246C28.0493 33.2002 27.4027 33.0133 26.8638 33.3007Z" fill="black" stroke="black" stroke-width="0.5"/>
<path d="M35.4855 33.3007C34.9969 33.5522 34.925 33.8109 34.925 35.3053C34.925 36.462 34.9394 36.6344 35.0687 36.8859C35.234 37.2092 35.6435 37.4607 36.0028 37.4607C36.362 37.4607 36.7715 37.2092 36.9368 36.8859C37.0661 36.6344 37.0805 36.462 37.0805 35.3053C37.0805 34.1485 37.0661 33.9761 36.9368 33.7246C36.6709 33.2002 36.0243 33.0133 35.4855 33.3007Z" fill="black" stroke="black" stroke-width="0.5"/>
<path d="M44.1072 33.3007C43.6186 33.5522 43.5468 33.8109 43.5468 35.3053C43.5468 36.462 43.5611 36.6344 43.6904 36.8859C43.8557 37.2092 44.2652 37.4607 44.6245 37.4607C44.9837 37.4607 45.3932 37.2092 45.5585 36.8859C45.6878 36.6344 45.7022 36.462 45.7022 35.3053C45.7022 34.1485 45.6878 33.9761 45.5585 33.7246C45.2926 33.2002 44.646 33.0133 44.1072 33.3007Z" fill="black" stroke="black" stroke-width="0.5"/>
<path d="M31.1747 39.767C30.6861 40.0185 30.6143 40.2772 30.6143 41.7716C30.6143 42.9283 30.6286 43.1008 30.758 43.3522C30.9232 43.6755 31.3327 43.927 31.692 43.927C32.0512 43.927 32.4607 43.6755 32.626 43.3522C32.7553 43.1008 32.7697 42.9283 32.7697 41.7716C32.7697 40.6148 32.7553 40.4424 32.626 40.1909C32.3601 39.6665 31.7135 39.4797 31.1747 39.767Z" fill="black" stroke="black" stroke-width="0.5"/>
<path d="M39.7963 39.767C39.3077 40.0185 39.2359 40.2772 39.2359 41.7716C39.2359 42.9283 39.2503 43.1008 39.3796 43.3522C39.5448 43.6755 39.9544 43.927 40.3136 43.927C40.6728 43.927 41.0824 43.6755 41.2476 43.3522C41.3769 43.1008 41.3913 42.9283 41.3913 41.7716C41.3913 40.6148 41.3769 40.4424 41.2476 40.1909C40.9818 39.6665 40.3352 39.4797 39.7963 39.767Z" fill="black" stroke="black" stroke-width="0.5"/>
<path d="M35.4855 46.2333C34.9897 46.4919 34.925 46.7362 34.925 48.2737C34.925 49.4664 34.9394 49.6388 35.0687 49.8903C35.234 50.2136 35.6435 50.4651 36.0028 50.4651C36.362 50.4651 36.7715 50.2136 36.9368 49.8903C37.0661 49.6388 37.0805 49.4664 37.0805 48.2737C37.0805 47.0811 37.0661 46.9086 36.9368 46.6572C36.6709 46.1327 36.0243 45.9459 35.4855 46.2333Z" fill="black" stroke="black" stroke-width="0.5"/>
</svg>
