<svg width="72" height="72" viewBox="0 0 72 72" fill="none" xmlns="http://www.w3.org/2000/svg">
<rect width="72" height="72" rx="36" fill="#FECA57"/>
<path d="M34.0952 17.0921C30.4297 17.6198 27.2847 19.1742 24.7399 21.7263C22.1299 24.3291 20.5177 27.662 20.0694 31.3708C19.961 32.2963 19.9827 34.4073 20.1128 35.434C20.7924 40.7406 24.1904 45.4689 29.0705 47.9053C30.7623 48.7512 32.3817 49.2428 34.4277 49.532C34.7965 49.5826 37.5799 49.626 42.2648 49.6549C49.3644 49.6983 49.5379 49.6983 49.7693 49.8429C50.1019 50.0381 50.2898 50.3707 50.2898 50.7466C50.2898 51.1226 50.1019 51.4551 49.7693 51.6503C49.5379 51.7877 49.3644 51.7949 45.9158 51.8311C42.6697 51.86 42.2865 51.8817 42.1274 51.9901C41.8238 52.207 41.6864 52.489 41.6864 52.9155C41.6864 53.3638 41.831 53.6385 42.1636 53.8626C42.3588 53.9928 42.5685 54 46.14 54C49.6825 54 49.9284 53.9928 50.3115 53.8626C51.6852 53.3855 52.5311 52.1998 52.5311 50.7466C52.5311 49.2934 51.6852 48.1077 50.3115 47.6306C49.9356 47.5004 49.6898 47.4932 47.0871 47.4932H44.2675L44.8892 47.1028C45.7279 46.575 46.4436 46.0328 47.2027 45.3315C50.138 42.6493 51.931 39.2151 52.4299 35.34C52.5961 34.0242 52.5455 31.6239 52.3214 30.4165C51.8587 27.8572 50.8682 25.5653 49.35 23.5265C46.8485 20.1647 43.2697 17.9596 39.0837 17.186C38.0137 16.9908 35.1652 16.933 34.0952 17.0921ZM37.9776 19.2971C40.2549 19.6008 42.3226 20.3961 44.2024 21.6685C44.4048 21.8059 44.5711 21.936 44.5566 21.9505C44.5422 21.9577 44.3036 21.9215 44.0289 21.8637C42.5034 21.5456 40.1031 21.4805 38.5776 21.7119C36.228 22.0661 33.9723 22.8903 32.1576 24.0688C31.7889 24.3074 31.4635 24.5026 31.4419 24.5026C31.3623 24.5026 31.4852 22.4204 31.6009 21.7697C31.731 21.0467 31.9985 19.9334 32.0636 19.8611C32.1359 19.7815 33.5023 19.449 34.2398 19.3405C35.064 19.2176 37.1895 19.1959 37.9776 19.2971ZM29.3525 21.5745C29.2006 22.4349 29.1428 24.7628 29.2512 25.7461C29.6633 29.5417 31.2539 32.8746 33.9506 35.5641C36.387 38.0078 39.25 39.4899 42.7347 40.1261C43.4794 40.2634 43.8626 40.2851 45.4459 40.2851C46.7979 40.2851 47.4558 40.2562 47.904 40.1767C48.2438 40.1116 48.5258 40.0682 48.533 40.0755C48.5402 40.0827 48.4679 40.2201 48.374 40.3791C48.2221 40.6322 48.0703 40.7406 47.2389 41.1527C45.1061 42.2227 43.3059 42.642 40.8622 42.6565C37.0883 42.6637 33.6108 41.2322 30.9502 38.5645C28.2824 35.9039 26.851 32.4264 26.8582 28.6525C26.8726 26.2088 27.292 24.4086 28.362 22.2758C28.7741 21.4444 28.8825 21.2926 29.1356 21.1407C29.2946 21.0467 29.432 20.9744 29.4392 20.9817C29.4464 20.9889 29.4031 21.2564 29.3525 21.5745ZM42.178 23.8519C43.971 24.0471 45.5471 24.5098 47.1666 25.3123C48.0703 25.7605 48.2221 25.8618 48.374 26.122C48.4679 26.2811 48.5402 26.4185 48.533 26.4257C48.5258 26.4329 48.2438 26.3895 47.904 26.3245C46.9786 26.1582 43.9927 26.1654 42.9878 26.3317C39.5103 26.9245 36.6328 28.3488 34.1169 30.7491L33.459 31.3781L32.9456 30.3514C32.4974 29.4622 31.9624 28.0307 31.825 27.3511C31.7817 27.1487 31.8106 27.1053 32.1937 26.8016C35.0206 24.5893 38.7439 23.4904 42.178 23.8519ZM24.8411 25.7099C23.4819 32.7373 27.1185 40.0176 33.5891 43.2349C34.6808 43.7771 35.1869 43.9795 36.2063 44.276C38.9102 45.064 41.6575 45.158 44.4193 44.5579L44.6145 44.5146L44.4337 44.6664C43.7758 45.2231 42.113 46.1196 40.9779 46.5244C39.3946 47.1028 37.9776 47.3486 36.2352 47.3486C32.6058 47.3486 29.2223 45.9533 26.5039 43.3289C24.4868 41.3768 23.0698 38.803 22.4842 36.0413C22.2528 34.9496 22.1661 32.7445 22.3107 31.6094C22.542 29.7731 23.1927 27.756 24.0241 26.3462C24.3567 25.7822 24.9278 24.9291 24.9568 24.958C24.9712 24.9725 24.9206 25.3123 24.8411 25.7099ZM47.7522 28.5874C48.1281 28.6597 48.7138 28.7826 49.0536 28.8693L49.6753 29.0284L49.8271 29.5706C49.9139 29.8743 50.0079 30.2502 50.0296 30.4093C50.0802 30.6696 50.0657 30.7057 49.9139 30.7491C49.8199 30.7708 49.5018 30.7925 49.2054 30.7925C48.4752 30.7925 46.928 31.031 45.9303 31.2913C43.2481 31.9926 40.7899 33.3735 38.7295 35.3328L38.0426 35.9834L37.6305 35.7087C36.9148 35.2171 36.1123 34.5519 35.4905 33.9157C35.1652 33.5831 34.8904 33.2795 34.8904 33.2434C34.8904 33.1132 36.293 31.7902 36.9799 31.2696C38.9825 29.7658 41.3828 28.8043 43.9493 28.4789C44.7229 28.3849 46.9569 28.45 47.7522 28.5874ZM50.2682 33.988C50.232 35.0219 50.044 36.2365 49.7982 37.039L49.6681 37.4728L49.0536 37.6318C46.4291 38.3042 43.7324 38.2247 41.1442 37.3932C40.7104 37.2559 40.32 37.1185 40.2911 37.104C40.1176 37.0028 41.6864 35.7232 42.8432 35.0219C44.8169 33.8217 47.1304 33.1277 49.5307 33.012C49.7693 32.9975 50.044 32.9831 50.138 32.9758L50.3115 32.9614L50.2682 33.988Z" fill="black"/>
</svg>
