<svg width="72" height="72" viewBox="0 0 72 72" fill="none" xmlns="http://www.w3.org/2000/svg">
<rect width="72" height="72" rx="36" fill="#FECA57"/>
<path d="M20.3932 18.081C19.4711 18.3117 18.6898 18.9535 18.2675 19.8405C18 20.3886 18 20.3958 18 21.29C18 22.177 18.007 22.213 18.2393 22.7034C18.718 23.7057 19.6541 24.398 20.724 24.5422C21.0056 24.5783 21.7587 24.6143 22.3992 24.6143H23.5677L23.6451 25.1696C24.1871 28.8906 27.0026 32.2149 30.5643 33.3399C31.9087 33.7654 32.1761 33.7942 36.1601 33.8447C40.0596 33.8952 40.0244 33.8952 40.7776 34.2774C41.8967 34.8615 42.6569 35.7556 43.0652 36.9816C43.3397 37.8036 43.3397 38.8276 43.0652 39.6497C42.5795 41.0992 41.6504 42.0582 40.2074 42.5847C39.9118 42.7 39.5246 42.7433 38.5533 42.7938C37.8565 42.8226 37.223 42.8731 37.1385 42.8947C37.0188 42.9308 36.9696 42.8875 36.864 42.6424C36.3783 41.5318 35.1676 40.4501 33.9077 39.9958L33.3446 39.7939L30.3883 39.7723C27.5165 39.7579 27.425 39.7579 27.1997 39.9021C26.7774 40.1689 26.6929 40.4862 26.6929 41.8852C26.6929 42.5558 26.7281 43.3202 26.7703 43.5726C26.9393 44.6471 27.3898 45.5701 28.1429 46.385L28.5934 46.8753L28.1499 47.3441C27.0237 48.5483 26.6648 49.7021 26.707 52.0169C26.7281 53.4231 26.7492 53.4952 27.2138 53.8486C27.4038 53.9928 27.4883 54 30.2686 54C33.4642 54 33.5557 53.9928 34.5412 53.4808C35.5618 52.9616 36.2798 52.2477 36.7795 51.267L36.9625 50.9136L39.0953 50.928C40.7424 50.9424 41.411 50.9136 42.0305 50.8271C44.5433 50.4593 46.8872 49.4209 48.8651 47.7839C49.4916 47.2647 50.6741 46.0316 51.1246 45.4187C52.6239 43.4139 53.56 41.128 53.8908 38.6834C54.0316 37.6522 54.0387 35.6475 53.8979 34.6379C53.1095 28.9266 48.9285 24.1672 43.4945 22.7827C42.0305 22.4077 42.6921 22.4293 31.4089 22.3861C21.0478 22.3428 20.8789 22.3428 20.6536 22.1986C19.9497 21.7659 19.9849 20.7131 20.7099 20.3453C20.9422 20.2227 21.4209 20.2155 27.6713 20.2155H34.3793L34.6538 20.0569C35.0128 19.8477 35.2451 19.3862 35.1887 18.9752C35.1465 18.6507 34.9917 18.3911 34.689 18.1675C34.4989 18.0161 34.4426 18.0161 27.622 18.0017C22.3781 17.9944 20.6607 18.0089 20.3932 18.081ZM39.0108 28.1118V31.6092H36.2305C33.232 31.6092 32.4295 31.5515 31.4863 31.2775C30.7684 31.0684 29.7548 30.5852 29.1495 30.1598C28.5652 29.7559 27.6854 28.8906 27.2631 28.2993C26.8618 27.7512 26.4114 26.9147 26.2072 26.345C26.0524 25.9196 25.7779 24.8739 25.7779 24.7081C25.7779 24.6288 26.9111 24.6143 32.3943 24.6143H39.0108V28.1118ZM42.8822 24.9461C45.6484 25.6455 48.119 27.3979 49.7802 29.8569C49.9773 30.1381 50.1321 30.3977 50.1321 30.4338C50.1321 30.4626 48.654 31.1765 46.845 32.013L43.5508 33.5274L43.1989 33.2245C42.7273 32.8207 42.0727 32.3952 41.587 32.1789L41.1928 32.0058V28.3209V24.636L41.6715 24.7009C41.9319 24.7369 42.4739 24.8451 42.8822 24.9461ZM51.3921 33.3543C51.751 34.71 51.8425 35.4888 51.8074 37.0104C51.7792 38.1353 51.744 38.4887 51.5821 39.2098C51.2583 40.6521 50.6811 42.0871 50.0125 43.1111L49.7661 43.4933L49.02 43.1543C46.6338 42.0582 44.8882 41.2506 44.8601 41.229C44.846 41.2145 44.9023 41.0415 44.9868 40.8468C45.5921 39.3973 45.5921 37.2339 44.9868 35.7845C44.9023 35.5898 44.846 35.4167 44.8601 35.4023C44.9234 35.3374 51.019 32.5539 51.0894 32.5467C51.1387 32.5467 51.2724 32.9144 51.3921 33.3543ZM33.1897 42.1304C33.9429 42.3972 34.5904 42.9885 34.9072 43.7024C35.0761 44.0846 35.0761 44.0918 34.9494 44.2793C34.5975 44.7913 34.4286 45.087 34.3159 45.4042L34.1963 45.7504L32.6407 45.7287L31.0922 45.7071L30.6135 45.4764C29.4873 44.9283 28.8749 43.861 28.8749 42.4549V41.9933H30.8317C32.5914 41.9933 32.8378 42.0078 33.1897 42.1304ZM47.5137 44.9283C47.9079 45.1086 48.2246 45.2961 48.2105 45.3393C48.1683 45.4691 47.2603 46.2335 46.6127 46.6806C45.1275 47.7118 43.4101 48.3608 41.4603 48.6493L41.1928 48.6926V46.6518V44.6182L41.58 44.4524C42.0234 44.2649 42.854 43.724 43.2622 43.349L43.5438 43.0967L45.1627 43.8466C46.0567 44.2577 47.1125 44.748 47.5137 44.9283ZM39.0108 46.9114V48.7935L38.314 48.7502C37.4764 48.6998 37.0892 48.5411 36.7021 48.0796C36.3924 47.7263 36.2657 47.3585 36.2657 46.8321C36.2657 46.3633 36.4135 46.0028 36.7443 45.6494C37.2018 45.1591 37.5327 45.0437 38.4336 45.0293L39.0108 45.022V46.9114ZM34.2244 48.0724C34.2244 48.231 34.689 49.1613 34.8861 49.4065L35.0832 49.6372L34.9635 49.9401C34.689 50.654 34.0414 51.2958 33.2883 51.6059C32.9504 51.7501 32.7674 51.7645 30.9021 51.7862L28.8749 51.8078V51.2814C28.8749 50.654 29.0157 50.0338 29.2762 49.5507C29.6492 48.8512 30.5009 48.2094 31.2822 48.058C31.4511 48.0219 32.1761 47.9931 32.9082 47.9859C33.9358 47.9786 34.2244 48.0003 34.2244 48.0724Z" fill="black"/>
<path d="M30.4728 26.0855C30.1138 26.2225 30.0012 26.3306 29.8463 26.6912C29.5225 27.4339 30.0223 28.22 30.8106 28.22C31.2259 28.22 31.5568 28.0397 31.7679 27.7008C31.9861 27.3402 31.9298 26.7128 31.6483 26.41C31.5356 26.2874 31.3949 26.1648 31.3385 26.1287C31.1203 26.0133 30.7332 25.9917 30.4728 26.0855Z" fill="black"/>
</svg>
