<svg width="217" height="292" viewBox="0 0 217 292" fill="none" xmlns="http://www.w3.org/2000/svg">
<path d="M39.5718 0.0154477L36.5562 231.822L213.968 234.127L216.983 2.32062L39.5718 0.0154477Z" fill="#DDB785"/>
<path opacity="0.09" d="M199.228 34.267L143.271 45.0177C134.206 46.7594 124.904 46.639 115.887 44.6606L60.2321 32.4611C49.1862 30.4466 41.1781 20.3339 41.3308 8.59196L41.4232 1.51709L216.859 2.29962L217 11.2726C216.843 23.0226 210.322 32.5374 199.228 34.267Z" fill="#272525"/>
<path d="M197.251 32.7499L141.294 43.5006C132.229 45.2423 122.927 45.1219 113.91 43.1435L58.2551 30.944C47.2092 28.9295 39.201 18.8168 39.3537 7.07487L39.4461 0L216.859 2.29943L216.767 9.37431C216.61 21.1203 208.345 31.0203 197.251 32.7499Z" fill="#BC9162"/>
<path d="M128.179 85.6687C120.448 85.5684 114.24 79.2038 114.34 71.4828L114.778 37.9264C114.879 30.2054 121.251 24.0054 128.982 24.1057C136.713 24.206 142.921 30.5706 142.821 38.2916L142.383 71.848C142.282 79.569 135.909 85.769 128.179 85.6687ZM128.962 25.3176C121.902 25.2253 116.08 30.8876 115.988 37.9424L115.55 71.4989C115.457 78.5497 121.127 84.3645 128.191 84.4568C135.251 84.5491 141.073 78.8868 141.165 71.832L141.603 38.2755C141.696 31.2207 136.026 25.4099 128.962 25.3176Z" fill="#FECA57"/>
<path d="M140.862 39.3849C144.162 32.7593 141.461 24.7136 134.828 21.4142C128.196 18.1149 120.144 20.8113 116.844 27.4369C113.544 34.0625 116.246 42.1082 122.878 45.4076C129.51 48.7069 137.562 46.0105 140.862 39.3849Z" fill="#4C4B44"/>
<path d="M133.717 38.2521C136.402 35.5707 136.402 31.2233 133.717 28.5419C131.032 25.8605 126.679 25.8605 123.994 28.5419C121.309 31.2233 121.309 35.5707 123.994 38.2521C126.679 40.9335 131.032 40.9335 133.717 38.2521Z" fill="#BDB39B"/>
<path d="M132.056 33.4358C132.032 35.2015 130.582 36.6101 128.818 36.59C127.05 36.566 125.639 35.1173 125.659 33.3556C125.684 31.5899 127.134 30.1813 128.898 30.2014C130.666 30.2255 132.08 31.6741 132.056 33.4358Z" fill="#434244"/>
<path d="M129.282 89.0375C136.672 88.4947 142.223 82.0718 141.68 74.6915C141.137 67.3112 134.707 61.7683 127.317 62.3111C119.927 62.8539 114.377 69.2769 114.919 76.6571C115.462 84.0374 121.893 89.5803 129.282 89.0375Z" fill="#4C4B44"/>
<path d="M133.653 79.9921C136.047 77.0479 135.597 72.7236 132.649 70.3334C129.701 67.9433 125.371 68.3924 122.978 71.3366C120.585 74.2808 121.034 78.6051 123.982 80.9952C126.93 83.3854 131.26 82.9363 133.653 79.9921Z" fill="#BDB39B"/>
<path d="M129.078 78.7692C130.794 78.3507 131.845 76.6221 131.426 74.9082C131.007 73.1943 129.277 72.1442 127.56 72.5626C125.844 72.9811 124.793 74.7097 125.212 76.4236C125.631 78.1375 127.362 79.1877 129.078 78.7692Z" fill="#434244"/>
<path d="M163.137 67.2734H0V292H163.137V67.2734Z" fill="#F9F9F9"/>
<g clip-path="url(#clip0_998_44105)">
<path d="M-1.20791 123.014C53.6299 123.014 108.473 123.014 163.311 123.014C166.71 123.014 166.71 119.162 163.311 119.162C108.473 119.162 53.6299 119.162 -1.20791 119.162C-4.60713 119.162 -4.60713 123.014 -1.20791 123.014Z" fill="#9E9E9D"/>
<path d="M-1.20791 134.381C53.6299 134.381 108.473 134.381 163.311 134.381C166.71 134.381 166.71 130.529 163.311 130.529C108.473 130.529 53.6299 130.529 -1.20791 130.529C-4.60713 130.529 -4.60713 134.381 -1.20791 134.381Z" fill="#9E9E9D"/>
<path d="M-1.20791 145.748C53.6299 145.748 108.473 145.748 163.311 145.748C166.71 145.748 166.71 141.896 163.311 141.896C108.473 141.896 53.6299 141.896 -1.20791 141.896C-4.60713 141.896 -4.60713 145.748 -1.20791 145.748Z" fill="#9E9E9D"/>
<path d="M-1.20791 157.116C53.6299 157.116 108.473 157.116 163.311 157.116C166.71 157.116 166.71 153.263 163.311 153.263C108.473 153.263 53.6299 153.263 -1.20791 153.263C-4.60713 153.263 -4.60713 157.116 -1.20791 157.116Z" fill="#9E9E9D"/>
<path d="M-1.20791 168.483C53.6299 168.483 108.473 168.483 163.311 168.483C166.71 168.483 166.71 164.63 163.311 164.63C108.473 164.63 53.6299 164.63 -1.20791 164.63C-4.60713 164.63 -4.60713 168.483 -1.20791 168.483Z" fill="#9E9E9D"/>
<path d="M-1.20791 179.85C53.6299 179.85 108.473 179.85 163.311 179.85C166.71 179.85 166.71 175.998 163.311 175.998C108.473 175.998 53.6299 175.998 -1.20791 175.998C-4.60713 175.998 -4.60713 179.85 -1.20791 179.85Z" fill="#9E9E9D"/>
<path d="M-1.20791 191.217C53.6299 191.217 108.473 191.217 163.311 191.217C166.71 191.217 166.71 187.365 163.311 187.365C108.473 187.365 53.6299 187.365 -1.20791 187.365C-4.60713 187.365 -4.60713 191.217 -1.20791 191.217Z" fill="#9E9E9D"/>
</g>
<path d="M115.815 244.354L107.345 271.999L113.838 266.14L116.739 274.495L123.952 241.424L118.101 236.336L115.815 244.354Z" fill="#F86866"/>
<path d="M123.955 246.95L132.474 274.58L134.559 266.088L141.651 271.381L129.046 239.964L121.348 239.029L123.955 246.95Z" fill="#F86866"/>
<path d="M125.294 217.527L126.138 220.645C126.564 222.214 128.496 222.78 129.702 221.693L132.101 219.526C133.752 218.037 136.312 219.682 135.641 221.797L134.664 224.875C134.174 226.424 135.492 227.945 137.099 227.68L140.29 227.154C142.483 226.793 143.749 229.558 142.037 230.979L139.55 233.041C138.297 234.081 138.586 236.071 140.081 236.713L143.05 237.993C145.091 238.872 144.657 241.882 142.451 242.151L139.241 242.544C137.626 242.741 136.79 244.571 137.698 245.919L139.502 248.6C140.744 250.442 138.751 252.741 136.746 251.774L133.832 250.369C132.366 249.663 130.67 250.751 130.706 252.376L130.775 255.602C130.823 257.821 127.902 258.68 126.736 256.786L125.045 254.033C124.193 252.649 122.18 252.649 121.328 254.033L119.636 256.786C118.475 258.68 115.554 257.821 115.598 255.602L115.666 252.376C115.703 250.751 114.007 249.663 112.54 250.369L109.627 251.774C107.626 252.741 105.629 250.442 106.871 248.6L108.675 245.919C109.583 244.571 108.747 242.741 107.132 242.544L103.921 242.151C101.715 241.882 101.281 238.872 103.323 237.993L106.292 236.713C107.787 236.071 108.072 234.077 106.822 233.041L104.335 230.979C102.623 229.562 103.889 226.793 106.083 227.154L109.273 227.68C110.877 227.945 112.199 226.424 111.708 224.875L110.732 221.797C110.061 219.678 112.621 218.037 114.272 219.526L116.671 221.693C117.876 222.784 119.813 222.214 120.235 220.645L121.079 217.527C121.665 215.38 124.711 215.38 125.294 217.527Z" fill="#FECA57"/>
<path d="M123.188 247.641C117.241 247.641 112.407 242.809 112.407 236.874C112.407 230.935 117.245 226.107 123.188 226.107C129.135 226.107 133.969 230.939 133.969 236.874C133.973 242.809 129.135 247.641 123.188 247.641ZM123.188 226.488C117.454 226.488 112.793 231.147 112.793 236.87C112.793 242.596 117.458 247.251 123.188 247.251C128.922 247.251 133.583 242.592 133.583 236.87C133.587 231.147 128.922 226.488 123.188 226.488Z" fill="white"/>
<g clip-path="url(#clip1_998_44105)">
<path d="M35.8287 99.3964C90.6665 99.3964 145.51 99.3964 200.348 99.3964C203.747 99.3964 203.747 95.5439 200.348 95.5439C145.51 95.5439 90.6665 95.5439 35.8287 95.5439C32.4295 95.5439 32.4295 99.3964 35.8287 99.3964Z" fill="#9E9E9D"/>
<path d="M35.8287 110.764C90.6665 110.764 145.51 110.764 200.348 110.764C203.747 110.764 203.747 106.911 200.348 106.911C145.51 106.911 90.6665 106.911 35.8287 106.911C32.4295 106.911 32.4295 110.764 35.8287 110.764Z" fill="#9E9E9D"/>
</g>
<defs>
<clipPath id="clip0_998_44105">
<rect width="127.75" height="72.0555" fill="white" transform="translate(17.1763 119.162)"/>
</clipPath>
<clipPath id="clip1_998_44105">
<rect width="53.6765" height="72.0555" fill="white" transform="translate(91.25 95.5439)"/>
</clipPath>
</defs>
</svg>
