<svg width="1615" height="60" viewBox="0 0 1615 60" fill="none" xmlns="http://www.w3.org/2000/svg">
<path d="M156.922 3.17649C156.39 3.43699 154.99 4.7829 154.491 5.51013C153.221 7.39874 152.613 9.75408 152.819 12.0117L152.895 12.8149H157.66H162.425L162.501 12.0117C162.772 9.04857 161.709 6.13967 159.592 4.1208C158.474 3.04625 157.725 2.77489 156.922 3.17649Z" fill="#FFCB58"/>
<path d="M143.853 6.46537C143.343 6.73672 143.007 7.36626 143.007 8.03921C143.007 9.71075 143.984 12.0118 145.362 13.5965L145.666 13.9438L146.86 13.6833C147.522 13.5422 148.423 13.3686 148.879 13.2926L149.693 13.1732L149.595 12.5111C149.454 11.5342 149.584 9.38512 149.845 8.32142C149.964 7.81128 150.029 7.36626 149.986 7.3337C149.834 7.19259 148.532 6.80185 147.479 6.57391C146.936 6.45451 145.981 6.32427 145.362 6.30256C144.385 6.24829 144.212 6.27 143.853 6.46537Z" fill="#FFCB58"/>
<path d="M169.274 6.32438C168.178 6.44377 165.573 7.10587 165.334 7.32295C165.29 7.36637 165.356 7.81139 165.475 8.32153C165.735 9.38523 165.866 11.5343 165.725 12.5112L165.627 13.1733L166.441 13.2927C166.897 13.3687 167.809 13.5315 168.46 13.6726L169.654 13.9331L169.958 13.5858C171.727 11.5886 172.769 8.43007 172.096 7.11673C171.705 6.35694 170.956 6.13986 169.274 6.32438Z" fill="#FFCB58"/>
<path d="M152.776 16.1364C143.788 16.6791 138.416 19.8485 136.939 25.4818C135.713 30.1708 137.102 37.15 140.5 43.3911C142.453 46.9621 144.657 49.9253 147.501 52.7582C150.333 55.5802 152.786 57.2518 155.413 58.1527C156.303 58.4674 156.542 58.5 157.66 58.5C158.778 58.5 159.017 58.4674 159.907 58.1527C162.555 57.2409 165.008 55.5694 167.874 52.7148C173.909 46.6799 178.011 38.6044 178.706 31.3864C179.162 26.6866 178.218 23.3653 175.689 20.7603C173.42 18.4158 169.893 16.9722 164.932 16.3535C162.403 16.0387 156.282 15.9302 152.776 16.1364ZM145.395 26.1113C146.155 26.5021 146.263 26.8711 146.263 29.1505C146.263 31.4299 146.155 31.7989 145.395 32.1896C144.841 32.4719 144.385 32.461 143.854 32.1679C143.094 31.7338 143.007 31.419 143.007 29.1288C143.018 26.8603 143.094 26.5998 143.832 26.1548C144.353 25.84 144.83 25.8291 145.395 26.1113ZM158.42 26.1113C159.18 26.5021 159.288 26.8711 159.288 29.1505C159.288 31.4299 159.18 31.7989 158.42 32.1896C157.866 32.4719 157.41 32.461 156.878 32.1679C156.119 31.7338 156.032 31.419 156.032 29.1288C156.043 26.8603 156.119 26.5998 156.857 26.1548C157.378 25.84 157.855 25.8291 158.42 26.1113ZM171.445 26.1113C172.204 26.5021 172.313 26.8711 172.313 29.1505C172.313 31.4299 172.204 31.7989 171.445 32.1896C170.891 32.4719 170.435 32.461 169.903 32.1679C169.144 31.7338 169.057 31.419 169.057 29.1288C169.068 26.8603 169.144 26.5998 169.882 26.1548C170.403 25.84 170.88 25.8291 171.445 26.1113ZM151.907 35.88C152.667 36.2708 152.776 36.6398 152.776 38.9192C152.776 41.1986 152.667 41.5676 151.907 41.9583C151.354 42.2405 150.898 42.2297 150.366 41.9366C149.606 41.5025 149.519 41.1877 149.519 38.8975C149.53 36.629 149.606 36.3685 150.344 35.9235C150.865 35.6087 151.343 35.5978 151.907 35.88ZM164.932 35.88C165.692 36.2708 165.801 36.6398 165.801 38.9192C165.801 41.1986 165.692 41.5676 164.932 41.9583C164.379 42.2405 163.923 42.2297 163.391 41.9366C162.631 41.5025 162.544 41.1877 162.544 38.8975C162.555 36.629 162.631 36.3685 163.369 35.9235C163.89 35.6087 164.368 35.5978 164.932 35.88ZM158.42 45.6487C159.18 46.0395 159.288 46.4085 159.288 48.6879C159.288 50.9673 159.18 51.3363 158.42 51.727C157.866 52.0092 157.41 51.9984 156.878 51.7053C156.119 51.2712 156.032 50.9564 156.032 48.6662C156.043 46.3977 156.119 46.1372 156.857 45.6922C157.378 45.3774 157.855 45.3665 158.42 45.6487Z" fill="#FFCB58"/>
<path d="M236.738 13.7654C237.995 8.18166 240.917 4.18361 244.496 3.1756C245.447 2.90377 247.271 3.00571 248.256 3.39079C252.402 4.97643 255.686 11.0924 255.686 17.2198C255.686 21.8408 252.408 25.3631 249.157 27.1866L248.467 27.5717L249.157 41.4573C250 54.75 250 57 250 57C250 57.75 248.834 58.2197 248.234 58.3896C247.69 58.5368 244.783 58.5368 244.239 58.3896C243.639 58.2197 242.5 57.75 242.5 57C242.5 57 242.5 56.25 242.972 41.4573L243.652 27.5717L242.972 27.1866C240.684 25.8954 237.576 23.6982 236.806 20.8441C236.523 19.7794 236.5 19.5529 236.5 17.2764C236.5 15.2038 236.534 14.6828 236.738 13.7654Z" fill="#FFCB58"/>
<path d="M260.001 4.18361C260.126 3.7872 260.59 3.30019 261.009 3.13029C261.428 2.97173 262.221 2.98306 262.572 3.16427C262.912 3.34549 263.297 3.73057 263.478 4.093C263.546 4.22891 264.781 15.712 264.781 15.712C264.804 15.7234 265.064 10.8999 265.359 8.6347C265.97 4.0477 266.061 3.71925 266.854 3.25488C267.431 2.9151 268.383 2.94908 268.904 3.32284C269.549 3.77588 269.662 4.22891 270.251 8.6347C270.546 10.8999 270.806 15.7234 270.829 15.712L272.154 4.03637C272.63 3.13029 273.683 2.75654 274.646 3.16427C275.031 3.32284 275.541 3.90046 275.654 4.3082C275.699 4.43278 276.107 7.35487 276.583 10.8093C277.341 16.393 277.432 17.2764 277.432 18.862C277.432 20.946 277.239 21.9087 276.537 23.3358C275.71 25.0007 272.987 26.2012 271.232 27.0847L270.224 27.5943L270.246 28.4098C270.258 28.8628 271 42 271 42L271.75 57.0531C271.32 57.6194 270.58 58.2197 269.979 58.3896C269.436 58.5368 266.174 58.5368 265.63 58.3896C265.03 58.2197 263.5 57.9266 263.5 57C263.5 57 264.25 55.5 265 42L265.397 27.5943L264.378 27.0847C262.577 26.1786 259.877 24.9894 259.027 23.2225C258.348 21.8068 258.178 20.946 258.178 18.8281C258.178 17.2877 258.28 16.3477 259.027 10.8093C259.503 7.35487 259.933 4.37615 260.001 4.18361Z" fill="#FFCB58"/>
<g clip-path="url(#clip0_1297_13700)">
<path d="M343.203 0.165274C335.797 1.33754 329.824 6.77686 328.005 13.998C327.817 14.7131 327.629 15.6744 327.594 16.1433L327.5 16.9873H346.137H364.761L364.679 16.3074C364.339 13.4588 363.33 10.7743 361.616 8.16013C360.666 6.71825 358.365 4.36199 356.887 3.33039C354.704 1.80645 351.922 0.669348 349.282 0.223886C347.709 -0.0457344 344.728 -0.0809021 343.203 0.165274Z" fill="#FFCB58"/>
<path d="M327.594 21.1723C327.711 22.2508 328.24 24.3492 328.697 25.4863C330.939 31.1014 335.774 35.3451 341.489 36.7401C343.25 37.1621 344.236 37.2793 346.137 37.2793C348.554 37.2793 350.233 36.998 352.498 36.2008C358.976 33.9149 363.788 27.9246 364.679 20.9965L364.762 20.3869H346.137H327.512L327.594 21.1723Z" fill="#FFCB58"/>
<path d="M368.095 21.2315C368.071 21.3839 367.93 22.1107 367.789 22.8493C367.355 25.229 366.358 27.8314 365.079 29.9766C363.306 32.9308 360.631 35.6153 357.603 37.4909C355.15 39.0031 351.758 40.2105 349.165 40.5036L348.425 40.5857V41.289C348.425 42.9771 349.024 45.814 349.787 47.7482C350.244 48.897 351.218 50.7375 351.653 51.2885L351.923 51.6284L352.204 51.3822C352.345 51.2533 358.976 45.7671 366.909 39.2024C374.854 32.6377 381.474 27.1515 381.626 26.9991L381.919 26.7295L381.626 26.413C380.453 25.1352 377.659 23.3064 375.594 22.439C373.54 21.5715 370.853 20.9854 368.998 20.9736C368.212 20.9736 368.142 20.9971 368.095 21.2315Z" fill="#FFCB58"/>
<path d="M369.127 41.7343C360.936 48.51 354.187 54.1017 354.129 54.1604C354 54.2776 355.056 55.274 356.265 56.1884C358.811 58.1109 362.144 59.4473 365.524 59.9045C367.026 60.1037 370.43 59.9748 371.897 59.67C374.127 59.2128 376.603 58.2281 378.457 57.0559C383.304 54.008 386.649 48.8265 387.388 43.1645C387.611 41.5468 387.482 37.7369 387.165 36.3888C386.754 34.5952 386.039 32.6258 385.428 31.5356C384.666 30.1875 384.184 29.4138 384.102 29.4138C384.055 29.4138 377.319 34.9586 369.127 41.7343Z" fill="#FFCB58"/>
</g>
<path d="M441.504 6.09022C440.904 6.1733 440.488 6.42255 440.276 6.82874C440.082 7.21647 439.962 8.38888 439.962 10.0136C439.962 15.7372 441.781 20.0299 445.169 22.2824C447.532 23.8518 450.523 24.6365 454.243 24.6734L455.748 24.6826V30.1847V35.6867L455.093 35.7513C452.628 35.9821 449.637 37.173 447.449 38.7977L446.784 39.287L445.566 39.3424C443.092 39.4439 440.987 40.1271 438.947 41.4841C438.042 42.0842 436.233 43.8843 435.651 44.7613C434.285 46.8107 433.5 49.2479 433.5 51.4542C433.5 52.4697 433.602 52.7467 434.109 53.079C434.368 53.2452 434.996 53.2544 457.133 53.2544C479.27 53.2544 479.898 53.2452 480.156 53.079C480.655 52.7467 480.766 52.4697 480.766 51.5004C480.766 49.2479 479.99 46.82 478.615 44.7613C478.005 43.8474 476.205 42.0657 475.273 41.4472C473.26 40.1271 471.137 39.4439 468.7 39.3424L467.481 39.287L466.817 38.7977C464.629 37.1637 461.647 35.9821 459.173 35.7513L458.518 35.6867V30.1847V24.6826L460.022 24.6734C466.217 24.618 470.482 22.4486 472.596 18.2575C473.436 16.605 473.999 14.5002 474.221 12.22C474.35 10.9368 474.276 7.70575 474.11 7.14262C473.99 6.71796 473.51 6.22869 473.131 6.13638C472.623 6.00713 468.626 5.96098 467.638 6.07175C465.497 6.32101 463.66 6.82874 462.109 7.61343C460.89 8.22271 460.253 8.66583 459.33 9.57976L458.518 10.3644V17.4543V24.5442H457.133H455.748V17.4543V10.3644L454.945 9.57976C454.013 8.67506 453.366 8.21348 452.194 7.63189C450.652 6.85644 449.074 6.39486 447.043 6.12714C445.861 5.97944 442.455 5.95174 441.504 6.09022Z" fill="#D4D4D4"/>
<g clip-path="url(#clip1_1297_13700)">
<path d="M579.031 3.51013C579.559 3.96761 579.746 4.43681 579.664 5.11716C579.582 5.86789 578.949 6.48959 578.128 6.6069C577.635 6.68901 577.576 6.72419 577.623 6.94707C577.658 7.08783 578.116 11.0644 578.655 15.7916L579.629 24.3781L580.697 24.7417C583.019 25.5394 586.562 27.5922 587.242 28.5423C587.43 28.8004 587.5 29.0819 587.5 29.5159C587.5 30.9587 585.963 31.7564 584.779 30.9235C582.01 28.9646 580.133 28.0731 577.553 27.4983C576.216 27.1933 572.849 27.1347 571.348 27.3693C565.201 28.3898 560.04 32.73 558.01 38.5951C557.224 40.859 556.896 43.8033 557.166 46.0085C557.342 47.3575 557.248 47.7798 556.65 48.3076C556.11 48.7768 555.559 48.8707 554.89 48.6126C554.175 48.3428 553.893 47.9088 553.729 46.8179L553.588 45.9147L551.594 45.8795L549.6 45.856L549.213 44.9176C548.474 43.0877 546.878 41.0819 545.26 39.9206C544.274 39.2168 542.89 38.5481 541.635 38.161C540.638 37.8561 540.45 37.8326 538.409 37.8326C536.368 37.8326 536.169 37.8561 535.195 38.161C533.142 38.7827 531.418 39.8385 529.952 41.3634C529.178 42.161 528.145 43.6156 527.864 44.3076C527.782 44.5188 527.664 44.6478 527.606 44.6126C527.547 44.5774 527.5 40.859 527.5 36.0848C527.5 26.642 527.465 27.0995 528.31 26.5364C528.697 26.2784 528.779 26.2667 531.735 26.2667H534.773V22.8884C534.773 20.3664 534.738 19.4632 534.62 19.3224C534.515 19.1699 534.198 19.123 533.283 19.0878C532.31 19.0526 532.028 19.0057 531.758 18.8063C530.667 17.9852 530.644 16.5775 531.711 15.862C532.075 15.6157 532.251 15.5922 533.553 15.5922C534.714 15.5922 535.125 15.6391 535.641 15.8268C536.356 16.0966 537.236 16.8239 537.647 17.469C538.233 18.3957 538.292 18.8884 538.292 22.7124V26.2667H542.914H547.535L547.77 25.3517C548.18 23.815 552.485 6.8063 552.485 6.73592C552.485 6.70073 552.239 6.67728 551.922 6.67728C551.019 6.66555 550.491 6.48959 550.034 6.04385C549.635 5.64502 549.612 5.57464 549.612 4.84737C549.612 4.09664 549.623 4.07318 550.104 3.6157L550.597 3.15823H564.614H578.632L579.031 3.51013ZM562.456 16.472V26.2667H563.219C563.899 26.2667 564.11 26.208 565.072 25.7271C567.711 24.3898 570.831 23.686 574.022 23.686H575.946V23.4045C575.946 23.123 574.257 8.19047 574.116 7.16994L574.046 6.67728H568.251H562.456V16.472ZM556.122 6.72419C556.122 6.74765 555.007 11.1347 553.658 16.472C552.298 21.8092 551.195 26.1963 551.195 26.2197C551.195 26.2432 552.931 26.2667 555.066 26.2667H558.937V16.472V6.67728H557.529C556.755 6.67728 556.122 6.70073 556.122 6.72419Z" fill="#FFCB58"/>
<path d="M576.872 30.9702C582.151 32.108 586.268 36.3191 587.336 41.6916C587.547 42.7238 587.547 45.6681 587.347 46.6182C586.761 49.3631 585.482 51.7678 583.606 53.6329C580.908 56.2956 577.811 57.5859 574.069 57.5859C570.315 57.5859 567.23 56.3073 564.544 53.6446C561.142 50.2663 559.817 45.3631 561.048 40.671C562.245 36.0845 566.01 32.3309 570.632 31.111C572.251 30.6887 575.242 30.6183 576.872 30.9702ZM572.368 37.9496C569.67 38.6417 567.617 41.3397 567.617 44.1549C567.617 47.0757 569.834 49.8323 572.65 50.4423C573.576 50.6417 575.383 50.5244 576.239 50.2194C579.089 49.1754 580.861 46.2429 580.427 43.2399C580.133 41.2106 578.784 39.3221 576.966 38.4306C576.509 38.196 575.911 37.9614 575.652 37.891C574.89 37.715 573.13 37.7385 572.368 37.9496Z" fill="#FFCB58"/>
<path d="M575.242 41.468C575.77 41.7026 576.368 42.2774 576.685 42.8639C577.037 43.5208 577.037 44.7876 576.685 45.4562C576.392 46.0075 575.723 46.641 575.172 46.8638C574.655 47.0867 573.459 47.075 572.919 46.8404C571.934 46.4298 571.136 45.2334 571.136 44.1542C571.136 43.075 571.934 41.8785 572.919 41.468C573.471 41.2334 574.702 41.2334 575.242 41.468Z" fill="#FFCB58"/>
<path d="M540.345 41.4452C543.266 42.2663 545.307 44.1901 546.233 46.9701C546.503 47.7913 546.55 48.0962 546.55 49.4335C546.55 50.7707 546.503 51.0757 546.233 51.8968C545.788 53.234 545.166 54.2311 544.134 55.2634C543.418 55.9789 543.008 56.2722 542.14 56.6944C541.541 56.9877 540.732 57.3161 540.345 57.41C539.442 57.6446 537.377 57.6446 536.486 57.41C533.635 56.671 531.512 54.6769 530.585 51.8968C530.316 51.0757 530.269 50.7707 530.269 49.4335C530.269 48.0962 530.316 47.7913 530.585 46.9701C531.406 44.4951 533.248 42.5831 535.653 41.7033C536.486 41.3983 536.767 41.3631 538.175 41.3279C539.289 41.2927 539.934 41.3279 540.345 41.4452ZM537.459 48.0024C537.002 48.3074 536.65 48.9291 536.65 49.4335C536.65 49.9379 537.002 50.5596 537.459 50.8646C538.292 51.4276 539.512 51.0992 539.958 50.1959C540.544 49.0464 539.711 47.7326 538.409 47.7326C538.034 47.7326 537.729 47.8147 537.459 48.0024Z" fill="#FFCB58"/>
</g>
<path d="M634.182 3.15647C632.495 3.63677 631.081 5.04565 630.648 6.67866C630.511 7.18031 630.48 7.63926 630.511 8.42908C630.543 9.40036 630.585 9.56045 630.954 10.3076C631.767 11.9726 633.159 12.9546 635.047 13.1894L635.554 13.2534L635.543 11.5991V9.95537L635.1 9.82729C634.298 9.61382 633.76 8.92006 633.76 8.07687C633.76 7.46849 633.961 7.05223 634.467 6.66799L634.847 6.36914L646.008 6.31577C657.127 6.2624 657.169 6.2624 657.464 6.03826C657.623 5.92086 657.876 5.65403 658.002 5.45123C658.498 4.72545 658.129 3.49802 657.327 3.15647C656.831 2.94301 634.921 2.95368 634.182 3.15647Z" fill="#FFCB58"/>
<path d="M638.645 11.8337C638.719 14.4701 639.056 15.8576 640.143 18.1097C642.147 22.2936 646.082 25.3782 650.618 26.3281C651.947 26.6163 653.625 26.7017 657.95 26.7017H662.032V24.5883C662.032 23.425 662.001 19.6466 661.959 16.2098L661.895 9.94457H650.238H638.592L638.645 11.8337ZM650.26 15.484C651.198 16.1137 651.198 17.4372 650.26 18.067C649.616 18.4939 648.508 18.2057 648.16 17.5226C647.96 17.117 647.96 16.4233 648.16 16.0177C648.519 15.3239 649.606 15.0464 650.26 15.484Z" fill="#FFCB58"/>
<path d="M665.038 18.7182L665.112 27.5023L665.344 27.6838C665.46 27.7905 665.65 27.8972 665.745 27.9293C665.914 27.9933 681.442 20.9596 681.695 20.7141C681.822 20.5967 681.569 20.1377 680.683 18.8676C678.773 16.1246 676.231 13.8832 673.309 12.3462C670.724 11.0014 668.551 10.3396 665.576 9.9981L664.964 9.92339L665.038 18.7182Z" fill="#FFCB58"/>
<path d="M675.482 26.9687C671.368 28.8686 667.993 30.4696 667.993 30.5123C668.003 30.555 668.13 31.0032 668.288 31.4942C668.815 33.1165 668.763 34.7816 668.14 36.2972C668.014 36.596 667.929 36.8629 667.95 36.8842C668.024 36.9589 681.147 42.8293 681.179 42.7972C681.348 42.5411 682.044 41.2816 682.392 40.5879C683.363 38.624 684.038 36.3933 684.354 34.1092C684.618 32.1773 684.513 28.7298 684.133 26.9154C683.827 25.4424 683.247 23.5746 683.078 23.5426C683.025 23.5319 679.607 25.0689 675.482 26.9687Z" fill="#FFCB58"/>
<path d="M644.51 36.0831C643.518 36.4033 643.465 36.5741 643.465 39.157C643.465 40.6086 643.518 41.5052 643.623 42.0175C643.782 42.7646 644.33 44.0668 644.742 44.6431L644.953 44.9526H648.318H651.683L651.799 44.4937C652.379 42.1989 653.74 40.2564 655.671 39.0076C656.019 38.7728 656.462 38.5166 656.641 38.4419C656.82 38.3672 656.968 38.2711 656.968 38.2285C656.968 38.079 655.692 37.1611 655.038 36.8196C653.656 36.1151 653.223 36.0618 648.793 36.0298C646.588 36.0084 644.657 36.0298 644.51 36.0831Z" fill="#FFCB58"/>
<path d="M665.387 39.5833L664.986 39.8608V46.0727C664.986 49.4881 665.007 52.3059 665.039 52.3272C665.123 52.4126 666.642 52.2312 667.834 51.9857C670.883 51.3666 673.889 49.9577 676.453 47.9512C677.55 47.0973 679.153 45.5177 679.101 45.3576C679.069 45.2828 665.777 39.2311 665.777 39.3058C665.777 39.3058 665.598 39.4339 665.387 39.5833Z" fill="#FFCB58"/>
<path d="M658.931 40.8433C656.874 41.4197 655.228 43.1487 654.753 45.262C654.553 46.1159 654.669 47.7276 654.985 48.5921C655.344 49.5634 656.125 50.6307 656.884 51.2071C658.076 52.093 659.142 52.4238 660.851 52.4238H661.927V46.5535V40.6832L660.692 40.6939C660.007 40.6939 659.216 40.7686 658.931 40.8433Z" fill="#FFCB58"/>
<path d="M644.742 48.4323C644.362 48.9232 643.898 49.9906 643.666 50.8978C643.476 51.6663 643.455 52.0398 643.486 54.0144L643.518 56.2665L643.866 56.608L644.204 56.9602L648.371 56.9923C652.263 57.0136 652.601 57.0029 653.445 56.8001C654.489 56.5547 655.744 55.9249 656.472 55.2952L656.979 54.8576L656.103 54.356C655.017 53.7476 653.413 52.1786 652.822 51.1433C652.411 50.4175 651.989 49.3715 651.799 48.603L651.683 48.1548H648.318H644.953L644.742 48.4323Z" fill="#FFCB58"/>
<path d="M754.526 1.6599C753.897 1.74664 753.334 1.83338 753.258 1.8659C753.095 1.92012 752.488 3.1128 752.022 4.27295C751.024 6.75589 750.515 9.3581 750.515 11.9711C750.515 12.8385 750.536 12.9903 750.677 12.947C750.764 12.9036 751.284 12.5892 751.837 12.2422C754.852 10.3231 758.332 9.08703 761.953 8.63165C763.515 8.43648 766.572 8.45817 768.123 8.68586C769.576 8.89187 771.343 9.32557 772.796 9.83517C773.967 10.2363 776.537 11.4832 777.491 12.1013C777.859 12.3506 778.217 12.5458 778.282 12.5458C778.412 12.5458 777.697 11.4832 776.949 10.5725C774.975 8.17626 772.926 6.39808 770.356 4.8476C767.613 3.18869 764.382 2.07191 761.108 1.64905C759.514 1.44305 756.098 1.45389 754.526 1.6599Z" fill="#FFCB58"/>
<path d="M743.727 5.9425C741.797 7.29782 739.737 9.30368 738.263 11.2987C735.758 14.6707 734.186 18.5415 733.655 22.6617C733.448 24.3206 733.448 27.4432 733.655 29.1022C734.728 37.375 739.954 44.466 747.75 48.2284C749.626 49.1392 751.545 49.7463 754.255 50.2885C754.722 50.3861 758.126 50.4403 766.345 50.4836C777.534 50.5487 777.794 50.5487 778.141 50.7655C778.64 51.0583 778.922 51.557 778.922 52.1209C778.922 52.6847 778.64 53.1834 778.141 53.4762C777.794 53.6822 777.534 53.693 772.362 53.7472C767.494 53.7906 766.919 53.8231 766.681 53.9858C766.225 54.3111 766.019 54.7339 766.019 55.3736C766.019 56.0459 766.236 56.4579 766.735 56.794C767.028 56.9892 767.342 57 772.698 57C778.011 57 778.38 56.9892 778.955 56.794C781.015 56.0784 782.283 54.3002 782.283 52.1209C782.283 49.9415 781.015 48.1633 778.955 47.4477C778.391 47.2634 778.011 47.2417 774.271 47.2309C771.072 47.2309 770.237 47.1983 770.4 47.1008C772.514 45.7563 774.965 43.5769 776.71 41.4735C777.643 40.3567 778.434 39.2182 778.282 39.2182C778.217 39.2182 777.86 39.4134 777.491 39.6628C776.537 40.2808 773.967 41.5277 772.796 41.9289C771.408 42.4168 769.641 42.8505 768.188 43.0782C766.475 43.3492 763.07 43.3492 761.368 43.089C755.155 42.124 749.756 39.0448 745.896 34.2632C743.098 30.7936 741.385 26.8578 740.691 22.3039C740.464 20.7859 740.431 17.5115 740.637 16.0152C741.158 12.2095 742.394 8.82661 744.421 5.73649C744.649 5.37869 744.454 5.44374 743.727 5.9425Z" fill="#FFCB58"/>
<path d="M747.479 6.8205C742.123 14.4211 742.339 24.483 748.032 31.9643C748.379 32.4197 749.159 33.298 749.777 33.9268C754.917 39.1421 762.441 41.2889 769.663 39.5975C772.113 39.0228 774.347 38.047 776.569 36.5724C777.643 35.8568 777.99 35.5424 777.545 35.6833C777.437 35.7159 776.884 35.8351 776.32 35.9544C773.262 36.5833 769.565 36.5507 766.41 35.846C764.957 35.5315 762.723 34.7509 761.336 34.0895C754.776 30.9668 750.027 25.2094 748.184 18.1401C747.24 14.5187 747.121 10.5395 747.869 7.26505C748.01 6.62534 748.108 6.09405 748.086 6.06152C748.053 6.03984 747.782 6.37596 747.479 6.8205Z" fill="#FFCB58"/>
<path d="M762.788 11.6892C758.647 12.0904 754.657 13.7276 751.328 16.4165L751.035 16.6659L751.219 17.4466C751.534 18.7152 752.098 20.1898 752.868 21.7402C753.269 22.5317 753.627 23.204 753.692 23.2473C753.746 23.2799 754.255 22.8353 754.83 22.2607C758.592 18.5308 763.363 16.2105 768.73 15.5275C771.148 15.213 774.574 15.3973 777.025 15.9612C777.426 16.0587 777.773 16.113 777.795 16.0913C777.86 16.0262 776.266 14.9094 775.366 14.3998C771.647 12.253 767.093 11.2663 762.788 11.6892Z" fill="#FFCB58"/>
<path d="M769.381 18.5848C768.654 18.6607 766.605 19.0619 765.857 19.2788C763.493 19.9618 761.195 21.1111 759.091 22.6725C757.974 23.4965 755.719 25.6542 755.719 25.8927C755.719 26.0662 757.638 27.9853 758.484 28.6684C759.113 29.1672 760.295 29.9803 760.544 30.0671C760.663 30.1105 760.848 29.9803 761.119 29.6659C761.682 29.0154 763.678 27.3239 764.805 26.5541C767.841 24.4832 771.343 23.117 775.019 22.564C776.374 22.358 779.605 22.293 781.188 22.4448L782.088 22.5315L782.023 22.0111C781.904 21.1654 781.871 21.122 780.95 20.6558C779.009 19.6908 776.754 18.9969 774.488 18.6824C773.382 18.5198 770.465 18.4656 769.381 18.5848Z" fill="#FFCB58"/>
<path d="M776.374 25.5672C772.493 25.9792 768.795 27.4213 765.759 29.709C764.718 30.5006 763.558 31.5848 763.645 31.6824C763.808 31.845 765.846 32.4956 766.995 32.745C771.636 33.775 776.732 33.1895 780.765 31.1728L781.904 30.5981L782.034 29.7849C782.11 29.3404 782.207 28.2561 782.24 27.3887L782.316 25.8057L781.947 25.7298C780.473 25.4588 778.066 25.3937 776.374 25.5672Z" fill="#FFCB58"/>
<path fill-rule="evenodd" clip-rule="evenodd" d="M837.283 6.21764C836.772 6.53321 836.5 7.04464 836.5 7.68666C836.5 8.12193 836.685 8.69866 837.371 10.4071L838.241 12.5725V30.375V48.1775L837.371 50.3429C836.685 52.0513 836.5 52.6281 836.5 53.0633C836.5 53.7054 836.772 54.2168 837.283 54.5324C837.643 54.75 837.882 54.75 857.393 54.75C876.904 54.75 877.143 54.75 877.502 54.5324C878.025 54.2168 878.286 53.7162 878.286 53.0307C878.286 52.5628 878.122 52.0513 877.415 50.2994L876.545 48.1339V30.375V12.6161L877.415 10.4506C878.122 8.69866 878.286 8.18722 878.286 7.71931C878.286 7.03376 878.025 6.53321 877.502 6.21764C877.143 6 876.904 6 857.393 6C837.882 6 837.643 6 837.283 6.21764ZM845.205 14.7054C845.205 13.998 845.467 13.5084 845.989 13.1819C846.337 12.9643 846.566 12.9643 857.393 12.9643C868.22 12.9643 868.449 12.9643 868.797 13.1819C869.319 13.5084 869.58 13.998 869.58 14.7054C869.58 15.4127 869.319 15.9023 868.797 16.2288C868.449 16.4464 868.22 16.4464 857.393 16.4464C846.566 16.4464 846.337 16.4464 845.989 16.2288C845.467 15.9023 845.205 15.4127 845.205 14.7054ZM854.803 20.1137C854.117 20.451 853.791 21.2562 853.965 22.1703C854.02 22.4859 854.237 22.7906 854.847 23.4108L855.652 24.2378V25.7286C855.652 26.5447 855.63 27.2194 855.597 27.2194C855.489 27.2194 853.04 25.7721 852.953 25.6524C852.899 25.5872 852.746 25.1192 852.616 24.6078C852.344 23.5958 852.083 23.1605 851.647 22.932C850.831 22.5294 850.015 22.66 849.427 23.2802C848.949 23.7917 848.818 24.3358 849.003 25.0213C849.068 25.2825 849.101 25.5327 849.068 25.5763C849.047 25.6307 848.796 25.7286 848.524 25.8048C847.86 25.9898 847.316 26.5992 847.218 27.2629C847.153 27.6656 847.186 27.8614 847.393 28.2749C847.893 29.2869 848.59 29.4828 850.233 29.0584L851.103 28.8408L852.398 29.5807C853.105 29.9834 853.693 30.3425 853.693 30.3751C853.693 30.4077 853.105 30.7668 852.398 31.1695L851.103 31.9094L850.2 31.6809C848.633 31.2783 847.839 31.485 847.382 32.3991C847.121 32.9323 847.11 33.3785 847.338 33.9661C847.545 34.4666 847.937 34.7931 848.6 34.9889C849.003 35.0978 849.068 35.1631 849.036 35.3916C849.014 35.533 848.992 35.9357 848.981 36.273C848.96 36.9694 849.145 37.3176 849.787 37.7529C850.091 37.9705 850.265 38.0032 850.809 37.9705C851.865 37.9052 852.289 37.4482 852.659 35.9792C852.768 35.5548 852.899 35.1631 852.953 35.0978C853.04 34.9781 855.489 33.5308 855.597 33.5308C855.63 33.5308 855.652 34.2055 855.652 35.0325V36.5341L854.934 37.2306C854.139 38.0141 853.911 38.4167 853.911 39.0913C853.911 40.6801 855.75 41.4091 856.968 40.3101L857.404 39.9184L857.752 40.2448C858.252 40.7236 858.503 40.8215 859.156 40.8215C860.211 40.8215 860.875 40.1578 860.875 39.1022C860.875 38.3623 860.723 38.1011 859.852 37.2306L859.134 36.5341V35.0325C859.134 34.2055 859.156 33.5308 859.188 33.5308C859.297 33.5308 861.746 34.9781 861.833 35.0978C861.887 35.1631 862.018 35.5548 862.126 35.9792C862.496 37.4482 862.921 37.9052 863.976 37.9705C864.803 38.0249 865.271 37.742 865.652 36.9694C865.902 36.4797 865.913 36.3927 865.794 35.8377C865.728 35.5113 865.696 35.2066 865.717 35.1631C865.75 35.1195 865.978 35.0216 866.24 34.9563C866.893 34.7931 867.469 34.1619 867.567 33.4873C867.633 33.0846 867.6 32.8888 867.393 32.4753C866.893 31.4633 866.196 31.2674 864.553 31.6918L863.682 31.9094L862.388 31.1695C861.68 30.7668 861.093 30.4077 861.093 30.3751C861.093 30.3425 861.68 29.9834 862.398 29.5699L863.704 28.8299L864.553 29.0584C866.163 29.4937 866.882 29.2869 867.393 28.2749C867.6 27.8614 867.633 27.6656 867.567 27.2629C867.469 26.5992 866.925 25.9898 866.261 25.8048C865.989 25.7286 865.739 25.6307 865.717 25.5872C865.685 25.5327 865.717 25.2498 865.794 24.9451C866.153 23.3673 864.618 22.1921 863.138 22.932C862.703 23.1605 862.442 23.5958 862.17 24.6078C862.039 25.1192 861.887 25.5872 861.833 25.6524C861.746 25.7721 859.297 27.2194 859.188 27.2194C859.156 27.2194 859.134 26.5447 859.134 25.7177V24.2161L859.852 23.5196C860.244 23.1279 860.636 22.6817 860.723 22.5185C860.929 22.1268 860.919 21.2998 860.701 20.8427C860.211 19.8199 858.731 19.6131 857.817 20.4401L857.382 20.8319L857.034 20.4945C856.838 20.3095 856.544 20.1028 856.381 20.0484C855.935 19.8743 855.216 19.9069 854.803 20.1137ZM862.616 46.0446C862.616 45.3373 862.877 44.8477 863.4 44.5212C863.726 44.3253 863.955 44.3036 866.098 44.3036C868.242 44.3036 868.47 44.3253 868.797 44.5212C869.319 44.8477 869.58 45.3373 869.58 46.0446C869.58 46.752 869.319 47.2416 868.797 47.5681C868.47 47.7639 868.242 47.7857 866.098 47.7857C863.955 47.7857 863.726 47.7639 863.4 47.5681C862.877 47.2416 862.616 46.752 862.616 46.0446Z" fill="#FFCB58"/>
<path d="M932.014 26.5546C932.062 22.6656 932.12 22.1916 932.807 20.1309C933.022 19.4851 933.284 18.8516 933.589 18.2326C933.852 17.6985 934.54 17.5524 935.042 17.8721C937.666 19.5425 945.639 24 956 24C968.082 24 975.852 19.6319 978.429 17.9235C978.94 17.5846 979.655 17.7279 979.926 18.2783C980.522 19.4922 980.965 20.7687 981.236 22.0948C981.43 23.0332 981.459 23.4976 981.498 26.6127C981.536 30.2986 981.459 31.6143 981.12 33.2976C980.201 37.7671 977.309 42.4398 973.449 45.6903C971.369 47.451 969.279 48.67 965.748 50.2082C961.578 52.0269 960.466 52.6654 958.541 54.3971C956.896 55.8676 956.606 55.8676 954.961 54.3971C953.036 52.6654 951.923 52.0269 947.754 50.2082C944.223 48.67 942.133 47.451 940.053 45.6903C936.193 42.4398 933.301 37.7671 932.382 33.2976C932.033 31.5949 931.966 30.2889 932.014 26.5546Z" fill="#FFCB58"/>
<path d="M974.547 9.4593C970.394 6.70733 965.243 5.05216 959.47 4.60347C952.02 4.03513 944.437 5.8299 938.975 9.44933C937.798 10.2271 935.762 11.6928 935.211 12.6818C935.003 13.0565 934.865 13.3636 935.211 13.6479C937.687 15.682 941.728 17.4161 946.236 18.4132C949.977 19.2408 952.464 19.5 956.75 19.5C961.035 19.5 963.522 19.2408 967.263 18.4132C971.771 17.4161 975.812 15.6712 978.288 13.6371C978.732 13.2782 978.35 12.6713 978.288 12.48C977.966 11.491 975.701 10.2271 974.547 9.4593Z" fill="#FFCB58"/>
<path d="M1043.59 3.94364C1042.83 4.43571 1041.95 5.91191 1041.7 7.11132C1041.29 9.02834 1041.76 10.7506 1043.15 12.4216C1044.38 13.8978 1044.41 15.1177 1043.24 16.5529C1042.92 16.9424 1042.88 17.0654 1042.88 17.578C1042.88 18.5724 1043.44 19.1362 1044.4 19.1362C1045.11 19.1362 1045.45 18.9312 1046.03 18.1623C1047.41 16.3376 1047.66 13.9695 1046.69 11.9397C1046.52 11.5809 1046.08 10.9351 1045.7 10.484C1044.46 8.99758 1044.43 7.77767 1045.6 6.34247C1045.92 5.95291 1045.96 5.8299 1045.96 5.31733C1045.96 4.66124 1045.76 4.27168 1045.28 3.95389C1044.89 3.6976 1043.96 3.68735 1043.59 3.94364Z" fill="#FFCB58"/>
<path d="M1052.82 3.94364C1052.05 4.44596 1051.19 5.90166 1050.93 7.12158C1050.52 9.02834 1050.99 10.7608 1052.36 12.4113C1053.61 13.8978 1053.64 15.1177 1052.47 16.5529C1052.15 16.9424 1052.11 17.0654 1052.11 17.578C1052.11 18.5724 1052.66 19.1362 1053.63 19.1362C1054.33 19.1362 1054.67 18.9312 1055.26 18.1623C1056.64 16.3376 1056.89 13.9695 1055.91 11.9397C1055.75 11.5809 1055.31 10.9351 1054.93 10.484C1053.69 8.99758 1053.66 7.77767 1054.83 6.34247C1055.14 5.95291 1055.18 5.8299 1055.18 5.31733C1055.18 4.66124 1054.99 4.27168 1054.51 3.95389C1054.12 3.6976 1053.18 3.68735 1052.82 3.94364Z" fill="#FFCB58"/>
<path d="M1062.04 3.94364C1061.27 4.44596 1060.41 5.90166 1060.16 7.12158C1059.75 9.02834 1060.22 10.7608 1061.59 12.4113C1062.83 13.8978 1062.86 15.1177 1061.69 16.5529C1061.38 16.9424 1061.33 17.0654 1061.33 17.578C1061.33 18.5724 1061.89 19.1362 1062.85 19.1362C1063.56 19.1362 1063.9 18.9312 1064.48 18.1623C1065.87 16.3376 1066.11 13.9695 1065.14 11.9397C1064.97 11.5809 1064.53 10.9351 1064.15 10.484C1062.91 8.99758 1062.88 7.77767 1064.05 6.34247C1064.37 5.95291 1064.41 5.8299 1064.41 5.31733C1064.41 4.66124 1064.22 4.27168 1063.73 3.95389C1063.34 3.6976 1062.41 3.68735 1062.04 3.94364Z" fill="#FFCB58"/>
<path d="M1036.69 49.8H1067.22H1070.8C1074.76 49.8 1074.82 49.8063 1075.26 50.198C1075.6 50.5076 1075.57 50.9498 1075.19 51.3983C1073.44 53.4389 1069.96 54.9867 1066.18 55.391C1064.81 55.5363 1042.7 55.5363 1041.33 55.391C1038.08 55.0436 1035.03 53.8559 1033.12 52.1943C1032 51.2214 1031.75 50.6529 1032.24 50.198C1032.69 49.8063 1032.75 49.8 1036.69 49.8Z" fill="#FFCB58"/>
<path fill-rule="evenodd" clip-rule="evenodd" d="M1032.69 22.5094C1032.53 22.6221 1032.3 22.8477 1032.19 23.0322C1032 23.3295 1032 23.473 1032.05 25.4208C1032.11 27.7171 1032.28 29.2958 1032.74 31.5921C1033.88 37.2817 1036.14 42.1921 1039.43 46.0671C1039.93 46.6715 1040.68 47.0205 1041.47 47.0205H1053.65H1066.33C1066.78 47.0205 1067.22 46.8268 1067.53 46.4874C1067.78 46.1901 1068.36 45.4725 1068.79 44.9087L1069.57 43.8733L1071.22 43.8118C1073.64 43.7298 1075.51 43.2172 1077.49 42.0793C1080.89 40.1316 1083.19 37.0869 1084.16 33.2324C1084.51 31.8177 1084.62 29.4701 1084.35 28.6602C1083.88 27.1943 1082.79 26.0871 1081.36 25.5848C1080.84 25.4105 1080.48 25.39 1078.02 25.39H1075.28V24.3341C1075.28 23.186 1075.16 22.8887 1074.6 22.5094C1074.31 22.3249 1073.71 22.3146 1053.65 22.3146C1033.49 22.3146 1032.98 22.3249 1032.69 22.5094ZM1081.29 30.7823C1081.37 29.4906 1081.24 29.142 1080.62 28.7422C1080.27 28.527 1080.13 28.5167 1077.67 28.486L1075.08 28.445L1075.03 28.7935C1075 28.978 1074.88 29.7264 1074.76 30.4645C1074.32 33.2221 1073.35 36.5026 1072.28 38.8706C1072.01 39.4857 1071.71 40.1521 1071.63 40.3366L1071.47 40.6851L1072.07 40.6134C1072.96 40.5006 1074.3 40.0906 1075.27 39.6292C1078.71 37.9993 1081.09 34.5035 1081.29 30.7823Z" fill="#FFCB58"/>
<path d="M1137.06 46.9417C1137.22 46.537 1140.61 40.0527 1143.73 33.9735C1143.9 33.6456 1144.23 33.4368 1144.6 33.4302L1147.57 33.3769C1147.57 33.4089 1152.04 33.441 1157.5 33.441C1162.97 33.441 1167.43 33.4089 1167.43 33.3769H1170.39C1170.76 33.3769 1171.11 33.587 1171.28 33.921C1174.39 39.991 1177.78 46.5373 1177.94 46.9417C1179.44 50.6266 1177.83 54.9524 1174.28 56.7575C1172.44 57.6974 1173.75 57.6334 1157.5 57.6334C1145.74 57.6334 1143.03 57.612 1142.55 57.4838C1141.62 57.2595 1140.09 56.4905 1139.36 55.8817C1136.73 53.6814 1135.8 50.0606 1137.06 46.9417Z" fill="#FFCB58"/>
<path d="M1147.15 5.22933C1147.15 4.59834 1147.39 4.16452 1147.9 3.91804C1148.19 3.77015 1149.18 3.75044 1157.82 3.75044C1168.45 3.75044 1167.85 3.711 1168.32 4.38143C1168.62 4.80538 1168.62 5.65327 1168.32 6.07722C1167.98 6.56033 1167.56 6.70822 1166.54 6.70822H1165.65V14.7139V22.7197L1169.16 30.0341C1169.32 30.3659 1169.07 30.75 1168.71 30.75H1166.54H1149.14H1146.36C1145.97 30.75 1145.73 30.3376 1145.92 30.0043L1150.03 22.7197V14.7139V6.70822H1149.14C1147.72 6.70822 1147.15 6.28427 1147.15 5.22933Z" fill="#FFCB58"/>
<path d="M1241.34 9.29829C1241.47 9.18049 1243.46 8.39875 1245.78 7.55276C1248.1 6.70677 1250.1 6.0107 1250.24 6.0107C1250.88 5.98929 1251.25 6.42835 1251.38 7.39214C1251.61 8.93419 1252.34 10.4334 1253.3 11.3222C1254.36 12.3074 1255.58 12.7465 1257.24 12.7465C1260.05 12.7465 1262.05 11.0866 1262.8 8.15245C1262.91 7.71339 1263 7.24221 1263 7.11371C1263 6.56757 1263.52 6 1264.04 6C1264.15 6 1266.16 6.68536 1268.52 7.52064L1272.8 9.04128L1278.1 13.7531C1281.02 16.3339 1283.65 18.6898 1283.96 18.9897C1284.53 19.5465 1284.71 19.9428 1284.57 20.3711C1284.53 20.4996 1282.43 22.7056 1279.91 25.2543L1275.32 29.9019V42.4525C1275.32 54.1679 1275.3 55.0032 1275.13 55.2173C1275.03 55.3458 1274.84 55.5065 1274.71 55.5707C1274.38 55.7421 1240.07 55.7421 1239.73 55.5707C1239.61 55.5065 1239.41 55.3458 1239.32 55.2173C1239.14 55.0032 1239.12 54.1679 1239.12 42.4525V29.9019L1234.53 25.2543C1232.01 22.7056 1229.91 20.4996 1229.87 20.3711C1229.73 19.9321 1229.91 19.5465 1230.53 18.9361C1230.87 18.6149 1233.38 16.3553 1236.12 13.9245C1238.87 11.4936 1241.21 9.40538 1241.34 9.29829Z" fill="#FFCB58"/>
<path fill-rule="evenodd" clip-rule="evenodd" d="M1356.27 17.953C1358.25 18.3218 1359.77 17.9838 1359.77 17.9838L1360.32 17.7376C1361.8 17.0912 1364.08 16.5474 1365.38 16.5474L1365.38 16.5473C1366.45 16.5371 1368.75 16.5489 1371.43 17.4092L1372.77 18.0864C1374.45 18.9175 1375.56 19.7178 1376.79 20.9183C1378.68 22.8062 1379.95 25.1866 1380.53 27.9876C1381.99 34.9852 1378.82 44.2811 1372.88 50.3962C1370.94 52.3867 1369.38 53.5667 1367.44 54.5106C1365.56 55.4135 1364.17 55.7521 1362.28 55.7521C1360.95 55.7521 1359.65 55.4854 1358.53 54.9826C1358.05 54.7774 1357.89 54.7466 1357.72 54.8287C1357.35 55.0236 1356.07 55.4443 1355.33 55.5982C1354.23 55.8342 1352.88 55.8855 1352 55.7419C1347.62 55.0031 1342.25 50.5809 1338.9 44.948C1336.63 41.1106 1335.38 37.1604 1335.07 32.851C1334.93 31.0452 1335 29.7627 1335.28 28.2955C1335.97 24.8685 1337.91 21.7904 1340.76 19.6152C1345.02 16.3729 1350.44 15.6137 1355.22 17.5631C1355.78 17.7889 1356.25 17.9633 1356.27 17.953ZM1344.75 24.8173C1345.83 23.9965 1346.81 23.545 1348.1 23.2577C1348.97 23.0628 1350.04 23.0833 1350.46 23.2988C1351.2 23.6579 1351.48 24.8071 1351 25.4637C1350.62 25.9665 1350.31 26.1101 1349.44 26.2025C1348.39 26.3051 1347.76 26.5103 1347 27.0028C1346.26 27.485 1345.63 28.1622 1345.27 28.8804C1344.9 29.6089 1344.82 29.8859 1344.71 30.912C1344.65 31.4763 1344.55 31.8662 1344.42 32.0303C1343.73 32.964 1342.49 32.9743 1341.87 32.0509C1341.67 31.7636 1341.63 31.5686 1341.63 30.9222C1341.64 28.6342 1342.85 26.2538 1344.75 24.8173Z" fill="#FFCB58"/>
<path d="M1359.77 17.9838L1359.82 18.0749L1359.81 18.0792L1359.8 18.0814L1359.77 17.9838ZM1356.27 17.953L1356.19 17.8823L1356.23 17.8451L1356.28 17.8547L1356.27 17.953ZM1360.32 17.7376L1360.28 17.6465L1360.28 17.6459L1360.32 17.7376ZM1365.38 16.5474L1365.38 16.6474H1365.38V16.5474ZM1365.38 16.5473L1365.38 16.4473H1365.38L1365.38 16.5473ZM1371.43 17.4092L1371.46 17.314L1371.47 17.3164L1371.47 17.3199L1371.43 17.4092ZM1372.77 18.0864L1372.73 18.176L1372.73 18.1757L1372.77 18.0864ZM1376.79 20.9183L1376.86 20.847L1376.86 20.8474L1376.79 20.9183ZM1380.53 27.9876L1380.63 27.9672L1380.63 27.9673L1380.53 27.9876ZM1372.88 50.3962L1372.95 50.4659L1372.95 50.466L1372.88 50.3962ZM1367.44 54.5106L1367.48 54.6005L1367.48 54.6008L1367.44 54.5106ZM1358.53 54.9826L1358.57 54.8906L1358.57 54.8914L1358.53 54.9826ZM1357.72 54.8287L1357.68 54.7402L1357.68 54.7393L1357.72 54.8287ZM1355.33 55.5982L1355.31 55.5005L1355.31 55.5003L1355.33 55.5982ZM1352 55.7419L1351.98 55.8406L1351.98 55.8405L1352 55.7419ZM1338.9 44.948L1338.82 44.999L1338.82 44.999L1338.9 44.948ZM1335.07 32.851L1335.17 32.8437L1335.17 32.8439L1335.07 32.851ZM1335.28 28.2955L1335.18 28.2762L1335.18 28.2758L1335.28 28.2955ZM1340.76 19.6152L1340.7 19.5357L1340.7 19.5356L1340.76 19.6152ZM1355.22 17.5631L1355.18 17.656L1355.18 17.6557L1355.22 17.5631ZM1348.1 23.2577L1348.12 23.3553L1348.12 23.3554L1348.1 23.2577ZM1344.75 24.8173L1344.81 24.8969L1344.81 24.8971L1344.75 24.8173ZM1350.46 23.2988L1350.41 23.3887L1350.41 23.3878L1350.46 23.2988ZM1351 25.4637L1351.08 25.5229L1351.08 25.524L1351 25.4637ZM1349.44 26.2025L1349.45 26.3019L1349.45 26.302L1349.44 26.2025ZM1347 27.0028L1346.95 26.919L1346.95 26.9189L1347 27.0028ZM1345.27 28.8804L1345.36 28.9251L1345.36 28.9256L1345.27 28.8804ZM1344.71 30.912L1344.61 30.9011L1344.61 30.901L1344.71 30.912ZM1344.42 32.0303L1344.34 31.9705L1344.34 31.9703L1344.42 32.0303ZM1341.87 32.0509L1341.95 31.9947L1341.95 31.9954L1341.87 32.0509ZM1341.63 30.9222H1341.53L1341.53 30.9218L1341.63 30.9222ZM1359.77 17.9838C1359.8 18.0814 1359.8 18.0814 1359.8 18.0814C1359.8 18.0815 1359.8 18.0815 1359.8 18.0815C1359.8 18.0815 1359.8 18.0815 1359.8 18.0815C1359.8 18.0816 1359.79 18.0817 1359.79 18.0818C1359.79 18.082 1359.79 18.0822 1359.79 18.0826C1359.79 18.0832 1359.78 18.0842 1359.78 18.0855C1359.76 18.088 1359.75 18.0915 1359.72 18.0959C1359.68 18.1046 1359.61 18.1166 1359.52 18.1298C1359.34 18.1561 1359.09 18.1871 1358.77 18.2065C1358.13 18.2453 1357.25 18.2375 1356.25 18.0513L1356.28 17.8547C1357.27 18.0373 1358.13 18.0449 1358.76 18.0069C1359.07 17.9879 1359.32 17.9575 1359.49 17.9319C1359.58 17.9192 1359.64 17.9076 1359.69 17.8993C1359.71 17.8952 1359.73 17.8918 1359.74 17.8895C1359.74 17.8884 1359.75 17.8875 1359.75 17.887C1359.75 17.8867 1359.75 17.8865 1359.75 17.8863C1359.75 17.8863 1359.75 17.8862 1359.75 17.8862C1359.75 17.8862 1359.75 17.8862 1359.75 17.8862C1359.75 17.8862 1359.75 17.8862 1359.75 17.8862C1359.75 17.8862 1359.75 17.8862 1359.77 17.9838ZM1360.36 17.8286L1359.82 18.0749L1359.73 17.8927L1360.28 17.6465L1360.36 17.8286ZM1365.38 16.6474C1364.1 16.6474 1361.83 17.1868 1360.36 17.8292L1360.28 17.6459C1361.76 16.9955 1364.07 16.4474 1365.38 16.4474V16.6474ZM1365.38 16.6473L1365.38 16.6473L1365.38 16.4474L1365.38 16.4473L1365.38 16.6473ZM1371.4 17.5044C1368.74 16.649 1366.45 16.6372 1365.38 16.6473L1365.38 16.4473C1366.45 16.4371 1368.77 16.4488 1371.46 17.314L1371.4 17.5044ZM1372.73 18.1757L1371.38 17.4985L1371.47 17.3199L1372.82 17.9971L1372.73 18.1757ZM1376.72 20.9896C1375.5 19.7968 1374.39 19.0025 1372.73 18.176L1372.82 17.9968C1374.5 18.8325 1375.63 19.6388 1376.86 20.847L1376.72 20.9896ZM1380.43 28.0081C1379.85 25.2248 1378.6 22.8623 1376.72 20.9892L1376.86 20.8474C1378.77 22.75 1380.04 25.1483 1380.63 27.9672L1380.43 28.0081ZM1372.8 50.3266C1378.73 44.23 1381.88 34.9665 1380.43 28.008L1380.63 27.9673C1382.09 35.0038 1378.91 44.3322 1372.95 50.4659L1372.8 50.3266ZM1367.39 54.4207C1369.32 53.483 1370.87 52.311 1372.81 50.3265L1372.95 50.466C1371 52.4625 1369.43 53.6503 1367.48 54.6005L1367.39 54.4207ZM1362.28 55.6521C1364.15 55.6521 1365.53 55.3177 1367.4 54.4205L1367.48 54.6008C1365.59 55.5094 1364.18 55.8521 1362.28 55.8521V55.6521ZM1358.57 54.8914C1359.68 55.3879 1360.97 55.6521 1362.28 55.6521V55.8521C1360.94 55.8521 1359.62 55.5828 1358.49 55.0738L1358.57 54.8914ZM1357.68 54.7393C1357.78 54.6872 1357.89 54.6731 1358.03 54.6997C1358.16 54.725 1358.33 54.7881 1358.57 54.8906L1358.49 55.0746C1358.25 54.9719 1358.1 54.917 1357.99 54.8962C1357.89 54.8766 1357.83 54.8881 1357.77 54.9181L1357.68 54.7393ZM1355.31 55.5003C1355.68 55.4244 1356.18 55.282 1356.63 55.1337C1357.09 54.9848 1357.5 54.8332 1357.68 54.7403L1357.77 54.9171C1357.58 55.0192 1357.15 55.1754 1356.7 55.324C1356.24 55.4733 1355.73 55.6181 1355.35 55.6961L1355.31 55.5003ZM1352.01 55.6432C1352.88 55.7845 1354.22 55.7343 1355.31 55.5005L1355.35 55.696C1354.24 55.9341 1352.88 55.9866 1351.98 55.8406L1352.01 55.6432ZM1338.99 44.8969C1340.66 47.7036 1342.83 50.2085 1345.13 52.1031C1347.43 53.9987 1349.85 55.2778 1352.01 55.6433L1351.98 55.8405C1349.77 55.4672 1347.31 54.1658 1345 52.2574C1342.68 50.348 1340.5 47.8253 1338.82 44.999L1338.99 44.8969ZM1335.17 32.8439C1335.47 37.1373 1336.72 41.0725 1338.99 44.8969L1338.82 44.999C1336.53 41.1487 1335.28 37.1835 1334.97 32.8582L1335.17 32.8439ZM1335.38 28.3147C1335.1 29.7716 1335.03 31.045 1335.17 32.8437L1334.97 32.8584C1334.83 31.0454 1334.9 29.7538 1335.18 28.2762L1335.38 28.3147ZM1340.82 19.6947C1337.99 21.8555 1336.06 24.9126 1335.38 28.3151L1335.18 28.2758C1335.88 24.8244 1337.83 21.7253 1340.7 19.5357L1340.82 19.6947ZM1355.18 17.6557C1350.43 15.7201 1345.05 16.4731 1340.82 19.6948L1340.7 19.5356C1344.99 16.2727 1350.44 15.5072 1355.26 17.4705L1355.18 17.6557ZM1356.34 18.0237C1356.31 18.0453 1356.29 18.0504 1356.28 18.0517C1356.27 18.0536 1356.26 18.0535 1356.26 18.0534C1356.25 18.0531 1356.24 18.0519 1356.24 18.0511C1356.23 18.0495 1356.22 18.0471 1356.21 18.0447C1356.2 18.0398 1356.17 18.0323 1356.14 18.0229C1356.09 18.004 1356.01 17.9757 1355.91 17.9403C1355.72 17.8694 1355.46 17.7691 1355.18 17.656L1355.26 17.4703C1355.54 17.5829 1355.8 17.6826 1355.98 17.7528C1356.08 17.788 1356.16 17.8155 1356.21 17.8334C1356.24 17.8425 1356.26 17.8487 1356.27 17.8522C1356.27 17.8541 1356.28 17.8546 1356.28 17.8545C1356.28 17.8544 1356.27 17.8543 1356.27 17.8541C1356.27 17.8539 1356.27 17.8536 1356.27 17.8535C1356.26 17.8534 1356.26 17.8533 1356.25 17.855C1356.24 17.8562 1356.22 17.861 1356.19 17.8823L1356.34 18.0237ZM1348.12 23.3554C1346.84 23.6395 1345.88 24.0847 1344.81 24.8969L1344.69 24.7378C1345.78 23.9082 1346.77 23.4506 1348.08 23.1601L1348.12 23.3554ZM1350.41 23.3878C1350.22 23.2911 1349.87 23.232 1349.45 23.2243C1349.02 23.2168 1348.55 23.2597 1348.12 23.3553L1348.08 23.1602C1348.52 23.0608 1349.01 23.0166 1349.45 23.0244C1349.88 23.0321 1350.27 23.091 1350.5 23.2098L1350.41 23.3878ZM1350.92 25.4045C1351.14 25.1061 1351.19 24.6872 1351.09 24.294C1350.99 23.9008 1350.75 23.5523 1350.41 23.3887L1350.5 23.2089C1350.9 23.4044 1351.18 23.81 1351.28 24.2453C1351.39 24.6806 1351.35 25.1647 1351.08 25.5229L1350.92 25.4045ZM1349.43 26.103C1349.87 26.057 1350.15 25.9993 1350.36 25.8966C1350.58 25.7956 1350.74 25.6475 1350.92 25.4035L1351.08 25.524C1350.89 25.7827 1350.7 25.9578 1350.45 26.0774C1350.2 26.1953 1349.89 26.2555 1349.45 26.3019L1349.43 26.103ZM1346.95 26.9189C1347.72 26.4163 1348.36 26.2068 1349.43 26.1029L1349.45 26.302C1348.41 26.4033 1347.8 26.6043 1347.05 27.0867L1346.95 26.9189ZM1345.18 28.8357C1345.54 28.0992 1346.19 27.4094 1346.95 26.919L1347.05 27.0865C1346.33 27.5606 1345.71 28.2251 1345.36 28.9251L1345.18 28.8357ZM1344.61 30.901C1344.67 30.388 1344.72 30.0553 1344.8 29.7584C1344.88 29.46 1344.99 29.2015 1345.18 28.8352L1345.36 28.9256C1345.17 29.2878 1345.06 29.532 1344.99 29.8108C1344.91 30.0911 1344.87 30.4099 1344.81 30.9229L1344.61 30.901ZM1344.34 31.9703C1344.39 31.9043 1344.45 31.7814 1344.49 31.5962C1344.54 31.4137 1344.58 31.1802 1344.61 30.9011L1344.81 30.9228C1344.78 31.208 1344.74 31.4516 1344.69 31.6462C1344.64 31.8381 1344.58 31.9922 1344.5 32.0903L1344.34 31.9703ZM1341.95 31.9954C1342.24 32.4295 1342.68 32.6406 1343.12 32.637C1343.56 32.6334 1344.01 32.4142 1344.34 31.9705L1344.5 32.0902C1344.14 32.5802 1343.63 32.8329 1343.12 32.837C1342.61 32.8411 1342.11 32.5957 1341.79 32.1063L1341.95 31.9954ZM1341.73 30.9222C1341.73 31.2454 1341.74 31.4464 1341.78 31.6007C1341.81 31.7502 1341.86 31.8588 1341.95 31.9947L1341.79 32.107C1341.68 31.9556 1341.62 31.8231 1341.58 31.6417C1341.54 31.4651 1341.53 31.2454 1341.53 30.9222H1341.73ZM1344.81 24.8971C1342.94 26.3154 1341.74 28.667 1341.73 30.9227L1341.53 30.9218C1341.54 28.6014 1342.77 26.1921 1344.69 24.7376L1344.81 24.8971Z" fill="#FFCB58"/>
<path fill-rule="evenodd" clip-rule="evenodd" d="M1372.07 3.10304C1369.77 3.34929 1367.59 3.96492 1365.61 4.92939C1364.04 5.69892 1362.8 6.5813 1361.55 7.81254C1360.38 8.97196 1359.61 9.96722 1358.75 11.4858L1358.1 12.6144L1357.62 11.6191C1356.61 9.59785 1354.65 7.00198 1353.74 6.49922C1353.22 6.22219 1352.92 6.21193 1352.36 6.48896C1352.05 6.64287 1351.87 6.81729 1351.72 7.13536C1351.32 7.95619 1351.42 8.31531 1352.43 9.41316C1354.28 11.4755 1355.59 14.0098 1356.12 16.6159C1356.22 17.1597 1356.3 17.6112 1356.28 17.6317C1356.28 17.635 1356.33 18.0214 1356.4 18.5573C1356.54 19.6856 1356.77 21.4769 1356.77 21.7505C1356.77 21.7505 1358.53 22.1867 1360.17 20.5619C1361.03 19.7099 1363.13 19.5218 1365.32 19.3247C1367.79 19.1026 1370.39 18.8692 1371.49 17.6625C1373.56 15.3847 1375.54 10.4289 1375.92 6.4274C1376.08 4.80626 1376.06 4.34455 1375.82 3.86231C1375.49 3.19539 1375.03 2.99018 1373.86 3.00044C1373.33 3.0107 1372.53 3.05174 1372.07 3.10304ZM1372.79 6.75573C1372.52 9.13613 1371.63 11.7012 1370.55 13.3326C1369.93 14.256 1368.82 15.3026 1368.05 15.7028C1367.38 16.0413 1366.46 16.2158 1365.4 16.226C1364.1 16.226 1361.81 16.7698 1360.34 17.4162L1359.79 17.6625L1359.85 17.2726C1359.9 17.0674 1360.04 16.4928 1360.17 16.0106C1361.63 10.8701 1365.52 7.40213 1371 6.3761C1371.53 6.27349 1372.18 6.18115 1372.42 6.18115L1372.86 6.17089L1372.79 6.75573Z" fill="#FFCB58"/>
<path d="M1365.61 4.92939L1365.57 4.8396L1365.57 4.83949L1365.61 4.92939ZM1372.07 3.10304L1372.09 3.20241L1372.09 3.20248L1372.07 3.10304ZM1361.55 7.81254L1361.48 7.74152L1361.48 7.74125L1361.55 7.81254ZM1358.75 11.4858L1358.83 11.5351L1358.83 11.5355L1358.75 11.4858ZM1358.1 12.6144L1358.19 12.6641L1358.09 12.8285L1358.01 12.658L1358.1 12.6144ZM1357.62 11.6191L1357.71 11.5746L1357.71 11.5755L1357.62 11.6191ZM1353.74 6.49922L1353.79 6.41083L1353.79 6.41162L1353.74 6.49922ZM1352.36 6.48896L1352.41 6.57841L1352.41 6.57898L1352.36 6.48896ZM1351.72 7.13536L1351.81 7.17892L1351.81 7.17918L1351.72 7.13536ZM1352.43 9.41316L1352.5 9.34562L1352.5 9.34625L1352.43 9.41316ZM1356.12 16.6159L1356.22 16.5959L1356.22 16.5974L1356.12 16.6159ZM1356.28 17.6317L1356.21 17.561L1356.21 17.561L1356.28 17.6317ZM1356.4 18.5573L1356.5 18.5447V18.5447L1356.4 18.5573ZM1356.77 21.7505L1356.74 21.8475L1356.67 21.8287V21.7505H1356.77ZM1360.17 20.5619L1360.24 20.6329L1360.17 20.5619ZM1365.32 19.3247L1365.33 19.4243L1365.32 19.3247ZM1371.49 17.6625L1371.56 17.7298V17.7298L1371.49 17.6625ZM1375.92 6.4274L1375.82 6.41796L1375.82 6.41795L1375.92 6.4274ZM1375.82 3.86231L1375.91 3.81815L1375.91 3.81836L1375.82 3.86231ZM1373.86 3.00044L1373.86 2.90046L1373.86 2.90045L1373.86 3.00044ZM1370.55 13.3326L1370.46 13.2771L1370.55 13.3326ZM1372.79 6.75573L1372.69 6.74417L1372.69 6.74354L1372.79 6.75573ZM1368.05 15.7028L1368.1 15.7915L1368.1 15.7922L1368.05 15.7028ZM1365.4 16.226L1365.4 16.326H1365.4V16.226ZM1360.34 17.4162L1360.3 17.3251L1360.3 17.3246L1360.34 17.4162ZM1359.79 17.6625L1359.83 17.7536L1359.67 17.8301L1359.69 17.6469L1359.79 17.6625ZM1359.85 17.2726L1359.76 17.257L1359.76 17.253L1359.85 17.2726ZM1360.17 16.0106L1360.08 15.9839L1360.08 15.9833L1360.17 16.0106ZM1371 6.3761L1371.02 6.4743L1371.02 6.47439L1371 6.3761ZM1372.42 6.18115L1372.43 6.28115H1372.42V6.18115ZM1372.86 6.17089L1372.86 6.07092L1372.98 6.06823L1372.96 6.18308L1372.86 6.17089ZM1360.34 17.4162L1360.3 17.3251L1360.3 17.3246L1360.34 17.4162ZM1359.79 17.6625L1359.83 17.7536L1359.67 17.8301L1359.69 17.6469L1359.79 17.6625ZM1365.57 4.83949C1367.56 3.86969 1369.74 3.25102 1372.06 3.00361L1372.09 3.20248C1369.79 3.44756 1367.62 4.06015 1365.65 5.01929L1365.57 4.83949ZM1361.48 7.74125C1362.74 6.50256 1363.99 5.6139 1365.57 4.8396L1365.65 5.01918C1364.09 5.78393 1362.86 6.66004 1361.62 7.88384L1361.48 7.74125ZM1358.66 11.4364C1359.53 9.90993 1360.3 8.90738 1361.48 7.74152L1361.62 7.88356C1360.45 9.03655 1359.69 10.0245 1358.83 11.5351L1358.66 11.4364ZM1358.01 12.5647L1358.66 11.4361L1358.83 11.5355L1358.19 12.6641L1358.01 12.5647ZM1357.71 11.5755L1358.19 12.5708L1358.01 12.658L1357.53 11.6627L1357.71 11.5755ZM1353.79 6.41162C1354.03 6.54515 1354.33 6.81122 1354.66 7.15825C1354.99 7.50729 1355.36 7.94509 1355.72 8.42939C1356.46 9.39766 1357.2 10.5572 1357.71 11.5746L1357.53 11.6637C1357.03 10.6598 1356.29 9.51075 1355.56 8.55007C1355.2 8.06989 1354.84 7.63813 1354.52 7.29589C1354.19 6.95162 1353.91 6.70468 1353.69 6.58682L1353.79 6.41162ZM1352.32 6.39952C1352.6 6.25813 1352.83 6.18348 1353.06 6.18633C1353.3 6.18918 1353.52 6.26946 1353.79 6.41084L1353.69 6.5876C1353.44 6.45196 1353.25 6.38859 1353.06 6.38631C1352.88 6.38403 1352.68 6.44277 1352.41 6.57841L1352.32 6.39952ZM1351.63 7.0918C1351.71 6.9257 1351.8 6.79245 1351.91 6.67989C1352.02 6.56732 1352.15 6.47932 1352.32 6.39895L1352.41 6.57898C1352.26 6.65251 1352.14 6.72867 1352.05 6.82131C1351.96 6.91395 1351.88 7.02695 1351.81 7.17892L1351.63 7.0918ZM1352.35 9.4807C1351.85 8.9338 1351.56 8.55403 1351.45 8.19976C1351.34 7.83332 1351.42 7.50923 1351.63 7.09154L1351.81 7.17918C1351.61 7.58232 1351.55 7.8482 1351.64 8.14099C1351.73 8.44595 1352 8.79467 1352.5 9.34562L1352.35 9.4807ZM1356.02 16.636C1355.49 14.0482 1354.2 11.5299 1352.35 9.48008L1352.5 9.34625C1354.37 11.4211 1355.68 13.9714 1356.22 16.5959L1356.02 16.636ZM1356.21 17.561C1356.2 17.5776 1356.19 17.5952 1356.19 17.5997C1356.19 17.6062 1356.19 17.6109 1356.19 17.612C1356.19 17.6142 1356.19 17.6134 1356.19 17.6076C1356.19 17.5966 1356.19 17.5786 1356.18 17.5527C1356.18 17.5014 1356.16 17.4279 1356.15 17.3366C1356.12 17.1543 1356.07 16.9065 1356.02 16.6345L1356.22 16.5974C1356.27 16.8692 1356.32 17.1189 1356.35 17.3035C1356.36 17.3955 1356.37 17.4728 1356.38 17.5289C1356.38 17.5567 1356.39 17.5815 1356.39 17.6013C1356.39 17.6109 1356.39 17.6224 1356.39 17.6338C1356.39 17.6394 1356.38 17.6479 1356.38 17.6574C1356.38 17.6648 1356.37 17.6845 1356.35 17.7024L1356.21 17.561ZM1356.3 18.5699C1356.26 18.302 1356.24 18.0713 1356.22 17.9071C1356.2 17.8251 1356.2 17.7593 1356.19 17.7138C1356.19 17.6912 1356.19 17.673 1356.19 17.6601C1356.19 17.6539 1356.18 17.6479 1356.18 17.6429C1356.18 17.6407 1356.18 17.637 1356.18 17.6329C1356.18 17.6312 1356.18 17.6267 1356.18 17.6212C1356.18 17.6186 1356.19 17.6129 1356.19 17.6059C1356.19 17.6034 1356.19 17.5809 1356.21 17.561L1356.35 17.7024C1356.37 17.6826 1356.38 17.6602 1356.38 17.6577C1356.38 17.6509 1356.38 17.6454 1356.38 17.6431C1356.38 17.638 1356.38 17.6342 1356.38 17.6333C1356.38 17.6309 1356.38 17.6296 1356.38 17.6306C1356.38 17.6319 1356.38 17.6351 1356.38 17.6408C1356.39 17.6518 1356.39 17.6685 1356.39 17.6909C1356.4 17.7355 1356.4 17.8005 1356.41 17.8824C1356.43 18.0463 1356.46 18.2767 1356.5 18.5447L1356.3 18.5699ZM1356.67 21.7505C1356.67 21.6214 1356.61 21.1137 1356.54 20.4863C1356.46 19.8637 1356.37 19.1341 1356.3 18.5699L1356.5 18.5447C1356.57 19.1088 1356.66 19.839 1356.74 20.4625C1356.81 21.0813 1356.87 21.6059 1356.87 21.7505H1356.67ZM1360.24 20.6329C1359.41 21.4623 1358.54 21.7678 1357.87 21.8644C1357.54 21.9127 1357.26 21.9089 1357.06 21.8929C1356.96 21.8849 1356.89 21.8738 1356.83 21.8646C1356.8 21.86 1356.78 21.8559 1356.77 21.8528C1356.76 21.8513 1356.76 21.85 1356.75 21.8491C1356.75 21.8487 1356.75 21.8483 1356.75 21.848C1356.75 21.8479 1356.75 21.8478 1356.75 21.8477C1356.75 21.8477 1356.75 21.8476 1356.75 21.8476C1356.75 21.8476 1356.75 21.8476 1356.75 21.8476C1356.75 21.8475 1356.74 21.8475 1356.77 21.7505C1356.79 21.6534 1356.79 21.6534 1356.79 21.6534C1356.79 21.6534 1356.79 21.6533 1356.79 21.6533C1356.79 21.6533 1356.79 21.6533 1356.79 21.6533C1356.79 21.6534 1356.79 21.6534 1356.79 21.6535C1356.79 21.6536 1356.79 21.6539 1356.8 21.6542C1356.8 21.6548 1356.8 21.6558 1356.81 21.6571C1356.82 21.6596 1356.84 21.6633 1356.86 21.6674C1356.91 21.6758 1356.99 21.6861 1357.08 21.6936C1357.26 21.7086 1357.53 21.7123 1357.84 21.6665C1358.47 21.5752 1359.3 21.2863 1360.1 20.4909L1360.24 20.6329ZM1365.33 19.4243C1364.23 19.5229 1363.16 19.6189 1362.27 19.7958C1361.36 19.9736 1360.65 20.2294 1360.24 20.6329L1360.1 20.4909C1360.55 20.0424 1361.32 19.7782 1362.23 19.5996C1363.14 19.4202 1364.22 19.3235 1365.31 19.2251L1365.33 19.4243ZM1371.56 17.7298C1370.99 18.3575 1370.04 18.7227 1368.94 18.9606C1367.84 19.1991 1366.56 19.3134 1365.33 19.4243L1365.31 19.2251C1366.55 19.1139 1367.81 19.0005 1368.9 18.7651C1369.99 18.529 1370.89 18.1743 1371.41 17.5952L1371.56 17.7298ZM1376.02 6.43684C1375.83 8.44882 1375.24 10.6974 1374.43 12.7282C1373.63 14.7577 1372.61 16.5784 1371.56 17.7298L1371.41 17.5952C1372.44 16.4687 1373.45 14.6727 1374.25 12.6545C1375.05 10.6376 1375.63 8.40751 1375.82 6.41796L1376.02 6.43684ZM1375.91 3.81836C1376.16 4.33018 1376.18 4.8213 1376.02 6.43685L1375.82 6.41795C1375.98 4.79123 1375.95 4.35892 1375.73 3.90627L1375.91 3.81836ZM1373.86 2.90045C1374.45 2.89529 1374.87 2.94355 1375.2 3.08593C1375.53 3.23118 1375.74 3.46959 1375.91 3.81815L1375.73 3.90648C1375.57 3.58812 1375.39 3.39046 1375.12 3.26894C1374.83 3.14455 1374.44 3.09533 1373.86 3.10044L1373.86 2.90045ZM1372.06 3.00368C1372.52 2.95189 1373.32 2.91075 1373.86 2.90046L1373.86 3.10042C1373.33 3.11066 1372.53 3.1516 1372.09 3.20241L1372.06 3.00368ZM1370.46 13.2771C1371.54 11.6613 1372.42 9.11202 1372.69 6.74417L1372.89 6.76729C1372.61 9.16024 1371.73 11.7411 1370.63 13.3881L1370.46 13.2771ZM1368.01 15.614C1368.38 15.42 1368.84 15.0653 1369.29 14.6414C1369.73 14.2182 1370.16 13.7313 1370.46 13.2771L1370.63 13.3881C1370.32 13.8574 1369.88 14.3555 1369.43 14.7865C1368.97 15.2167 1368.5 15.5854 1368.1 15.7915L1368.01 15.614ZM1365.39 16.126C1366.45 16.1159 1367.35 15.9427 1368.01 15.6133L1368.1 15.7922C1367.4 16.14 1366.47 16.3157 1365.4 16.326L1365.39 16.126ZM1360.3 17.3246C1361.78 16.6742 1364.09 16.126 1365.4 16.126V16.326C1364.12 16.326 1361.85 16.8655 1360.38 17.5078L1360.3 17.3246ZM1359.75 17.5714L1360.3 17.3251L1360.38 17.5073L1359.83 17.7536L1359.75 17.5714ZM1359.95 17.2882L1359.89 17.6781L1359.69 17.6469L1359.76 17.257L1359.95 17.2882ZM1360.27 16.0372C1360.14 16.519 1359.99 17.0907 1359.95 17.2922L1359.76 17.253C1359.8 17.044 1359.94 16.4666 1360.08 15.9839L1360.27 16.0372ZM1371.02 6.47439C1365.57 7.49379 1361.72 10.9358 1360.27 16.0378L1360.08 15.9833C1361.54 10.8045 1365.46 7.31047 1370.98 6.2778L1371.02 6.47439ZM1372.42 6.28115C1372.19 6.28115 1371.55 6.37157 1371.02 6.4743L1370.98 6.27789C1371.51 6.17542 1372.17 6.08115 1372.42 6.08115V6.28115ZM1372.87 6.27086L1372.43 6.28112L1372.42 6.08118L1372.86 6.07092L1372.87 6.27086ZM1372.69 6.74354L1372.77 6.1587L1372.96 6.18308L1372.89 6.76792L1372.69 6.74354ZM1365.4 16.326C1364.12 16.326 1361.85 16.8655 1360.38 17.5078L1360.3 17.3246C1361.78 16.6742 1364.09 16.126 1365.4 16.126V16.326ZM1360.38 17.5073L1359.83 17.7536L1359.75 17.5714L1360.3 17.3251L1360.38 17.5073ZM1359.69 17.6469L1359.76 17.257L1359.95 17.2882L1359.89 17.6781L1359.69 17.6469Z" fill="#FFCB58"/>
<path fill-rule="evenodd" clip-rule="evenodd" d="M1433.14 25.5853V34.4716V43.1938C1433.14 43.7461 1433.58 44.1938 1434.14 44.1938H1480.86C1481.42 44.1938 1481.86 43.7461 1481.86 43.1938V34.4716V25.7459C1481.86 25.195 1481.42 24.7478 1480.87 24.7459L1434.14 24.5854C1433.59 24.5835 1433.14 25.0317 1433.14 25.5853ZM1443.05 33.085C1445.08 30.4242 1448.24 28.5635 1451.7 28.0146C1452.82 27.8378 1455.36 27.8285 1456.51 28.0053C1459.04 28.396 1461.39 29.4659 1463.32 31.1034L1464.24 31.8849L1465.35 30.4242C1465.95 29.6148 1466.58 28.8798 1466.75 28.7868C1467.01 28.6286 1467.28 28.61 1469.31 28.61C1471.81 28.61 1471.94 28.6379 1472.38 29.224C1472.57 29.4845 1472.58 29.7543 1472.58 34.4713C1472.58 39.1882 1472.57 39.458 1472.38 39.7185C1471.94 40.3046 1471.81 40.3325 1469.31 40.3325C1467.28 40.3325 1467.01 40.3139 1466.75 40.1557C1466.58 40.0627 1465.95 39.3277 1465.35 38.5276L1464.24 37.067L1463.29 37.8578C1461.61 39.2719 1459.67 40.2302 1457.45 40.7605C1456.03 41.0861 1453.42 41.1791 1451.87 40.9466C1448.28 40.4069 1445.12 38.5834 1443.05 35.8575C1442.46 35.0667 1442.42 34.983 1442.42 34.4713C1442.42 33.9596 1442.46 33.8758 1443.05 33.085ZM1450.71 33.2528C1450.22 33.5412 1450.01 33.8948 1450.01 34.4716C1450.01 35.0484 1450.22 35.402 1450.71 35.6904C1451.11 35.923 1452.03 35.9323 1452.46 35.6997C1453.45 35.188 1453.45 33.7552 1452.46 33.2342C1452.03 33.0109 1451.11 33.0202 1450.71 33.2528Z" fill="#FFCB58"/>
<path d="M1434.19 11.1192C1434.75 9.50039 1436.13 8.27232 1437.98 7.7141C1438.63 7.51873 1438.85 7.50942 1441.63 7.50012C1444.89 7.50012 1444.93 7.50942 1445.38 8.11415C1445.66 8.48629 1445.66 9.2864 1445.37 9.68645C1444.98 10.2447 1444.76 10.2819 1441.84 10.3191C1439.32 10.347 1439.18 10.3563 1438.73 10.561C1437.74 11.0169 1437.25 11.6867 1437.25 12.6171C1437.25 13.5381 1437.71 14.1987 1438.67 14.6453L1439.2 14.8965L1460.77 14.943L1482.34 14.9895L1482.77 15.1942C1483.48 15.5291 1483.84 15.8454 1484.17 16.4502L1484.5 17.0177V17.825V20.123L1484.15 20.7091C1483.76 21.3789 1483.19 21.8162 1482.39 22.0674L1481.86 22.2349L1433.14 22.0674H1432.61C1431.81 21.8162 1431.24 21.3789 1430.85 20.7091L1430.5 20.123V17.8343L1430.5 16.5001C1430.86 15.821 1431.48 15.5477 1432.21 15.2314C1432.77 14.9802 1432.97 14.943 1433.7 14.943C1434.44 14.943 1434.52 14.9244 1434.46 14.7755C1433.93 13.6591 1433.81 12.1798 1434.19 11.1192Z" fill="#FFCB58"/>
<path d="M1432.87 46.5H1481.86L1482.39 46.6429C1483.19 46.8571 1483.76 47.2302 1484.15 47.8016L1484.5 48.3016V50.254C1484.5 52.1429 1484.49 52.2302 1484.25 52.6111C1483.89 53.1905 1483.52 53.4841 1482.79 53.754L1482.15 54H1457.51H1432.87L1432.35 53.8095C1431.58 53.5397 1431.19 53.2619 1430.83 52.7143L1430.5 52.2302V50.2619V48.3016L1430.85 47.8016C1431.24 47.2302 1432.07 46.7143 1432.87 46.5Z" fill="#FFCB58"/>
<defs>
<clipPath id="clip0_1297_13700">
<rect width="60" height="60" fill="white" transform="translate(327.5)"/>
</clipPath>
<clipPath id="clip1_1297_13700">
<rect width="60" height="60" fill="white" transform="translate(527.5)"/>
</clipPath>
</defs>
</svg>
