<svg width="281" height="394" viewBox="0 0 281 394" fill="none" xmlns="http://www.w3.org/2000/svg">
<path d="M166 239.06C166 244.528 161.542 249 156.09 249H11.9096C6.45798 249 2 244.528 2 239.06V33.7973C2 28.3288 6.45798 23.8569 11.9096 23.8569H156.09C161.542 23.8569 166 28.3288 166 33.7973V239.06Z" fill="#C99C6C"/>
<path d="M166 239.06C166 244.528 161.542 249 156.09 249H11.9096C6.45798 249 2 244.528 2 239.06V33.7973C2 28.3288 6.45798 23.8569 11.9096 23.8569H156.09C161.542 23.8569 166 28.3288 166 33.7973V239.06Z" stroke="#C99C6C" stroke-width="3.02505" stroke-miterlimit="10"/>
<path d="M156.95 36.2812H11.0503V236.576H156.95V36.2812Z" fill="#F9F9F9"/>
<path d="M146.97 70.9458H125.583V93.8276H146.97V70.9458Z" stroke="#B6B9BA" stroke-width="4.89654" stroke-miterlimit="10"/>
<path d="M112.773 70.9458H21.8784V72.7591H112.773V70.9458Z" fill="#B6B9BA" stroke="#B6B9BA" stroke-width="1.63218" stroke-miterlimit="10"/>
<path d="M112.773 79.8843H21.8784V81.6976H112.773V79.8843Z" fill="#B6B9BA" stroke="#B6B9BA" stroke-width="1.63218" stroke-miterlimit="10"/>
<path d="M112.773 88.8223H21.8784V90.6356H112.773V88.8223Z" fill="#B6B9BA" stroke="#B6B9BA" stroke-width="1.63218" stroke-miterlimit="10"/>
<path d="M67.3283 97.7607H21.8784V99.574H67.3283V97.7607Z" fill="#B6B9BA" stroke="#B6B9BA" stroke-width="1.15414" stroke-miterlimit="10"/>
<path d="M130.933 78.0953L135.922 88.8223L146.971 68.4404" stroke="#ABD26C" stroke-width="4.89654" stroke-miterlimit="10" stroke-linecap="round" stroke-linejoin="round"/>
<path d="M146.97 128.331H125.583V151.212H146.97V128.331Z" stroke="#B6B9BA" stroke-width="4.89654" stroke-miterlimit="10"/>
<path d="M112.773 128.331H21.8784V130.144H112.773V128.331Z" fill="#B6B9BA" stroke="#B6B9BA" stroke-width="1.63218" stroke-miterlimit="10"/>
<path d="M112.773 137.269H21.8784V139.082H112.773V137.269Z" fill="#B6B9BA" stroke="#B6B9BA" stroke-width="1.63218" stroke-miterlimit="10"/>
<path d="M112.773 146.207H21.8784V148.02H112.773V146.207Z" fill="#B6B9BA" stroke="#B6B9BA" stroke-width="1.63218" stroke-miterlimit="10"/>
<path d="M67.3283 155.146H21.8784V156.959H67.3283V155.146Z" fill="#B6B9BA" stroke="#B6B9BA" stroke-width="1.15414" stroke-miterlimit="10"/>
<path d="M130.933 135.48L135.922 146.207L146.971 125.831" stroke="#ABD26C" stroke-width="4.89654" stroke-miterlimit="10" stroke-linecap="round" stroke-linejoin="round"/>
<path d="M146.97 185.721H125.583V208.602H146.97V185.721Z" stroke="#B6B9BA" stroke-width="4.89654" stroke-miterlimit="10"/>
<path d="M112.773 185.721H21.8784V187.534H112.773V185.721Z" fill="#B6B9BA" stroke="#B6B9BA" stroke-width="1.63218" stroke-miterlimit="10"/>
<path d="M112.773 194.659H21.8784V196.472H112.773V194.659Z" fill="#B6B9BA" stroke="#B6B9BA" stroke-width="1.63218" stroke-miterlimit="10"/>
<path d="M112.773 203.598H21.8784V205.411H112.773V203.598Z" fill="#B6B9BA" stroke="#B6B9BA" stroke-width="1.63218" stroke-miterlimit="10"/>
<path d="M67.3283 212.536H21.8784V214.349H67.3283V212.536Z" fill="#B6B9BA" stroke="#B6B9BA" stroke-width="1.15414" stroke-miterlimit="10"/>
<path d="M130.933 192.87L135.922 203.597L143.222 190.128" stroke="#ABD26C" stroke-width="4.89654" stroke-miterlimit="10" stroke-linecap="round" stroke-linejoin="round"/>
<path d="M110.425 15.4036H95.3488C95.5852 14.4445 95.7248 13.4532 95.7248 12.4241C95.7248 5.57093 90.1711 0 83.3391 0C76.5071 0 70.9535 5.57093 70.9535 12.4241C70.9535 13.4532 71.0931 14.4499 71.3294 15.4036H55.4311C49.9795 15.4036 45.5215 19.8754 45.5215 25.3439V31.8039C45.5215 37.2724 49.9795 41.7442 55.4311 41.7442H110.431C115.882 41.7442 120.34 37.2724 120.34 31.8039V25.3439C120.335 19.8808 115.877 15.4036 110.425 15.4036ZM78.8812 12.4241C78.8812 9.95655 80.8846 7.95231 83.3391 7.95231C85.7991 7.95231 87.7971 9.95655 87.7971 12.4241C87.7971 13.5717 87.3513 14.6116 86.637 15.4036H80.0359C79.327 14.6116 78.8812 13.5717 78.8812 12.4241Z" fill="#CC4333"/>
<path d="M119.116 36.459H46.7407V43.2799H119.116V36.459Z" fill="#CC4333"/>
<path d="M49.0503 36.5938H48.1479V43.2799H49.0503V36.5938Z" fill="#A51B1B"/>
<path d="M51.2685 36.5938H50.3662V43.2799H51.2685V36.5938Z" fill="#A51B1B"/>
<path d="M53.4814 36.5938H52.5791V43.2799H53.4814V36.5938Z" fill="#A51B1B"/>
<path d="M55.6943 36.5938H54.792V43.2799H55.6943V36.5938Z" fill="#A51B1B"/>
<path d="M57.9072 36.5938H57.0049V43.2799H57.9072V36.5938Z" fill="#A51B1B"/>
<path d="M60.1255 36.5938H59.2231V43.2799H60.1255V36.5938Z" fill="#A51B1B"/>
<path d="M62.3384 36.5938H61.436V43.2799H62.3384V36.5938Z" fill="#A51B1B"/>
<path d="M64.5513 36.5938H63.6489V43.2799H64.5513V36.5938Z" fill="#A51B1B"/>
<path d="M66.7695 36.5938H65.8672V43.2799H66.7695V36.5938Z" fill="#A51B1B"/>
<path d="M68.9824 36.5938H68.0801V43.2799H68.9824V36.5938Z" fill="#A51B1B"/>
<path d="M71.1953 36.5938H70.293V43.2799H71.1953V36.5938Z" fill="#A51B1B"/>
<path d="M73.4136 36.5938H72.5112V43.2799H73.4136V36.5938Z" fill="#A51B1B"/>
<path d="M75.6265 36.5938H74.7241V43.2799H75.6265V36.5938Z" fill="#A51B1B"/>
<path d="M77.8393 36.5938H76.937V43.2799H77.8393V36.5938Z" fill="#A51B1B"/>
<path d="M80.0576 36.5938H79.1553V43.2799H80.0576V36.5938Z" fill="#A51B1B"/>
<path d="M82.2705 36.5938H81.3682V43.2799H82.2705V36.5938Z" fill="#A51B1B"/>
<path d="M84.4834 36.5938H83.5811V43.2799H84.4834V36.5938Z" fill="#A51B1B"/>
<path d="M86.7017 36.5938H85.7993V43.2799H86.7017V36.5938Z" fill="#A51B1B"/>
<path d="M88.9145 36.5938H88.0122V43.2799H88.9145V36.5938Z" fill="#A51B1B"/>
<path d="M91.1274 36.5938H90.2251V43.2799H91.1274V36.5938Z" fill="#A51B1B"/>
<path d="M93.3399 36.5938H92.4375V43.2799H93.3399V36.5938Z" fill="#A51B1B"/>
<path d="M95.5581 36.5938H94.6558V43.2799H95.5581V36.5938Z" fill="#A51B1B"/>
<path d="M97.771 36.5938H96.8687V43.2799H97.771V36.5938Z" fill="#A51B1B"/>
<path d="M99.9892 36.5938H99.0869V43.2799H99.9892V36.5938Z" fill="#A51B1B"/>
<path d="M102.202 36.5938H101.3V43.2799H102.202V36.5938Z" fill="#A51B1B"/>
<path d="M104.415 36.5938H103.513V43.2799H104.415V36.5938Z" fill="#A51B1B"/>
<path d="M106.633 36.5938H105.731V43.2799H106.633V36.5938Z" fill="#A51B1B"/>
<path d="M108.846 36.5938H107.944V43.2799H108.846V36.5938Z" fill="#A51B1B"/>
<path d="M111.059 36.5938H110.157V43.2799H111.059V36.5938Z" fill="#A51B1B"/>
<path d="M113.272 36.5938H112.37V43.2799H113.272V36.5938Z" fill="#A51B1B"/>
<path d="M115.49 36.5938H114.588V43.2799H115.49V36.5938Z" fill="#A51B1B"/>
<path d="M117.703 36.5938H116.801V43.2799H117.703V36.5938Z" fill="#A51B1B"/>
<path d="M213.55 89.0049H186.658V98.4032H213.55V89.0049Z" fill="#212121"/>
<path d="M228.188 150.345C233.249 134.821 246.297 108.263 238.686 103.606C228.732 97.5637 200.167 93.8296 200.167 93.8296V94.3331C200.167 94.3331 171.309 96.7246 161.355 102.724C153.702 107.34 166.959 135.241 171.978 150.765C173.191 154.499 173.526 171.24 173.024 186.008C172.898 189.659 169.427 206.399 169.929 213.364C170.096 215.42 193.433 228.301 199.958 228.636V228.133C206.524 227.797 229.903 215.042 230.028 212.945C230.53 206.022 227.184 189.239 227.101 185.589C226.641 170.82 226.975 154.079 228.188 150.345Z" fill="#FFCBAC"/>
<path d="M171.351 106.081C167.127 102.011 159.055 103.647 151.652 111.619C144.208 119.633 140.026 125.884 138.144 128.024C136.22 130.206 124.008 142.122 121.289 145.814C118.529 149.506 117.943 154.499 121.331 157.688C124.175 160.331 132.372 158.485 138.771 153.828C145.17 149.17 182.685 117.032 171.351 106.081Z" fill="#FFCBAC"/>
<path d="M171.686 100.291C171.686 100.291 163.488 99.9136 158.219 103.102C152.949 106.291 131.829 131.297 131.829 131.297C131.829 131.297 143.832 148.877 144.668 149.506C145.505 150.136 165.58 134.78 165.58 134.78C165.58 134.78 178.085 107.046 171.686 100.291Z" fill="#403D3D"/>
<path d="M212.086 89.2146C211.417 86.2776 209.828 71.6348 209.828 71.6348H200.167V72.1382H190.506C190.506 72.1382 188.833 86.7392 188.205 89.7181C187.578 92.697 179.59 97.1025 179.59 97.1025L200.125 97.1444V96.6409L220.66 96.6829C220.702 96.6829 212.755 92.1935 212.086 89.2146Z" fill="#FFCBAC"/>
<path d="M211.459 85.1029C210.873 80.6135 210.12 74.2361 209.911 72.2641L209.284 71.6348H200.167V72.1382H190.506C190.506 72.1382 188.833 86.7392 188.205 89.7181C187.578 92.697 179.59 97.1025 179.59 97.1025H180.552C189.711 94.669 198.87 92.2355 200.083 91.8998C202.634 91.1446 211.459 85.1029 211.459 85.1029Z" fill="#D88E65"/>
<path d="M215.683 197.295C227.393 196.036 232.83 203.756 235.131 228.93C237.431 254.104 236.553 281.796 235.34 285.866C234.127 289.935 217.523 291.781 215.641 289.684C213.759 287.586 204.224 235.811 203.387 227.63C202.551 219.49 202.927 198.68 215.683 197.295Z" fill="#FFCBAC"/>
<path d="M226.306 307.18L229.401 306.76C234.043 306.173 237.347 301.851 236.762 297.194L235.423 286.789C234.838 282.132 230.53 278.817 225.888 279.404L222.793 279.824C218.15 280.411 214.846 284.733 215.432 289.39L216.77 299.795C217.356 304.452 221.664 307.767 226.306 307.18Z" fill="#FFCBAC"/>
<path d="M230.405 105.368C234.754 101.466 242.784 103.396 249.894 111.661C257.004 119.927 260.977 126.346 262.776 128.57C264.616 130.835 276.368 143.171 278.961 146.989C281.554 150.765 281.972 155.8 278.459 158.863C275.532 161.422 267.418 159.24 261.186 154.331C254.955 149.422 218.694 115.857 230.405 105.368Z" fill="#FFCBAC"/>
<path d="M226.39 291.613C229.986 291.236 238.895 291.488 240.86 314.983C242.826 338.479 236.26 371.625 236.26 371.625L227.812 372.506C227.812 372.506 219.154 329.542 218.234 321.193C216.185 302.312 215.056 292.788 226.39 291.613Z" fill="#FFCBAC"/>
<path d="M241.153 103.899C240.066 101.634 232.914 99.9553 226.473 97.9414C220.827 96.1792 215.767 93.9555 215.767 93.9555L200.041 102.934L184.358 93.9136C184.358 93.9136 179.297 96.1373 173.651 97.8995C167.252 99.8714 160.059 101.55 158.971 103.815C157.842 106.123 169.301 150.345 170.556 154.079C171.853 157.856 168.507 184.12 171.769 192.008L199.874 192.931H199.916L228.021 192.092C230.614 183.071 228.021 157.436 229.317 153.66C230.697 149.926 242.282 106.207 241.153 103.899Z" fill="#403D3D"/>
<path d="M227.854 191.421C227.854 191.421 234.252 211.686 236.051 222.888C237.891 234.091 237.556 283.935 238.1 289.348C238.644 294.76 240.777 311.375 242.115 327.78C243.495 344.143 242.575 376.743 242.575 376.743L221.664 378.422C221.664 378.422 214.47 309.361 213.341 298.494C212.212 287.628 199.54 229.811 199.54 229.811L199.958 192.931L227.854 191.421Z" fill="#212121"/>
<path d="M239.69 376.995C239.69 376.995 247.678 384.589 247.51 386.855C247.427 388.114 244.876 392.981 239.481 393.904C235.34 394.575 228.188 391.512 227.143 391.512C224.675 391.512 223.337 378.338 223.337 378.338L239.69 376.995Z" fill="#212121"/>
<path d="M195.357 184.246C193.517 182.023 194.228 168.89 195.274 166.373C196.695 162.89 202.76 158.569 207.82 156.723C212.881 154.877 221.664 155.548 223.713 151.982C225.762 148.415 220.325 145.017 217.983 145.017C215.599 145.017 200.418 140.569 198.034 140.905C195.65 141.241 177.75 143.087 174.906 140.863C172.02 138.639 157.8 105.578 157.8 105.578C160.979 119.507 169.762 151.646 170.598 154.038C171.895 157.814 168.423 183.827 171.685 191.673L199.916 192.889H199.958L228.063 192.05C228.063 192.05 221.956 191.169 219.405 190.414C216.938 189.659 199.832 189.617 195.357 184.246Z" fill="#212121"/>
<path d="M225.428 233.881C226.599 241.307 227.937 291.194 228.146 294.005C228.355 296.774 235.423 373.723 235.758 377.289L242.617 376.743C242.617 376.743 243.495 344.143 242.157 327.78C240.777 311.417 238.686 294.802 238.142 289.348C237.598 283.935 237.933 234.091 236.093 222.888C234.252 211.686 227.895 191.421 227.895 191.421L211.292 192.596C211.25 192.596 224.257 226.455 225.428 233.881Z" fill="#403D3D"/>
<path d="M183.981 197.295C172.271 196.036 166.834 203.756 164.534 228.93C162.233 254.104 163.112 281.796 164.325 285.866C165.537 289.935 182.141 291.781 184.023 289.684C185.905 287.586 195.441 235.811 196.277 227.63C197.114 219.49 196.737 198.68 183.981 197.295Z" fill="#FFCBAC"/>
<path d="M173.358 307.18L170.264 306.76C165.621 306.173 162.317 301.851 162.903 297.194L164.241 286.789C164.827 282.132 169.134 278.817 173.777 279.404L176.871 279.824C181.514 280.411 184.818 284.733 184.232 289.39L182.894 299.795C182.308 304.452 178.001 307.809 173.358 307.18Z" fill="#FFCBAC"/>
<path d="M173.275 291.613C169.678 291.236 160.77 291.488 158.804 314.983C156.839 338.479 163.405 371.625 163.405 371.625L171.853 372.506C171.853 372.506 180.51 329.542 181.43 321.193C183.48 302.312 184.609 292.788 173.275 291.613Z" fill="#FFCBAC"/>
<path d="M171.811 191.421C171.811 191.421 165.412 211.686 163.614 222.888C161.774 234.091 162.108 283.935 161.565 289.348C161.021 294.76 158.888 311.375 157.55 327.78C156.169 344.143 157.09 376.743 157.09 376.743L178.001 378.422C178.001 378.422 185.194 309.361 186.324 298.494C187.453 287.628 199.874 230.399 199.874 230.399L200.042 192.889L171.811 191.421Z" fill="#212121"/>
<path d="M159.975 376.995C159.975 376.995 151.987 384.589 152.154 386.855C152.238 388.114 154.789 392.981 160.184 393.904C164.325 394.575 171.477 391.512 172.522 391.512C174.99 391.512 176.328 378.338 176.328 378.338L159.975 376.995Z" fill="#212121"/>
<path d="M217.733 58.1665C217.733 70.6277 208.322 83.0468 200.334 83.0049C192.723 83.0049 182.978 70.5857 183.02 58.0826C183.02 45.6215 190.841 35.5099 200.418 35.5519C209.995 35.5938 217.733 45.7054 217.733 58.1665Z" fill="#FFCBAC"/>
<path d="M183.02 60.6423C182.267 59.2997 179.674 53.5097 180.217 50.9083C180.803 48.307 183.856 42.6429 184.86 40.9646C185.863 39.2863 194.897 34.755 196.236 34.6711C197.574 34.5452 201.212 34.2096 204.015 34.6711C206.817 35.1326 211.794 37.0626 212.923 39.3283C214.052 41.594 216.854 44.1953 217.732 45.9994C218.653 47.8036 220.2 52.4607 219.991 53.132C219.782 53.8034 218.527 59.4675 218.402 59.929C218.276 60.3906 217.481 61.6493 217.481 61.6493C217.481 61.6493 212.797 49.7336 212.714 48.6007C212.588 47.4679 188.958 47.0903 187.495 47.8875C186.031 48.6846 183.02 60.6423 183.02 60.6423Z" fill="#9B5644"/>
<path d="M230.279 99.5776C230.279 99.5776 237.096 100.585 242.24 103.941C247.385 107.34 268.965 132.052 268.965 132.052C268.965 132.052 256.293 149.17 255.456 149.758C254.62 150.345 235.131 134.234 235.131 134.234C235.131 134.234 223.629 106.081 230.279 99.5776Z" fill="#403D3D"/>
<path d="M181.807 228.595C180.176 236.063 179.339 241.266 179.548 244.832C180.092 253.811 176.955 296.9 176.453 297.949C175.993 298.998 170.222 375.191 169.887 377.793L177.917 378.422C177.917 378.422 185.111 309.361 186.24 298.495C187.118 290.019 194.897 253.181 198.243 237.531L198.954 233.546L196.361 227.336C193.559 220.455 183.438 221.336 181.807 228.595Z" fill="#403D3D"/>
<path d="M229.903 202.372H169.553C167.796 202.372 166.374 200.945 166.374 199.183V190.54C166.374 188.778 167.796 187.351 169.553 187.351H229.903C231.659 187.351 233.081 188.778 233.081 190.54V199.183C233.081 200.945 231.659 202.372 229.903 202.372Z" fill="#212121"/>
<path d="M198.912 97.8997L200.125 102.976L191.091 99.536L196.319 97.0605L198.912 97.8997Z" fill="#212121"/>
<path d="M201.213 97.8997L200.042 102.976L209.117 99.536L203.889 97.0605L201.213 97.8997Z" fill="#212121"/>
<path d="M181.388 95.1725L186.658 89.0049L198.912 97.8997L194.479 106.249L181.388 95.1725Z" fill="#424242"/>
<path d="M218.778 95.1725L213.508 89.0049L201.212 97.8997L205.687 106.249L218.778 95.1725Z" fill="#424242"/>
<path d="M180.928 45.244C180.928 45.244 173.484 44.0273 173.484 40.1253C173.484 35.9296 192.513 22 199.958 22V45.286L180.928 45.244Z" fill="#312F2F"/>
<path d="M218.987 45.244C218.987 45.244 226.431 44.0273 226.431 40.1253C226.431 35.9296 207.402 22 199.958 22V45.286L218.987 45.244Z" fill="#312F2F"/>
<path d="M219.196 44.6567H180.677V49.6915H219.196V44.6567Z" fill="#292929"/>
<path d="M183.396 49.6914C183.396 49.6914 189.209 57.1597 200.041 57.1597C210.832 57.1597 216.771 49.6914 216.771 49.6914H183.396Z" fill="#212121"/>
<path d="M219.196 48.0132H180.677V49.6914H219.196V48.0132Z" fill="#D1D1D1"/>
<path d="M219.196 44.6982H180.677V45.4535H219.196V44.6982Z" fill="#D1D1D1"/>
<path d="M196.528 42.8525C196.528 45.244 199.038 47.174 200.041 47.174C201.38 47.174 203.555 45.244 203.555 42.8525C203.555 40.4609 202.718 38.5309 200.041 38.5309C197.365 38.489 196.528 40.4609 196.528 42.8525Z" fill="#D1D1D1"/>
<path d="M121.624 146.695C118.152 149.8 116.981 154.121 125.555 163.939C134.129 173.757 157.048 194.022 157.048 194.022L162.694 188.987C162.694 188.987 150.44 165.702 146.048 160.205C141.615 154.667 130.741 138.514 121.624 146.695Z" fill="#FFCBAC"/>
<path d="M175.198 198.302C175.533 197.505 175.073 196.582 174.278 196.288L167.796 193.897C166.959 193.603 166.039 193.98 165.704 194.778C165.412 195.575 165.83 196.456 166.624 196.792L173.107 199.183C173.943 199.477 174.864 199.099 175.198 198.302Z" fill="#FFCBAC"/>
<path d="M176.537 195.659C176.871 194.862 176.411 193.939 175.616 193.645L169.134 191.253C168.297 190.96 167.377 191.337 167.043 192.177C166.75 192.974 167.168 193.855 167.963 194.19L174.445 196.582C175.282 196.876 176.202 196.456 176.537 195.659Z" fill="#FFCBAC"/>
<path d="M177.666 193.057C178.001 192.26 177.54 191.337 176.746 191.043L170.263 188.652C169.427 188.358 168.507 188.736 168.172 189.575C167.879 190.372 168.298 191.253 169.092 191.589L175.575 193.98C176.411 194.274 177.373 193.855 177.666 193.057Z" fill="#FFCBAC"/>
<path d="M178.544 190.414C178.879 189.617 178.419 188.694 177.624 188.4L171.142 186.009C170.305 185.715 169.385 186.093 169.051 186.932C168.758 187.729 169.176 188.61 169.971 188.946L176.453 191.337C177.29 191.631 178.21 191.211 178.544 190.414Z" fill="#FFCBAC"/>
<path d="M154.998 183.911C154.998 183.911 166.416 183.323 168.59 183.827C170.765 184.33 178.168 188.778 178.168 188.778C178.168 188.778 174.655 190.498 174.195 192.344C173.735 194.232 173.065 199.141 173.065 199.141C173.065 199.141 165.537 198.386 162.317 196.959C159.097 195.575 156.253 193.477 156.253 193.477L154.998 183.911Z" fill="#FFCBAC"/>
<path d="M278.375 146.737C281.847 149.884 282.976 154.205 274.319 163.939C265.661 173.673 242.617 193.813 242.617 193.813L237.013 188.736C237.013 188.736 249.434 165.534 253.867 160.037C258.342 154.541 269.342 138.514 278.375 146.737Z" fill="#FFCBAC"/>
<path d="M224.131 198.302C223.796 197.505 224.256 196.582 225.051 196.288L231.534 193.897C232.37 193.603 233.29 193.98 233.625 194.778C233.917 195.575 233.499 196.456 232.705 196.792L226.222 199.183C225.386 199.477 224.465 199.099 224.131 198.302Z" fill="#FFCBAC"/>
<path d="M222.793 195.659C222.458 194.862 222.918 193.939 223.713 193.645L230.195 191.253C231.032 190.96 231.952 191.337 232.286 192.177C232.579 192.974 232.161 193.855 231.366 194.19L224.884 196.582C224.047 196.876 223.127 196.456 222.793 195.659Z" fill="#FFCBAC"/>
<path d="M221.664 193.057C221.329 192.26 221.789 191.337 222.584 191.043L229.066 188.652C229.903 188.358 230.823 188.736 231.157 189.575C231.45 190.372 231.032 191.253 230.237 191.589L223.755 193.98C222.918 194.274 221.956 193.855 221.664 193.057Z" fill="#FFCBAC"/>
<path d="M220.785 190.414C220.451 189.617 220.911 188.694 221.705 188.4L228.188 186.009C229.024 185.715 229.944 186.093 230.279 186.932C230.572 187.729 230.154 188.61 229.359 188.946L222.876 191.337C222.04 191.631 221.12 191.211 220.785 190.414Z" fill="#FFCBAC"/>
<path d="M244.331 183.911C244.331 183.911 232.914 183.323 230.739 183.827C228.564 184.33 221.162 188.778 221.162 188.778C221.162 188.778 224.675 190.498 225.135 192.344C225.595 194.232 226.264 199.141 226.264 199.141C226.264 199.141 233.792 198.386 237.012 196.959C240.233 195.575 243.077 193.477 243.077 193.477L244.331 183.911Z" fill="#FFCBAC"/>
<path d="M224.8 111.326C224.8 110.906 224.466 110.57 224.047 110.57C223.504 110.528 222.667 110.486 221.998 110.361C221.078 110.193 219.991 109.773 219.489 109.563C219.322 109.48 219.112 109.48 218.945 109.563C218.443 109.773 217.356 110.193 216.436 110.361C215.725 110.486 214.93 110.57 214.386 110.57C213.968 110.612 213.675 110.906 213.634 111.326C213.55 112.836 213.508 116.402 214.47 118.5C216.018 121.815 218.276 122.78 218.987 123.032C219.112 123.073 219.28 123.073 219.447 123.032C220.158 122.78 222.458 121.815 223.964 118.5C224.884 116.444 224.842 112.878 224.8 111.326Z" fill="#D1D1D1"/>
</svg>
